<?xml version="1.0" encoding="utf-8" standalone="no"?>
<!DOCTYPE svg PUBLIC "-//W3C//DTD SVG 1.1//EN"
  "http://www.w3.org/Graphics/SVG/1.1/DTD/svg11.dtd">
<svg xmlns:xlink="http://www.w3.org/1999/xlink" width="720pt" height="576pt" viewBox="0 0 720 576" xmlns="http://www.w3.org/2000/svg" version="1.1">
 <metadata>
  <rdf:RDF xmlns:dc="http://purl.org/dc/elements/1.1/" xmlns:cc="http://creativecommons.org/ns#" xmlns:rdf="http://www.w3.org/1999/02/22-rdf-syntax-ns#">
   <cc:Work>
    <dc:type rdf:resource="http://purl.org/dc/dcmitype/StillImage"/>
    <dc:date>2022-12-31T11:55:13.360409</dc:date>
    <dc:format>image/svg+xml</dc:format>
    <dc:creator>
     <cc:Agent>
      <dc:title>Matplotlib v3.6.2, https://matplotlib.org/</dc:title>
     </cc:Agent>
    </dc:creator>
   </cc:Work>
  </rdf:RDF>
 </metadata>
 <defs>
  <style type="text/css">*{stroke-linejoin: round; stroke-linecap: butt}</style>
 </defs>
 <g id="figure_1">
  <g id="patch_1">
   <path d="M 0 576 
L 720 576 
L 720 0 
L 0 0 
z
" style="fill: #ffffff"/>
  </g>
  <g id="axes_1">
   <g id="patch_2">
    <path d="M 90 512.64 
L 648 512.64 
L 648 69.12 
L 90 69.12 
z
" style="fill: #ffffff"/>
   </g>
   <g id="matplotlib.axis_1">
    <g id="xtick_1">
     <g id="line2d_1">
      <defs>
       <path id="m57c3e20fe1" d="M 0 0 
L 0 3.5 
" style="stroke: #000000; stroke-width: 0.8"/>
      </defs>
      <g>
       <use xlink:href="#m57c3e20fe1" x="622.636364" y="512.64" style="stroke: #000000; stroke-width: 0.8"/>
      </g>
     </g>
     <g id="text_1">
      <!-- 2022-12-28 -->
      <g transform="translate(597.998393 552.794199) rotate(-27) scale(0.1 -0.1)">
       <defs>
        <path id="DejaVuSans-32" d="M 1228 531 
L 3431 531 
L 3431 0 
L 469 0 
L 469 531 
Q 828 903 1448 1529 
Q 2069 2156 2228 2338 
Q 2531 2678 2651 2914 
Q 2772 3150 2772 3378 
Q 2772 3750 2511 3984 
Q 2250 4219 1831 4219 
Q 1534 4219 1204 4116 
Q 875 4013 500 3803 
L 500 4441 
Q 881 4594 1212 4672 
Q 1544 4750 1819 4750 
Q 2544 4750 2975 4387 
Q 3406 4025 3406 3419 
Q 3406 3131 3298 2873 
Q 3191 2616 2906 2266 
Q 2828 2175 2409 1742 
Q 1991 1309 1228 531 
z
" transform="scale(0.015625)"/>
        <path id="DejaVuSans-30" d="M 2034 4250 
Q 1547 4250 1301 3770 
Q 1056 3291 1056 2328 
Q 1056 1369 1301 889 
Q 1547 409 2034 409 
Q 2525 409 2770 889 
Q 3016 1369 3016 2328 
Q 3016 3291 2770 3770 
Q 2525 4250 2034 4250 
z
M 2034 4750 
Q 2819 4750 3233 4129 
Q 3647 3509 3647 2328 
Q 3647 1150 3233 529 
Q 2819 -91 2034 -91 
Q 1250 -91 836 529 
Q 422 1150 422 2328 
Q 422 3509 836 4129 
Q 1250 4750 2034 4750 
z
" transform="scale(0.015625)"/>
        <path id="DejaVuSans-2d" d="M 313 2009 
L 1997 2009 
L 1997 1497 
L 313 1497 
L 313 2009 
z
" transform="scale(0.015625)"/>
        <path id="DejaVuSans-31" d="M 794 531 
L 1825 531 
L 1825 4091 
L 703 3866 
L 703 4441 
L 1819 4666 
L 2450 4666 
L 2450 531 
L 3481 531 
L 3481 0 
L 794 0 
L 794 531 
z
" transform="scale(0.015625)"/>
        <path id="DejaVuSans-38" d="M 2034 2216 
Q 1584 2216 1326 1975 
Q 1069 1734 1069 1313 
Q 1069 891 1326 650 
Q 1584 409 2034 409 
Q 2484 409 2743 651 
Q 3003 894 3003 1313 
Q 3003 1734 2745 1975 
Q 2488 2216 2034 2216 
z
M 1403 2484 
Q 997 2584 770 2862 
Q 544 3141 544 3541 
Q 544 4100 942 4425 
Q 1341 4750 2034 4750 
Q 2731 4750 3128 4425 
Q 3525 4100 3525 3541 
Q 3525 3141 3298 2862 
Q 3072 2584 2669 2484 
Q 3125 2378 3379 2068 
Q 3634 1759 3634 1313 
Q 3634 634 3220 271 
Q 2806 -91 2034 -91 
Q 1263 -91 848 271 
Q 434 634 434 1313 
Q 434 1759 690 2068 
Q 947 2378 1403 2484 
z
M 1172 3481 
Q 1172 3119 1398 2916 
Q 1625 2713 2034 2713 
Q 2441 2713 2670 2916 
Q 2900 3119 2900 3481 
Q 2900 3844 2670 4047 
Q 2441 4250 2034 4250 
Q 1625 4250 1398 4047 
Q 1172 3844 1172 3481 
z
" transform="scale(0.015625)"/>
       </defs>
       <use xlink:href="#DejaVuSans-32"/>
       <use xlink:href="#DejaVuSans-30" x="63.623047"/>
       <use xlink:href="#DejaVuSans-32" x="127.246094"/>
       <use xlink:href="#DejaVuSans-32" x="190.869141"/>
       <use xlink:href="#DejaVuSans-2d" x="254.492188"/>
       <use xlink:href="#DejaVuSans-31" x="290.576172"/>
       <use xlink:href="#DejaVuSans-32" x="354.199219"/>
       <use xlink:href="#DejaVuSans-2d" x="417.822266"/>
       <use xlink:href="#DejaVuSans-32" x="453.90625"/>
       <use xlink:href="#DejaVuSans-38" x="517.529297"/>
      </g>
     </g>
    </g>
    <g id="xtick_2">
     <g id="line2d_2">
      <g>
       <use xlink:href="#m57c3e20fe1" x="571.666377" y="512.64" style="stroke: #000000; stroke-width: 0.8"/>
      </g>
     </g>
     <g id="text_2">
      <!-- 2022-06-29 -->
      <g transform="translate(547.028406 552.794199) rotate(-27) scale(0.1 -0.1)">
       <defs>
        <path id="DejaVuSans-36" d="M 2113 2584 
Q 1688 2584 1439 2293 
Q 1191 2003 1191 1497 
Q 1191 994 1439 701 
Q 1688 409 2113 409 
Q 2538 409 2786 701 
Q 3034 994 3034 1497 
Q 3034 2003 2786 2293 
Q 2538 2584 2113 2584 
z
M 3366 4563 
L 3366 3988 
Q 3128 4100 2886 4159 
Q 2644 4219 2406 4219 
Q 1781 4219 1451 3797 
Q 1122 3375 1075 2522 
Q 1259 2794 1537 2939 
Q 1816 3084 2150 3084 
Q 2853 3084 3261 2657 
Q 3669 2231 3669 1497 
Q 3669 778 3244 343 
Q 2819 -91 2113 -91 
Q 1303 -91 875 529 
Q 447 1150 447 2328 
Q 447 3434 972 4092 
Q 1497 4750 2381 4750 
Q 2619 4750 2861 4703 
Q 3103 4656 3366 4563 
z
" transform="scale(0.015625)"/>
        <path id="DejaVuSans-39" d="M 703 97 
L 703 672 
Q 941 559 1184 500 
Q 1428 441 1663 441 
Q 2288 441 2617 861 
Q 2947 1281 2994 2138 
Q 2813 1869 2534 1725 
Q 2256 1581 1919 1581 
Q 1219 1581 811 2004 
Q 403 2428 403 3163 
Q 403 3881 828 4315 
Q 1253 4750 1959 4750 
Q 2769 4750 3195 4129 
Q 3622 3509 3622 2328 
Q 3622 1225 3098 567 
Q 2575 -91 1691 -91 
Q 1453 -91 1209 -44 
Q 966 3 703 97 
z
M 1959 2075 
Q 2384 2075 2632 2365 
Q 2881 2656 2881 3163 
Q 2881 3666 2632 3958 
Q 2384 4250 1959 4250 
Q 1534 4250 1286 3958 
Q 1038 3666 1038 3163 
Q 1038 2656 1286 2365 
Q 1534 2075 1959 2075 
z
" transform="scale(0.015625)"/>
       </defs>
       <use xlink:href="#DejaVuSans-32"/>
       <use xlink:href="#DejaVuSans-30" x="63.623047"/>
       <use xlink:href="#DejaVuSans-32" x="127.246094"/>
       <use xlink:href="#DejaVuSans-32" x="190.869141"/>
       <use xlink:href="#DejaVuSans-2d" x="254.492188"/>
       <use xlink:href="#DejaVuSans-30" x="290.576172"/>
       <use xlink:href="#DejaVuSans-36" x="354.199219"/>
       <use xlink:href="#DejaVuSans-2d" x="417.822266"/>
       <use xlink:href="#DejaVuSans-32" x="453.90625"/>
       <use xlink:href="#DejaVuSans-39" x="517.529297"/>
      </g>
     </g>
    </g>
    <g id="xtick_3">
     <g id="line2d_3">
      <g>
       <use xlink:href="#m57c3e20fe1" x="520.69639" y="512.64" style="stroke: #000000; stroke-width: 0.8"/>
      </g>
     </g>
     <g id="text_3">
      <!-- 2021-12-28 -->
      <g transform="translate(496.058419 552.794199) rotate(-27) scale(0.1 -0.1)">
       <use xlink:href="#DejaVuSans-32"/>
       <use xlink:href="#DejaVuSans-30" x="63.623047"/>
       <use xlink:href="#DejaVuSans-32" x="127.246094"/>
       <use xlink:href="#DejaVuSans-31" x="190.869141"/>
       <use xlink:href="#DejaVuSans-2d" x="254.492188"/>
       <use xlink:href="#DejaVuSans-31" x="290.576172"/>
       <use xlink:href="#DejaVuSans-32" x="354.199219"/>
       <use xlink:href="#DejaVuSans-2d" x="417.822266"/>
       <use xlink:href="#DejaVuSans-32" x="453.90625"/>
       <use xlink:href="#DejaVuSans-38" x="517.529297"/>
      </g>
     </g>
    </g>
    <g id="xtick_4">
     <g id="line2d_4">
      <g>
       <use xlink:href="#m57c3e20fe1" x="469.726403" y="512.64" style="stroke: #000000; stroke-width: 0.8"/>
      </g>
     </g>
     <g id="text_4">
      <!-- 2021-06-29 -->
      <g transform="translate(445.088432 552.794199) rotate(-27) scale(0.1 -0.1)">
       <use xlink:href="#DejaVuSans-32"/>
       <use xlink:href="#DejaVuSans-30" x="63.623047"/>
       <use xlink:href="#DejaVuSans-32" x="127.246094"/>
       <use xlink:href="#DejaVuSans-31" x="190.869141"/>
       <use xlink:href="#DejaVuSans-2d" x="254.492188"/>
       <use xlink:href="#DejaVuSans-30" x="290.576172"/>
       <use xlink:href="#DejaVuSans-36" x="354.199219"/>
       <use xlink:href="#DejaVuSans-2d" x="417.822266"/>
       <use xlink:href="#DejaVuSans-32" x="453.90625"/>
       <use xlink:href="#DejaVuSans-39" x="517.529297"/>
      </g>
     </g>
    </g>
    <g id="xtick_5">
     <g id="line2d_5">
      <g>
       <use xlink:href="#m57c3e20fe1" x="418.756416" y="512.64" style="stroke: #000000; stroke-width: 0.8"/>
      </g>
     </g>
     <g id="text_5">
      <!-- 2020-12-28 -->
      <g transform="translate(394.118445 552.794199) rotate(-27) scale(0.1 -0.1)">
       <use xlink:href="#DejaVuSans-32"/>
       <use xlink:href="#DejaVuSans-30" x="63.623047"/>
       <use xlink:href="#DejaVuSans-32" x="127.246094"/>
       <use xlink:href="#DejaVuSans-30" x="190.869141"/>
       <use xlink:href="#DejaVuSans-2d" x="254.492188"/>
       <use xlink:href="#DejaVuSans-31" x="290.576172"/>
       <use xlink:href="#DejaVuSans-32" x="354.199219"/>
       <use xlink:href="#DejaVuSans-2d" x="417.822266"/>
       <use xlink:href="#DejaVuSans-32" x="453.90625"/>
       <use xlink:href="#DejaVuSans-38" x="517.529297"/>
      </g>
     </g>
    </g>
    <g id="xtick_6">
     <g id="line2d_6">
      <g>
       <use xlink:href="#m57c3e20fe1" x="367.786429" y="512.64" style="stroke: #000000; stroke-width: 0.8"/>
      </g>
     </g>
     <g id="text_6">
      <!-- 2020-06-29 -->
      <g transform="translate(343.148458 552.794199) rotate(-27) scale(0.1 -0.1)">
       <use xlink:href="#DejaVuSans-32"/>
       <use xlink:href="#DejaVuSans-30" x="63.623047"/>
       <use xlink:href="#DejaVuSans-32" x="127.246094"/>
       <use xlink:href="#DejaVuSans-30" x="190.869141"/>
       <use xlink:href="#DejaVuSans-2d" x="254.492188"/>
       <use xlink:href="#DejaVuSans-30" x="290.576172"/>
       <use xlink:href="#DejaVuSans-36" x="354.199219"/>
       <use xlink:href="#DejaVuSans-2d" x="417.822266"/>
       <use xlink:href="#DejaVuSans-32" x="453.90625"/>
       <use xlink:href="#DejaVuSans-39" x="517.529297"/>
      </g>
     </g>
    </g>
    <g id="xtick_7">
     <g id="line2d_7">
      <g>
       <use xlink:href="#m57c3e20fe1" x="316.816442" y="512.64" style="stroke: #000000; stroke-width: 0.8"/>
      </g>
     </g>
     <g id="text_7">
      <!-- 2019-12-27 -->
      <g transform="translate(292.178471 552.794199) rotate(-27) scale(0.1 -0.1)">
       <defs>
        <path id="DejaVuSans-37" d="M 525 4666 
L 3525 4666 
L 3525 4397 
L 1831 0 
L 1172 0 
L 2766 4134 
L 525 4134 
L 525 4666 
z
" transform="scale(0.015625)"/>
       </defs>
       <use xlink:href="#DejaVuSans-32"/>
       <use xlink:href="#DejaVuSans-30" x="63.623047"/>
       <use xlink:href="#DejaVuSans-31" x="127.246094"/>
       <use xlink:href="#DejaVuSans-39" x="190.869141"/>
       <use xlink:href="#DejaVuSans-2d" x="254.492188"/>
       <use xlink:href="#DejaVuSans-31" x="290.576172"/>
       <use xlink:href="#DejaVuSans-32" x="354.199219"/>
       <use xlink:href="#DejaVuSans-2d" x="417.822266"/>
       <use xlink:href="#DejaVuSans-32" x="453.90625"/>
       <use xlink:href="#DejaVuSans-37" x="517.529297"/>
      </g>
     </g>
    </g>
    <g id="xtick_8">
     <g id="line2d_8">
      <g>
       <use xlink:href="#m57c3e20fe1" x="265.846455" y="512.64" style="stroke: #000000; stroke-width: 0.8"/>
      </g>
     </g>
     <g id="text_8">
      <!-- 2019-06-28 -->
      <g transform="translate(241.208484 552.794199) rotate(-27) scale(0.1 -0.1)">
       <use xlink:href="#DejaVuSans-32"/>
       <use xlink:href="#DejaVuSans-30" x="63.623047"/>
       <use xlink:href="#DejaVuSans-31" x="127.246094"/>
       <use xlink:href="#DejaVuSans-39" x="190.869141"/>
       <use xlink:href="#DejaVuSans-2d" x="254.492188"/>
       <use xlink:href="#DejaVuSans-30" x="290.576172"/>
       <use xlink:href="#DejaVuSans-36" x="354.199219"/>
       <use xlink:href="#DejaVuSans-2d" x="417.822266"/>
       <use xlink:href="#DejaVuSans-32" x="453.90625"/>
       <use xlink:href="#DejaVuSans-38" x="517.529297"/>
      </g>
     </g>
    </g>
    <g id="xtick_9">
     <g id="line2d_9">
      <g>
       <use xlink:href="#m57c3e20fe1" x="214.876468" y="512.64" style="stroke: #000000; stroke-width: 0.8"/>
      </g>
     </g>
     <g id="text_9">
      <!-- 2018-12-27 -->
      <g transform="translate(190.238498 552.794199) rotate(-27) scale(0.1 -0.1)">
       <use xlink:href="#DejaVuSans-32"/>
       <use xlink:href="#DejaVuSans-30" x="63.623047"/>
       <use xlink:href="#DejaVuSans-31" x="127.246094"/>
       <use xlink:href="#DejaVuSans-38" x="190.869141"/>
       <use xlink:href="#DejaVuSans-2d" x="254.492188"/>
       <use xlink:href="#DejaVuSans-31" x="290.576172"/>
       <use xlink:href="#DejaVuSans-32" x="354.199219"/>
       <use xlink:href="#DejaVuSans-2d" x="417.822266"/>
       <use xlink:href="#DejaVuSans-32" x="453.90625"/>
       <use xlink:href="#DejaVuSans-37" x="517.529297"/>
      </g>
     </g>
    </g>
    <g id="xtick_10">
     <g id="line2d_10">
      <g>
       <use xlink:href="#m57c3e20fe1" x="163.906481" y="512.64" style="stroke: #000000; stroke-width: 0.8"/>
      </g>
     </g>
     <g id="text_10">
      <!-- 2018-06-27 -->
      <g transform="translate(139.268511 552.794199) rotate(-27) scale(0.1 -0.1)">
       <use xlink:href="#DejaVuSans-32"/>
       <use xlink:href="#DejaVuSans-30" x="63.623047"/>
       <use xlink:href="#DejaVuSans-31" x="127.246094"/>
       <use xlink:href="#DejaVuSans-38" x="190.869141"/>
       <use xlink:href="#DejaVuSans-2d" x="254.492188"/>
       <use xlink:href="#DejaVuSans-30" x="290.576172"/>
       <use xlink:href="#DejaVuSans-36" x="354.199219"/>
       <use xlink:href="#DejaVuSans-2d" x="417.822266"/>
       <use xlink:href="#DejaVuSans-32" x="453.90625"/>
       <use xlink:href="#DejaVuSans-37" x="517.529297"/>
      </g>
     </g>
    </g>
    <g id="text_11">
     <!-- Time in 1255 trading days -->
     <g transform="translate(303.339063 566.245652) scale(0.1 -0.1)">
      <defs>
       <path id="DejaVuSans-54" d="M -19 4666 
L 3928 4666 
L 3928 4134 
L 2272 4134 
L 2272 0 
L 1638 0 
L 1638 4134 
L -19 4134 
L -19 4666 
z
" transform="scale(0.015625)"/>
       <path id="DejaVuSans-69" d="M 603 3500 
L 1178 3500 
L 1178 0 
L 603 0 
L 603 3500 
z
M 603 4863 
L 1178 4863 
L 1178 4134 
L 603 4134 
L 603 4863 
z
" transform="scale(0.015625)"/>
       <path id="DejaVuSans-6d" d="M 3328 2828 
Q 3544 3216 3844 3400 
Q 4144 3584 4550 3584 
Q 5097 3584 5394 3201 
Q 5691 2819 5691 2113 
L 5691 0 
L 5113 0 
L 5113 2094 
Q 5113 2597 4934 2840 
Q 4756 3084 4391 3084 
Q 3944 3084 3684 2787 
Q 3425 2491 3425 1978 
L 3425 0 
L 2847 0 
L 2847 2094 
Q 2847 2600 2669 2842 
Q 2491 3084 2119 3084 
Q 1678 3084 1418 2786 
Q 1159 2488 1159 1978 
L 1159 0 
L 581 0 
L 581 3500 
L 1159 3500 
L 1159 2956 
Q 1356 3278 1631 3431 
Q 1906 3584 2284 3584 
Q 2666 3584 2933 3390 
Q 3200 3197 3328 2828 
z
" transform="scale(0.015625)"/>
       <path id="DejaVuSans-65" d="M 3597 1894 
L 3597 1613 
L 953 1613 
Q 991 1019 1311 708 
Q 1631 397 2203 397 
Q 2534 397 2845 478 
Q 3156 559 3463 722 
L 3463 178 
Q 3153 47 2828 -22 
Q 2503 -91 2169 -91 
Q 1331 -91 842 396 
Q 353 884 353 1716 
Q 353 2575 817 3079 
Q 1281 3584 2069 3584 
Q 2775 3584 3186 3129 
Q 3597 2675 3597 1894 
z
M 3022 2063 
Q 3016 2534 2758 2815 
Q 2500 3097 2075 3097 
Q 1594 3097 1305 2825 
Q 1016 2553 972 2059 
L 3022 2063 
z
" transform="scale(0.015625)"/>
       <path id="DejaVuSans-20" transform="scale(0.015625)"/>
       <path id="DejaVuSans-6e" d="M 3513 2113 
L 3513 0 
L 2938 0 
L 2938 2094 
Q 2938 2591 2744 2837 
Q 2550 3084 2163 3084 
Q 1697 3084 1428 2787 
Q 1159 2491 1159 1978 
L 1159 0 
L 581 0 
L 581 3500 
L 1159 3500 
L 1159 2956 
Q 1366 3272 1645 3428 
Q 1925 3584 2291 3584 
Q 2894 3584 3203 3211 
Q 3513 2838 3513 2113 
z
" transform="scale(0.015625)"/>
       <path id="DejaVuSans-35" d="M 691 4666 
L 3169 4666 
L 3169 4134 
L 1269 4134 
L 1269 2991 
Q 1406 3038 1543 3061 
Q 1681 3084 1819 3084 
Q 2600 3084 3056 2656 
Q 3513 2228 3513 1497 
Q 3513 744 3044 326 
Q 2575 -91 1722 -91 
Q 1428 -91 1123 -41 
Q 819 9 494 109 
L 494 744 
Q 775 591 1075 516 
Q 1375 441 1709 441 
Q 2250 441 2565 725 
Q 2881 1009 2881 1497 
Q 2881 1984 2565 2268 
Q 2250 2553 1709 2553 
Q 1456 2553 1204 2497 
Q 953 2441 691 2322 
L 691 4666 
z
" transform="scale(0.015625)"/>
       <path id="DejaVuSans-74" d="M 1172 4494 
L 1172 3500 
L 2356 3500 
L 2356 3053 
L 1172 3053 
L 1172 1153 
Q 1172 725 1289 603 
Q 1406 481 1766 481 
L 2356 481 
L 2356 0 
L 1766 0 
Q 1100 0 847 248 
Q 594 497 594 1153 
L 594 3053 
L 172 3053 
L 172 3500 
L 594 3500 
L 594 4494 
L 1172 4494 
z
" transform="scale(0.015625)"/>
       <path id="DejaVuSans-72" d="M 2631 2963 
Q 2534 3019 2420 3045 
Q 2306 3072 2169 3072 
Q 1681 3072 1420 2755 
Q 1159 2438 1159 1844 
L 1159 0 
L 581 0 
L 581 3500 
L 1159 3500 
L 1159 2956 
Q 1341 3275 1631 3429 
Q 1922 3584 2338 3584 
Q 2397 3584 2469 3576 
Q 2541 3569 2628 3553 
L 2631 2963 
z
" transform="scale(0.015625)"/>
       <path id="DejaVuSans-61" d="M 2194 1759 
Q 1497 1759 1228 1600 
Q 959 1441 959 1056 
Q 959 750 1161 570 
Q 1363 391 1709 391 
Q 2188 391 2477 730 
Q 2766 1069 2766 1631 
L 2766 1759 
L 2194 1759 
z
M 3341 1997 
L 3341 0 
L 2766 0 
L 2766 531 
Q 2569 213 2275 61 
Q 1981 -91 1556 -91 
Q 1019 -91 701 211 
Q 384 513 384 1019 
Q 384 1609 779 1909 
Q 1175 2209 1959 2209 
L 2766 2209 
L 2766 2266 
Q 2766 2663 2505 2880 
Q 2244 3097 1772 3097 
Q 1472 3097 1187 3025 
Q 903 2953 641 2809 
L 641 3341 
Q 956 3463 1253 3523 
Q 1550 3584 1831 3584 
Q 2591 3584 2966 3190 
Q 3341 2797 3341 1997 
z
" transform="scale(0.015625)"/>
       <path id="DejaVuSans-64" d="M 2906 2969 
L 2906 4863 
L 3481 4863 
L 3481 0 
L 2906 0 
L 2906 525 
Q 2725 213 2448 61 
Q 2172 -91 1784 -91 
Q 1150 -91 751 415 
Q 353 922 353 1747 
Q 353 2572 751 3078 
Q 1150 3584 1784 3584 
Q 2172 3584 2448 3432 
Q 2725 3281 2906 2969 
z
M 947 1747 
Q 947 1113 1208 752 
Q 1469 391 1925 391 
Q 2381 391 2643 752 
Q 2906 1113 2906 1747 
Q 2906 2381 2643 2742 
Q 2381 3103 1925 3103 
Q 1469 3103 1208 2742 
Q 947 2381 947 1747 
z
" transform="scale(0.015625)"/>
       <path id="DejaVuSans-67" d="M 2906 1791 
Q 2906 2416 2648 2759 
Q 2391 3103 1925 3103 
Q 1463 3103 1205 2759 
Q 947 2416 947 1791 
Q 947 1169 1205 825 
Q 1463 481 1925 481 
Q 2391 481 2648 825 
Q 2906 1169 2906 1791 
z
M 3481 434 
Q 3481 -459 3084 -895 
Q 2688 -1331 1869 -1331 
Q 1566 -1331 1297 -1286 
Q 1028 -1241 775 -1147 
L 775 -588 
Q 1028 -725 1275 -790 
Q 1522 -856 1778 -856 
Q 2344 -856 2625 -561 
Q 2906 -266 2906 331 
L 2906 616 
Q 2728 306 2450 153 
Q 2172 0 1784 0 
Q 1141 0 747 490 
Q 353 981 353 1791 
Q 353 2603 747 3093 
Q 1141 3584 1784 3584 
Q 2172 3584 2450 3431 
Q 2728 3278 2906 2969 
L 2906 3500 
L 3481 3500 
L 3481 434 
z
" transform="scale(0.015625)"/>
       <path id="DejaVuSans-79" d="M 2059 -325 
Q 1816 -950 1584 -1140 
Q 1353 -1331 966 -1331 
L 506 -1331 
L 506 -850 
L 844 -850 
Q 1081 -850 1212 -737 
Q 1344 -625 1503 -206 
L 1606 56 
L 191 3500 
L 800 3500 
L 1894 763 
L 2988 3500 
L 3597 3500 
L 2059 -325 
z
" transform="scale(0.015625)"/>
       <path id="DejaVuSans-73" d="M 2834 3397 
L 2834 2853 
Q 2591 2978 2328 3040 
Q 2066 3103 1784 3103 
Q 1356 3103 1142 2972 
Q 928 2841 928 2578 
Q 928 2378 1081 2264 
Q 1234 2150 1697 2047 
L 1894 2003 
Q 2506 1872 2764 1633 
Q 3022 1394 3022 966 
Q 3022 478 2636 193 
Q 2250 -91 1575 -91 
Q 1294 -91 989 -36 
Q 684 19 347 128 
L 347 722 
Q 666 556 975 473 
Q 1284 391 1588 391 
Q 1994 391 2212 530 
Q 2431 669 2431 922 
Q 2431 1156 2273 1281 
Q 2116 1406 1581 1522 
L 1381 1569 
Q 847 1681 609 1914 
Q 372 2147 372 2553 
Q 372 3047 722 3315 
Q 1072 3584 1716 3584 
Q 2034 3584 2315 3537 
Q 2597 3491 2834 3397 
z
" transform="scale(0.015625)"/>
      </defs>
      <use xlink:href="#DejaVuSans-54"/>
      <use xlink:href="#DejaVuSans-69" x="57.958984"/>
      <use xlink:href="#DejaVuSans-6d" x="85.742188"/>
      <use xlink:href="#DejaVuSans-65" x="183.154297"/>
      <use xlink:href="#DejaVuSans-20" x="244.677734"/>
      <use xlink:href="#DejaVuSans-69" x="276.464844"/>
      <use xlink:href="#DejaVuSans-6e" x="304.248047"/>
      <use xlink:href="#DejaVuSans-20" x="367.626953"/>
      <use xlink:href="#DejaVuSans-31" x="399.414062"/>
      <use xlink:href="#DejaVuSans-32" x="463.037109"/>
      <use xlink:href="#DejaVuSans-35" x="526.660156"/>
      <use xlink:href="#DejaVuSans-35" x="590.283203"/>
      <use xlink:href="#DejaVuSans-20" x="653.90625"/>
      <use xlink:href="#DejaVuSans-74" x="685.693359"/>
      <use xlink:href="#DejaVuSans-72" x="724.902344"/>
      <use xlink:href="#DejaVuSans-61" x="766.015625"/>
      <use xlink:href="#DejaVuSans-64" x="827.294922"/>
      <use xlink:href="#DejaVuSans-69" x="890.771484"/>
      <use xlink:href="#DejaVuSans-6e" x="918.554688"/>
      <use xlink:href="#DejaVuSans-67" x="981.933594"/>
      <use xlink:href="#DejaVuSans-20" x="1045.410156"/>
      <use xlink:href="#DejaVuSans-64" x="1077.197266"/>
      <use xlink:href="#DejaVuSans-61" x="1140.673828"/>
      <use xlink:href="#DejaVuSans-79" x="1201.953125"/>
      <use xlink:href="#DejaVuSans-73" x="1261.132812"/>
     </g>
    </g>
   </g>
   <g id="matplotlib.axis_2">
    <g id="ytick_1">
     <g id="line2d_11">
      <defs>
       <path id="m7ad8a124ba" d="M 0 0 
L -3.5 0 
" style="stroke: #000000; stroke-width: 0.8"/>
      </defs>
      <g>
       <use xlink:href="#m7ad8a124ba" x="90" y="476.69048" style="stroke: #000000; stroke-width: 0.8"/>
      </g>
     </g>
     <g id="text_12">
      <!-- $40 -->
      <g transform="translate(63.9125 480.489698) scale(0.1 -0.1)">
       <defs>
        <path id="DejaVuSans-24" d="M 2163 -941 
L 1850 -941 
L 1847 0 
Q 1519 6 1191 76 
Q 863 147 531 288 
L 531 850 
Q 850 650 1176 548 
Q 1503 447 1850 444 
L 1850 1869 
Q 1159 1981 845 2250 
Q 531 2519 531 2988 
Q 531 3497 872 3790 
Q 1213 4084 1850 4128 
L 1850 4863 
L 2163 4863 
L 2163 4138 
Q 2453 4125 2725 4076 
Q 2997 4028 3256 3944 
L 3256 3397 
Q 2997 3528 2723 3600 
Q 2450 3672 2163 3684 
L 2163 2350 
Q 2872 2241 3206 1959 
Q 3541 1678 3541 1191 
Q 3541 663 3186 358 
Q 2831 53 2163 6 
L 2163 -941 
z
M 1850 2406 
L 1850 3688 
Q 1488 3647 1297 3481 
Q 1106 3316 1106 3041 
Q 1106 2772 1282 2622 
Q 1459 2472 1850 2406 
z
M 2163 1806 
L 2163 453 
Q 2559 506 2761 678 
Q 2963 850 2963 1131 
Q 2963 1406 2770 1568 
Q 2578 1731 2163 1806 
z
" transform="scale(0.015625)"/>
        <path id="DejaVuSans-34" d="M 2419 4116 
L 825 1625 
L 2419 1625 
L 2419 4116 
z
M 2253 4666 
L 3047 4666 
L 3047 1625 
L 3713 1625 
L 3713 1100 
L 3047 1100 
L 3047 0 
L 2419 0 
L 2419 1100 
L 313 1100 
L 313 1709 
L 2253 4666 
z
" transform="scale(0.015625)"/>
       </defs>
       <use xlink:href="#DejaVuSans-24"/>
       <use xlink:href="#DejaVuSans-34" x="63.623047"/>
       <use xlink:href="#DejaVuSans-30" x="127.246094"/>
      </g>
     </g>
    </g>
    <g id="ytick_2">
     <g id="line2d_12">
      <g>
       <use xlink:href="#m7ad8a124ba" x="90" y="421.633678" style="stroke: #000000; stroke-width: 0.8"/>
      </g>
     </g>
     <g id="text_13">
      <!-- $60 -->
      <g transform="translate(63.9125 425.432896) scale(0.1 -0.1)">
       <use xlink:href="#DejaVuSans-24"/>
       <use xlink:href="#DejaVuSans-36" x="63.623047"/>
       <use xlink:href="#DejaVuSans-30" x="127.246094"/>
      </g>
     </g>
    </g>
    <g id="ytick_3">
     <g id="line2d_13">
      <g>
       <use xlink:href="#m7ad8a124ba" x="90" y="366.576876" style="stroke: #000000; stroke-width: 0.8"/>
      </g>
     </g>
     <g id="text_14">
      <!-- $80 -->
      <g transform="translate(63.9125 370.376094) scale(0.1 -0.1)">
       <use xlink:href="#DejaVuSans-24"/>
       <use xlink:href="#DejaVuSans-38" x="63.623047"/>
       <use xlink:href="#DejaVuSans-30" x="127.246094"/>
      </g>
     </g>
    </g>
    <g id="ytick_4">
     <g id="line2d_14">
      <g>
       <use xlink:href="#m7ad8a124ba" x="90" y="311.520074" style="stroke: #000000; stroke-width: 0.8"/>
      </g>
     </g>
     <g id="text_15">
      <!-- $100 -->
      <g transform="translate(57.55 315.319292) scale(0.1 -0.1)">
       <use xlink:href="#DejaVuSans-24"/>
       <use xlink:href="#DejaVuSans-31" x="63.623047"/>
       <use xlink:href="#DejaVuSans-30" x="127.246094"/>
       <use xlink:href="#DejaVuSans-30" x="190.869141"/>
      </g>
     </g>
    </g>
    <g id="ytick_5">
     <g id="line2d_15">
      <g>
       <use xlink:href="#m7ad8a124ba" x="90" y="256.463272" style="stroke: #000000; stroke-width: 0.8"/>
      </g>
     </g>
     <g id="text_16">
      <!-- $120 -->
      <g transform="translate(57.55 260.26249) scale(0.1 -0.1)">
       <use xlink:href="#DejaVuSans-24"/>
       <use xlink:href="#DejaVuSans-31" x="63.623047"/>
       <use xlink:href="#DejaVuSans-32" x="127.246094"/>
       <use xlink:href="#DejaVuSans-30" x="190.869141"/>
      </g>
     </g>
    </g>
    <g id="ytick_6">
     <g id="line2d_16">
      <g>
       <use xlink:href="#m7ad8a124ba" x="90" y="201.40647" style="stroke: #000000; stroke-width: 0.8"/>
      </g>
     </g>
     <g id="text_17">
      <!-- $140 -->
      <g transform="translate(57.55 205.205688) scale(0.1 -0.1)">
       <use xlink:href="#DejaVuSans-24"/>
       <use xlink:href="#DejaVuSans-31" x="63.623047"/>
       <use xlink:href="#DejaVuSans-34" x="127.246094"/>
       <use xlink:href="#DejaVuSans-30" x="190.869141"/>
      </g>
     </g>
    </g>
    <g id="ytick_7">
     <g id="line2d_17">
      <g>
       <use xlink:href="#m7ad8a124ba" x="90" y="146.349668" style="stroke: #000000; stroke-width: 0.8"/>
      </g>
     </g>
     <g id="text_18">
      <!-- $160 -->
      <g transform="translate(57.55 150.148886) scale(0.1 -0.1)">
       <use xlink:href="#DejaVuSans-24"/>
       <use xlink:href="#DejaVuSans-31" x="63.623047"/>
       <use xlink:href="#DejaVuSans-36" x="127.246094"/>
       <use xlink:href="#DejaVuSans-30" x="190.869141"/>
      </g>
     </g>
    </g>
    <g id="ytick_8">
     <g id="line2d_18">
      <g>
       <use xlink:href="#m7ad8a124ba" x="90" y="91.292866" style="stroke: #000000; stroke-width: 0.8"/>
      </g>
     </g>
     <g id="text_19">
      <!-- $180 -->
      <g transform="translate(57.55 95.092085) scale(0.1 -0.1)">
       <use xlink:href="#DejaVuSans-24"/>
       <use xlink:href="#DejaVuSans-31" x="63.623047"/>
       <use xlink:href="#DejaVuSans-38" x="127.246094"/>
       <use xlink:href="#DejaVuSans-30" x="190.869141"/>
      </g>
     </g>
    </g>
   </g>
   <g id="line2d_19">
    <path d="M 622.636364 239.836118 
L 622.23184 228.852286 
L 621.827316 223.814588 
L 621.422793 223.255642 
L 621.018269 214.402689 
L 620.613745 223.063187 
L 620.209221 222.870731 
L 619.400174 211.515857 
L 618.99565 193.067622 
L 618.591127 186.854059 
L 618.186603 189.548436 
L 617.782079 195.954455 
L 617.377555 194.607266 
L 616.973032 199.308679 
L 616.568508 193.892432 
L 616.163984 183.664796 
L 615.759461 180.420547 
L 615.354937 179.045864 
L 614.950413 179.815686 
L 614.54589 198.676326 
L 614.141366 190.290764 
L 613.332318 171.457619 
L 612.927795 173.904553 
L 612.523271 179.870674 
L 612.118747 170.852759 
L 611.714224 172.419896 
L 611.3097 177.72617 
L 610.905176 174.289464 
L 610.500652 179.128345 
L 610.096129 175.224248 
L 609.691605 183.004949 
L 609.287081 215.997321 
L 608.882558 203.267764 
L 608.07351 206.347052 
L 607.668987 205.605955 
L 606.859939 173.299634 
L 606.050892 159.32859 
L 605.646368 189.356726 
L 605.241844 176.867876 
L 604.837321 168.660918 
L 603.623749 193.226897 
L 603.219226 191.93684 
L 602.814702 192.238769 
L 602.410178 195.916804 
L 602.005655 206.978356 
L 601.601131 194.324818 
L 601.196607 207.088149 
L 600.792084 205.331475 
L 600.38756 201.37896 
L 599.983036 202.284745 
L 599.578512 187.627501 
L 599.173989 184.965043 
L 598.769465 185.788484 
L 597.960418 207.472421 
L 597.555894 195.724667 
L 597.15137 175.522923 
L 596.746846 170.252903 
L 596.342323 172.970257 
L 595.937799 173.90349 
L 595.533275 167.562997 
L 595.128752 164.873091 
L 594.724228 156.14462 
L 594.319704 162.787041 
L 593.915181 173.162393 
L 593.510657 168.578574 
L 593.106133 160.508855 
L 592.701609 164.543715 
L 592.297086 138.221062 
L 591.892562 154.854563 
L 591.488038 162.841937 
L 591.083515 158.724734 
L 590.678991 162.649801 
L 590.274467 159.136454 
L 589.869943 153.23513 
L 589.46542 155.266283 
L 589.060896 150.627567 
L 588.251849 137.699549 
L 587.847325 120.105367 
L 587.442801 126.967373 
L 587.038278 127.790813 
L 586.633754 126.85758 
L 586.22923 116.015612 
L 585.824706 108.796782 
L 585.420183 107.698861 
L 585.015659 111.870961 
L 584.611135 111.431792 
L 584.206612 114.423627 
L 583.802088 124.332362 
L 583.397564 122.273761 
L 582.99304 134.131306 
L 582.588517 134.268546 
L 582.183993 132.951041 
L 581.779469 132.320614 
L 581.374946 131.443497 
L 580.970422 148.218353 
L 580.565898 144.106869 
L 580.161375 141.365879 
L 579.756851 155.509385 
L 579.352327 157.044339 
L 578.947803 171.270075 
L 577.734232 160.991364 
L 576.925185 172.914668 
L 576.520661 183.686757 
L 576.116137 175.18969 
L 575.711614 179.849372 
L 575.30709 188.017521 
L 574.902566 187.003354 
L 574.498043 189.716934 
L 574.093519 183.768987 
L 573.688995 185.66027 
L 573.284472 195.061864 
L 572.879948 198.789609 
L 572.0709 212.055998 
L 571.666377 205.176115 
L 571.261853 210.082486 
L 570.857329 198.51551 
L 570.452806 198.51551 
L 569.643758 215.811154 
L 569.239234 214.38584 
L 568.834711 226.199504 
L 568.430187 230.310989 
L 568.025663 215.591875 
L 567.62114 222.910317 
L 567.216616 225.322388 
L 566.003045 181.247276 
L 565.598521 179.191534 
L 565.193997 186.235877 
L 564.789474 188.319029 
L 564.38495 172.339061 
L 563.980426 179.191534 
L 563.575903 178.835206 
L 563.171379 176.642414 
L 562.766855 192.704613 
L 562.362331 201.640238 
L 561.957808 202.078797 
L 561.553284 194.541076 
L 561.14876 209.671338 
L 560.744237 210.329175 
L 560.339713 200.817941 
L 559.935189 177.73881 
L 559.530666 187.880471 
L 559.126142 183.577118 
L 558.721618 196.04862 
L 558.317094 185.249121 
L 557.912571 163.293795 
L 557.508047 170.009219 
L 557.103523 155.701254 
L 556.699 157.726625 
L 556.294476 132.409494 
L 555.889952 150.30939 
L 555.485428 154.46961 
L 555.080905 155.318076 
L 554.676381 138.923524 
L 554.271857 158.274022 
L 553.867334 157.644515 
L 553.46281 141.003634 
L 553.058286 143.98695 
L 552.653763 131.3147 
L 552.249239 129.09774 
L 551.844715 128.632452 
L 551.440191 135.009632 
L 551.035668 134.407495 
L 550.631144 120.421491 
L 550.22662 127.920836 
L 549.822097 133.148481 
L 549.417573 121.269957 
L 549.013049 115.659134 
L 548.608525 116.5076 
L 547.799478 98.416115 
L 547.394954 109.719872 
L 546.990431 108.898776 
L 546.585907 100.249897 
L 546.181383 96.992882 
L 545.77686 106.189159 
L 544.967812 110.376749 
L 544.563288 120.941519 
L 544.158765 124.745931 
L 543.754241 134.161166 
L 543.349717 137.992948 
L 542.945194 147.189225 
L 542.54067 150.008321 
L 541.731622 174.559095 
L 540.518051 140.812045 
L 540.113528 155.892843 
L 539.709004 150.802047 
L 538.899957 131.834727 
L 538.495433 130.931521 
L 538.090909 140.127798 
L 537.686385 134.872783 
L 537.281862 135.611769 
L 536.472814 148.694567 
L 536.068291 137.062372 
L 535.663767 128.906151 
L 535.259243 124.581712 
L 534.854719 114.536969 
L 534.450196 113.880092 
L 534.045672 124.581712 
L 533.641148 125.238588 
L 532.832101 104.328007 
L 532.427577 108.296639 
L 532.023054 116.972888 
L 531.61853 114.974887 
L 531.214006 114.182172 
L 530.809482 106.145686 
L 530.404959 109.50789 
L 530.000435 109.043195 
L 529.595911 121.207264 
L 529.191388 151.576434 
L 528.786864 150.291689 
L 528.38234 150.045674 
L 527.977816 145.016037 
L 527.573293 142.856573 
L 526.764245 132.414608 
L 525.955198 113.717478 
L 525.550674 116.122956 
L 525.146151 106.993071 
L 524.741627 108.223145 
L 524.337103 116.122956 
L 523.932579 116.177626 
L 523.528056 116.642321 
L 523.123532 108.660505 
L 522.719008 95.594382 
L 522.314485 89.28 
L 521.909961 101.416734 
L 521.505437 99.69463 
L 521.100913 96.469101 
L 520.69639 96.715116 
L 520.291866 93.872278 
L 519.887342 104.942947 
L 519.482819 106.692386 
L 518.673771 122.792693 
L 517.864724 115.931612 
L 517.4602 96.687781 
L 517.055676 110.273269 
L 516.651153 106.419036 
L 516.246629 96.277756 
L 515.842105 109.644565 
L 515.437582 108.223145 
L 515.033058 118.88379 
L 514.628534 134.902092 
L 514.22401 144.414667 
L 513.819487 139.16635 
L 513.414963 136.405516 
L 513.010439 134.956762 
L 512.605916 148.788265 
L 512.201392 158.164165 
L 511.796868 144.141317 
L 510.987821 146.656136 
L 510.583297 147.94088 
L 510.178773 155.266657 
L 509.77425 167.239381 
L 509.369726 174.045792 
L 508.965202 176.779291 
L 508.560679 176.806626 
L 508.156155 182.601643 
L 507.751631 182.464968 
L 507.347107 174.565157 
L 506.942584 175.576551 
L 506.53806 173.280413 
L 506.133536 174.754358 
L 505.729013 173.307708 
L 505.324489 177.320116 
L 504.919965 180.213417 
L 504.515441 177.920612 
L 504.110918 170.359816 
L 503.706394 180.513665 
L 503.30187 179.230786 
L 502.897347 181.086866 
L 502.492823 180.95039 
L 502.088299 178.794062 
L 501.683776 179.394558 
L 501.279252 180.759323 
L 500.470204 191.459077 
L 500.065681 194.406968 
L 499.661157 202.186127 
L 499.256633 200.548409 
L 498.85211 197.000021 
L 498.447586 196.754364 
L 498.043062 195.689847 
L 497.638538 199.21094 
L 497.234015 201.640221 
L 496.829491 207.017393 
L 496.424967 197.436746 
L 496.020444 200.575704 
L 495.61592 196.945431 
L 495.211396 199.456597 
L 494.806873 190.012426 
L 494.402349 185.781656 
L 493.997825 186.027314 
L 493.593301 188.702252 
L 493.188778 195.307713 
L 492.784254 196.645182 
L 491.975207 180.677437 
L 491.570683 180.02235 
L 491.166159 182.506221 
L 490.761635 178.602994 
L 490.357112 180.186121 
L 489.952588 166.265523 
L 489.548064 163.426812 
L 489.143541 159.114156 
L 488.739017 165.637731 
L 488.334493 167.411925 
L 487.92997 170.523588 
L 487.525446 172.379668 
L 487.120922 168.858575 
L 486.716398 181.196047 
L 486.311875 184.089348 
L 485.907351 181.851134 
L 485.502827 178.411927 
L 485.098304 178.16627 
L 484.289256 186.382153 
L 483.884732 187.310193 
L 483.480209 176.856096 
L 483.075685 174.317634 
L 482.671161 179.831283 
L 482.266638 180.404484 
L 481.862114 188.674957 
L 481.45759 189.384635 
L 481.053067 188.047165 
L 480.648543 187.910689 
L 480.244019 186.002891 
L 479.839495 186.302687 
L 479.434972 185.185263 
L 479.030448 190.200047 
L 478.625924 189.273402 
L 478.221401 189.872996 
L 477.816877 191.671777 
L 477.007829 180.742818 
L 476.603306 181.914751 
L 475.794258 190.527098 
L 475.389735 188.483028 
L 474.985211 198.567106 
L 474.580687 187.828926 
L 474.176164 182.132785 
L 473.77164 180.30675 
L 473.367116 189.872996 
L 472.962592 192.979982 
L 472.558069 191.317472 
L 472.153545 196.414019 
L 471.749021 192.789202 
L 470.53545 212.684814 
L 470.130926 213.529696 
L 469.726403 215.246715 
L 468.917355 224.022588 
L 467.703784 221.651467 
L 466.894737 231.244967 
L 466.490213 227.62015 
L 466.085689 232.089849 
L 465.681166 233.479817 
L 465.276642 231.190459 
L 464.872118 239.721043 
L 464.467595 243.100572 
L 464.063071 240.320637 
L 463.658547 241.383553 
L 463.254023 243.672911 
L 462.8495 243.700166 
L 462.444976 250.104917 
L 462.040452 245.962269 
L 461.635929 248.088102 
L 461.231405 247.188711 
L 460.826881 245.362676 
L 460.422358 241.083756 
L 460.017834 240.947485 
L 459.61331 240.4024 
L 459.208786 244.953862 
L 458.804263 239.83006 
L 458.399739 246.970677 
L 457.995215 246.534609 
L 457.186168 239.4485 
L 456.37712 252.203496 
L 455.972597 243.645657 
L 455.568073 241.083756 
L 455.163549 231.926324 
L 454.759026 233.803696 
L 454.354502 238.265856 
L 453.949978 238.946063 
L 453.545455 226.185374 
L 453.140931 229.12387 
L 452.736407 223.627795 
L 452.331883 223.355712 
L 451.92736 221.15184 
L 451.522836 220.253966 
L 451.118312 221.342298 
L 450.713789 227.817872 
L 450.309265 223.573378 
L 449.904741 224.634501 
L 449.500217 219.927467 
L 449.095694 221.777631 
L 448.69117 220.852549 
L 448.286646 227.572997 
L 447.882123 221.043007 
L 447.477599 229.722452 
L 447.073075 224.947397 
L 446.264028 238.810022 
L 445.859504 243.408223 
L 445.45498 244.25168 
L 445.050457 252.142085 
L 444.645933 254.45479 
L 444.241409 260.576656 
L 443.836886 256.52262 
L 443.432362 257.01237 
L 442.623314 260.059698 
L 442.218791 253.393667 
L 441.814267 251.080962 
L 441.409743 260.331781 
L 441.00522 258.862533 
L 440.600696 247.353426 
L 440.196172 245.149554 
L 439.791649 249.448464 
L 439.387125 257.502119 
L 438.982601 254.971748 
L 438.578077 260.35899 
L 438.173554 257.352473 
L 437.76903 270.208391 
L 437.364506 256.440995 
L 436.959983 259.950865 
L 436.555459 254.699665 
L 435.746411 239.109313 
L 435.341888 256.876328 
L 434.937364 257.610952 
L 434.53284 245.748136 
L 434.128317 244.360514 
L 433.723793 243.979597 
L 433.319269 233.449988 
L 432.914746 233.885321 
L 432.510222 230.810784 
L 431.701174 218.485427 
L 431.296651 219.138426 
L 430.892127 218.431011 
L 430.487603 216.744097 
L 430.08308 214.29535 
L 429.678556 214.703475 
L 429.274032 213.548853 
L 428.869508 222.921664 
L 428.464985 220.06907 
L 428.060461 222.378313 
L 427.655937 228.300843 
L 426.84689 200.861598 
L 426.442366 197.873166 
L 426.037843 198.525187 
L 425.633319 208.984701 
L 425.228795 214.961567 
L 424.419748 239.521049 
L 424.015224 241.395611 
L 423.206177 231.207773 
L 422.801653 236.885795 
L 422.397129 236.396779 
L 421.992605 228.056335 
L 421.588082 231.12627 
L 421.183558 242.86266 
L 420.779034 230.881762 
L 420.374511 235.228573 
L 419.969987 226.31761 
L 419.16094 220.39508 
L 418.756416 215.450583 
L 418.351892 228.273675 
L 417.947368 231.0176 
L 417.542845 228.518184 
L 417.138321 238.434346 
L 416.733797 242.713238 
L 416.329274 237.15747 
L 415.92475 239.575384 
L 415.520226 239.385211 
L 415.115702 255.957428 
L 414.711179 254.245871 
L 414.306655 251.990963 
L 413.902131 255.957428 
L 413.497608 248.89386 
L 413.093084 250.605417 
L 412.68856 254.680552 
L 412.284037 252.80599 
L 411.879513 252.425644 
L 411.474989 253.403677 
L 411.070465 263.374175 
L 410.665942 270.057397 
L 410.261418 271.57878 
L 409.856894 273.915191 
L 409.452371 277.50131 
L 409.047847 268.019829 
L 408.643323 264.488045 
L 408.238799 266.145267 
L 407.834276 262.450477 
L 407.429752 259.978228 
L 407.025228 262.803656 
L 406.620705 262.939493 
L 406.216181 262.178802 
L 405.811657 271.741786 
L 405.407134 270.790921 
L 405.00261 264.352207 
L 404.598086 263.986077 
L 403.789039 287.282781 
L 403.384515 291.811943 
L 402.979991 291.567856 
L 402.575468 274.047867 
L 402.170944 285.221606 
L 401.76642 270.576414 
L 401.361896 274.780126 
L 400.957373 274.807247 
L 400.552849 272.881676 
L 400.148325 269.844154 
L 399.743802 268.108428 
L 399.339278 272.257899 
L 398.934754 264.013198 
L 398.530231 259.429795 
L 398.125707 258.128 
L 397.721183 258.372087 
L 397.316659 249.422247 
L 396.912136 269.572947 
L 396.507612 274.997092 
L 396.103088 274.698764 
L 395.698565 279.905944 
L 395.294041 270.847621 
L 394.889517 280.285634 
L 394.484993 270.06112 
L 394.08047 272.718951 
L 393.675946 277.383716 
L 393.271422 275.024213 
L 392.866899 282.292568 
L 392.462375 293.303582 
L 392.057851 296.286862 
L 391.653328 283.567242 
L 391.248804 288.259127 
L 390.84428 297.046243 
L 390.439756 287.553988 
L 390.035233 282.699378 
L 389.630709 273.451211 
L 389.226185 273.952944 
L 388.821662 283.051948 
L 388.417138 279.01096 
L 388.012614 268.623721 
L 387.60809 280.828048 
L 387.203567 258.751777 
L 386.799043 258.968743 
L 386.394519 230.437739 
L 385.989996 222.898177 
L 385.180948 248.317078 
L 384.776425 247.767883 
L 384.371901 243.665873 
L 383.967377 248.269616 
L 383.562853 245.469401 
L 383.15833 249.503609 
L 382.753806 266.033692 
L 382.349282 272.996939 
L 381.944759 273.390189 
L 381.540235 275.980218 
L 381.135711 275.166597 
L 380.731187 274.888609 
L 380.326664 280.312755 
L 379.92214 290.171139 
L 379.517616 281.078915 
L 379.113093 285.458912 
L 378.708569 278.461115 
L 378.304045 288.856295 
L 377.899522 289.932359 
L 377.494998 291.901758 
L 377.090474 299.14996 
L 376.68595 326.410237 
L 376.281427 329.523377 
L 375.876903 334.362279 
L 375.472379 330.146005 
L 375.067856 336.088041 
L 374.663332 335.465413 
L 374.258808 323.479825 
L 373.854284 324.217504 
L 373.449761 320.542645 
L 373.045237 326.038014 
L 372.640713 325.510134 
L 372.23619 322.254872 
L 371.831666 324.061847 
L 371.427142 328.33903 
L 371.022619 327.141148 
L 370.618095 327.594584 
L 370.213571 328.704486 
L 369.809047 334.578845 
L 369.404524 333.793793 
L 369 340.385528 
L 368.595476 340.385528 
L 368.190953 339.918557 
L 367.786429 341.962401 
L 367.381905 347.478073 
L 366.977381 339.891486 
L 366.572858 343.126445 
L 366.168334 338.747746 
L 365.359287 350.124242 
L 364.954763 348.763935 
L 364.550239 348.858682 
L 364.145716 348.527065 
L 363.741192 354.678901 
L 363.336668 357.514565 
L 362.932144 359.477197 
L 362.527621 348.012721 
L 361.718573 361.128514 
L 361.31405 362.454982 
L 360.909526 368.667727 
L 360.505002 366.772772 
L 359.695955 368.985808 
L 359.291431 371.631977 
L 358.886907 371.422179 
L 358.482384 371.516927 
L 358.07786 372.450869 
L 357.673336 370.989046 
L 357.268813 372.369656 
L 356.864289 370.758945 
L 356.459765 374.880471 
L 356.055241 373.648751 
L 355.650718 378.55533 
L 355.246194 377.316841 
L 354.84167 378.595936 
L 354.032623 373.614912 
L 353.628099 376.917547 
L 353.223575 381.784188 
L 352.414528 385.955594 
L 351.605481 391.686216 
L 351.200957 388.493537 
L 350.796433 392.590695 
L 350.39191 398.766807 
L 349.987386 395.668626 
L 349.582862 395.803623 
L 349.178338 401.163003 
L 348.773815 400.440769 
L 348.369291 405.658402 
L 347.964767 399.880532 
L 347.560244 395.918371 
L 347.15572 393.29268 
L 346.751196 394.818145 
L 346.346672 393.049685 
L 345.942149 402.364476 
L 345.537625 405.914896 
L 345.133101 407.210867 
L 344.728578 411.692766 
L 344.324054 409.640813 
L 343.91953 423.855993 
L 343.515007 421.480047 
L 343.110483 424.193486 
L 342.705959 415.162189 
L 342.301435 414.811196 
L 341.896912 419.583339 
L 341.492388 412.361001 
L 341.087864 421.081806 
L 340.683341 420.163826 
L 340.278817 435.357735 
L 339.874293 432.070559 
L 339.469769 421.581294 
L 339.065246 420.305573 
L 338.660722 416.127417 
L 338.256198 423.316005 
L 337.851675 399.178547 
L 337.447151 419.252597 
L 337.042627 400.893009 
L 336.638104 394.203909 
L 336.23358 407.143369 
L 335.829056 391.713215 
L 335.424532 389.087524 
L 335.020009 382.459173 
L 334.615485 391.51747 
L 334.210961 385.111863 
L 333.806438 402.290228 
L 333.401914 402.18223 
L 332.99739 389.26977 
L 332.592866 392.354451 
L 332.188343 385.537104 
L 331.783819 375.500079 
L 331.379295 370.606439 
L 330.974772 368.36549 
L 330.570248 371.483919 
L 330.165724 367.46776 
L 329.761201 367.521758 
L 329.356677 365.949044 
L 328.952153 371.072179 
L 328.547629 369.762708 
L 328.143106 370.788685 
L 327.738582 367.819147 
L 327.334058 370.350998 
L 326.929535 372.101746 
L 326.525011 378.963333 
L 326.120487 378.390973 
L 325.715963 368.721455 
L 325.31144 368.404974 
L 324.906916 372.882849 
L 324.502392 378.768057 
L 324.097869 372.465363 
L 323.693345 371.845868 
L 322.884298 373.637018 
L 322.479774 372.18255 
L 321.670726 377.158715 
L 321.266203 376.256407 
L 320.861679 373.374406 
L 320.457155 377.838814 
L 320.052632 378.310169 
L 319.243584 385.878788 
L 318.83906 384.929344 
L 318.434537 386.525218 
L 318.030013 384.558993 
L 317.625489 389.070537 
L 316.816442 391.662991 
L 316.411918 391.588921 
L 316.007395 395.386698 
L 315.602871 395.568506 
L 315.198347 398.639049 
L 314.793823 398.248498 
L 314.3893 398.43704 
L 313.984776 397.985886 
L 313.580252 398.356236 
L 312.771205 404.0125 
L 312.366681 404.477121 
L 311.962157 406.019127 
L 311.557634 407.069576 
L 311.15311 404.517523 
L 310.344063 410.557605 
L 309.939539 412.09961 
L 309.535015 408.928062 
L 309.130492 406.847365 
L 308.725968 406.45008 
L 308.321444 408.840525 
L 307.91692 407.439926 
L 307.512397 410.53067 
L 307.107873 410.375796 
L 306.703349 409.581226 
L 306.298826 407.493795 
L 305.894302 406.94837 
L 305.489778 407.850679 
L 305.085254 409.951577 
L 304.680731 408.719319 
L 304.276207 410.409465 
L 303.871683 410.247857 
L 303.46716 411.634988 
L 303.062636 412.113077 
L 302.658112 414.100339 
L 302.253589 414.174189 
L 301.849065 413.925782 
L 301.444541 415.053687 
L 300.635494 423.48612 
L 300.23097 423.465979 
L 299.826446 419.598876 
L 299.017399 423.271281 
L 298.612875 423.539829 
L 298.208351 425.701647 
L 297.803828 425.332393 
L 297.399304 428.085018 
L 296.590257 429.454617 
L 296.185733 428.816814 
L 295.376686 428.219293 
L 294.972162 432.32809 
L 294.163114 436.148197 
L 293.758591 434.362347 
L 293.354067 434.395915 
L 292.949543 438.551708 
L 292.54502 439.80046 
L 292.140496 436.020636 
L 291.735972 436.436886 
L 291.331448 439.894453 
L 290.522401 438.41072 
L 290.117877 440.659817 
L 289.713354 439.96159 
L 289.30883 440.626248 
L 288.904306 438.457716 
L 288.499783 437.242533 
L 288.095259 438.632273 
L 287.690735 439.169371 
L 287.286211 439.941449 
L 286.881688 437.027694 
L 286.477164 436.692008 
L 286.07264 441.317761 
L 285.668117 443.016333 
L 285.263593 443.627281 
L 284.859069 443.613854 
L 284.050022 448.702854 
L 283.645498 446.661883 
L 283.240974 446.480612 
L 282.836451 448.816987 
L 282.431927 449.736767 
L 282.027403 448.17247 
L 281.62288 450.757252 
L 281.218356 444.164379 
L 280.813832 444.043532 
L 280.409308 445.57426 
L 280.004785 445.580974 
L 279.195737 451.361487 
L 278.791214 450.683401 
L 278.38669 446.507467 
L 277.982166 452.207416 
L 277.577642 451.865016 
L 277.173119 450.748104 
L 276.768595 453.684179 
L 276.364071 455.048551 
L 275.959548 457.496395 
L 275.555024 450.353506 
L 274.745977 444.320841 
L 274.341453 447.169971 
L 273.936929 446.568042 
L 273.532405 447.865533 
L 273.127882 448.347077 
L 272.723358 447.24354 
L 272.318834 447.129843 
L 271.914311 448.213315 
L 271.509787 451.309904 
L 271.105263 449.256658 
L 270.700739 450.801609 
L 270.296216 450.032477 
L 269.891692 449.557622 
L 269.082645 451.871704 
L 268.678121 450.881866 
L 268.273597 452.212797 
L 267.869074 453.028745 
L 267.46455 450.213056 
L 267.060026 450.09267 
L 266.655502 451.216271 
L 266.250979 452.005466 
L 265.846455 454.433246 
L 265.441931 453.216012 
L 265.037408 453.175883 
L 264.632884 456.004949 
L 264.22836 453.991831 
L 263.823836 453.858069 
L 263.419313 453.403279 
L 263.014789 454.466686 
L 262.610265 454.078777 
L 262.205742 457.128549 
L 261.801218 457.897681 
L 261.396694 456.954659 
L 260.992171 456.927906 
L 260.587647 456.513244 
L 259.778599 459.629898 
L 259.374076 462.92713 
L 258.565028 466.659089 
L 258.160505 470.899343 
L 257.755981 469.71555 
L 257.351457 467.555294 
L 256.946933 468.170599 
L 255.733362 466.645713 
L 254.924315 462.004173 
L 254.519791 464.351695 
L 254.115268 460.399029 
L 253.30622 459.114914 
L 252.901696 460.626425 
L 252.497173 462.592725 
L 252.092649 454.928165 
L 251.283602 451.630434 
L 250.879078 451.657083 
L 250.474554 447.912992 
L 250.07003 445.734492 
L 249.665507 447.466633 
L 249.260983 446.553928 
L 248.856459 453.116079 
L 248.451936 450.491218 
L 248.047412 450.697743 
L 247.642888 450.044859 
L 247.238365 448.792387 
L 246.833841 448.579201 
L 246.429317 450.544515 
L 245.62027 451.477206 
L 245.215746 454.062094 
L 244.811222 454.075419 
L 244.406699 454.315253 
L 244.002175 454.261957 
L 243.597651 453.149389 
L 243.193127 453.895542 
L 242.788604 453.495817 
L 242.38408 455.561063 
L 241.979556 456.433796 
L 241.575033 456.660306 
L 241.170509 457.546363 
L 240.765985 459.398422 
L 239.956938 461.077267 
L 239.552414 461.243819 
L 239.14789 462.363049 
L 238.338843 459.525002 
L 237.934319 456.833521 
L 237.529796 461.450344 
L 237.125272 462.536263 
L 236.720748 461.543613 
L 235.911701 464.401646 
L 235.507177 465.747387 
L 235.102653 466.280353 
L 234.69813 467.619432 
L 234.293606 471.610019 
L 233.889082 471.883164 
L 233.484559 470.537424 
L 233.080035 469.864554 
L 232.675511 469.651367 
L 232.270987 470.23763 
L 231.866464 471.450129 
L 231.46194 470.304251 
L 231.057416 470.664003 
L 230.652893 470.730624 
L 230.248369 471.570047 
L 229.843845 472.842504 
L 229.439321 472.196282 
L 229.034798 472.929111 
L 228.630274 473.268878 
L 228.22575 473.015718 
L 227.821227 473.428768 
L 227.416703 472.95576 
L 227.012179 473.928424 
L 226.607656 473.27554 
L 226.203132 473.408213 
L 225.798608 471.219103 
L 225.394084 471.258905 
L 224.989561 473.202569 
L 224.585037 476.340293 
L 224.180513 476.393362 
L 223.77599 477.182768 
L 223.371466 484.194552 
L 222.562418 482.151383 
L 222.157895 485.508018 
L 221.753371 484.698711 
L 221.348847 485.109998 
L 220.944324 482.774948 
L 220.135276 484.022077 
L 219.730753 485.262572 
L 219.326229 487.299108 
L 218.921705 485.779998 
L 218.517181 484.778315 
L 218.112658 485.103364 
L 217.30361 488.672276 
L 216.899087 488.453365 
L 216.494563 492.48 
L 216.090039 482.045245 
L 215.685515 482.164651 
L 215.280992 483.166334 
L 214.876468 483.219404 
L 214.471944 482.54277 
L 214.067421 489.401979 
L 213.662897 486.81485 
L 213.258373 482.768314 
L 212.449326 476.638808 
L 212.044802 478.051778 
L 211.640278 477.030194 
L 211.235755 473.401579 
L 210.831231 474.628807 
L 210.426707 474.94059 
L 210.022184 474.297124 
L 209.61766 475.033461 
L 209.213136 470.900688 
L 208.808612 469.593856 
L 208.404089 464.200686 
L 207.999565 468.340093 
L 207.595041 467.696627 
L 207.190518 466.774548 
L 206.785994 471.219103 
L 206.38147 470.967024 
L 205.976946 472.512668 
L 205.572423 469.534153 
L 205.167899 469.401479 
L 204.358852 458.422764 
L 203.954328 459.829101 
L 203.549804 462.88722 
L 203.145281 459.28514 
L 202.740757 457.998209 
L 202.336233 451.165534 
L 201.931709 448.498801 
L 201.527186 448.016233 
L 201.122662 452.101534 
L 200.718138 453.542627 
L 200.313615 449.649031 
L 199.909091 439.905126 
L 199.504567 442.12626 
L 199.100043 445.801709 
L 198.69552 446.502424 
L 197.886472 441.504871 
L 197.481949 444.618426 
L 197.077425 439.567989 
L 196.672901 440.942977 
L 196.268378 441.828787 
L 195.863854 444.003648 
L 195.45933 440.586009 
L 195.054806 439.951399 
L 194.650283 443.117838 
L 194.245759 439.977841 
L 193.841235 445.041499 
L 193.436712 443.77889 
L 193.032188 436.831234 
L 192.627664 438.880495 
L 192.22314 438.536748 
L 191.414093 433.393764 
L 190.605046 436.573424 
L 190.200522 437.578223 
L 189.795998 438.100454 
L 189.391475 441.095019 
L 188.986951 439.924957 
L 188.582427 440.85043 
L 188.177903 442.919522 
L 187.77338 441.352829 
L 187.368856 442.450176 
L 186.964332 442.536112 
L 186.559809 442.774091 
L 186.155285 438.834221 
L 185.750761 437.135318 
L 185.346237 440.665335 
L 184.941714 438.827611 
L 184.53719 442.476618 
L 184.132666 440.513293 
L 183.728143 439.3234 
L 183.323619 436.831234 
L 182.919095 435.846267 
L 182.514572 436.328835 
L 180.896477 442.734428 
L 180.491953 443.9111 
L 179.682906 444.644868 
L 179.278382 444.651478 
L 178.873858 444.373837 
L 178.469334 442.972407 
L 177.660287 447.824528 
L 177.255763 448.148443 
L 176.85124 448.730169 
L 176.446716 449.615978 
L 176.042192 449.207563 
L 175.637669 450.2813 
L 175.233145 450.373523 
L 174.828621 449.082403 
L 174.424097 449.793837 
L 174.019574 450.189078 
L 173.61505 454.069025 
L 173.210526 461.453442 
L 172.806003 461.703762 
L 172.401479 460.998915 
L 171.996955 458.871202 
L 171.592431 458.469374 
L 170.783384 460.583912 
L 170.37886 460.695897 
L 169.974337 460.406054 
L 169.569813 461.380982 
L 169.165289 460.68931 
L 168.760766 461.045027 
L 168.356242 460.768358 
L 167.951718 460.965979 
L 167.547194 463.040993 
L 167.142671 461.413918 
L 166.738147 461.262409 
L 165.9291 464.674655 
L 165.524576 465.649583 
L 165.120052 463.502107 
L 164.715528 464.865688 
L 164.311005 464.608782 
L 163.906481 465.491487 
L 163.501957 465.313628 
L 163.097434 466.802369 
L 162.69291 464.990848 
L 162.288386 464.635131 
L 161.883863 463.950047 
L 161.479339 464.483622 
L 161.074815 462.474481 
L 160.670291 462.408608 
L 160.265768 461.117488 
L 159.861244 461.183361 
L 159.45672 460.14256 
L 159.052197 460.834232 
L 158.647673 460.524626 
L 158.243149 459.365253 
L 157.838625 459.022711 
L 157.434102 459.464063 
L 156.625054 461.486379 
L 156.220531 463.706315 
L 155.00696 462.579879 
L 154.602436 462.863135 
L 154.197912 462.7248 
L 153.793388 463.515282 
L 153.388865 463.205677 
L 152.984341 464.075207 
L 152.579817 463.627267 
L 152.175294 462.843373 
L 151.77077 463.989571 
L 151.366246 462.863135 
L 150.961722 462.573291 
L 150.557199 462.100831 
L 150.152675 463.859433 
L 149.748151 464.719048 
L 149.343628 465.303062 
L 148.939104 466.175801 
L 148.53458 470.729792 
L 148.130057 470.939775 
L 147.725533 475.84155 
L 146.916485 480.29055 
L 146.511962 479.04378 
L 145.702914 479.883709 
L 145.298391 478.374461 
L 144.893867 478.059488 
L 144.489343 473.413629 
L 144.084819 470.106407 
L 143.680296 469.843929 
L 143.275772 471.431921 
L 142.871248 472.147173 
L 142.466725 472.534328 
L 142.062201 473.649859 
L 141.657677 473.118341 
L 141.253154 475.218165 
L 140.84863 476.31401 
L 140.444106 473.413629 
L 140.039582 474.194501 
L 139.635059 476.307448 
L 139.230535 477.429541 
L 138.826011 476.707727 
L 138.421488 477.56078 
L 138.016964 476.340258 
L 137.61244 473.433315 
L 137.207916 478.57132 
L 136.803393 476.005598 
L 136.398869 474.417607 
L 135.994345 471.812514 
L 135.589822 471.773142 
L 135.185298 469.988292 
L 134.780774 469.57489 
L 134.376251 469.71269 
L 133.567203 467.560372 
L 133.162679 468.702151 
L 132.758156 470.696983 
L 132.353632 471.950315 
L 131.949108 470.874155 
L 131.544585 470.775726 
L 131.140061 471.176005 
L 130.735537 471.97 
L 130.331013 469.922673 
L 129.92649 469.7455 
L 129.521966 469.364907 
L 128.712919 473.610487 
L 128.308395 474.548846 
L 127.499348 473.656421 
L 127.094824 473.288952 
L 126.6903 476.976766 
L 126.285776 478.965037 
L 125.881253 480.034634 
L 125.476729 484.168661 
L 125.072205 485.403894 
L 124.263158 480.253823 
L 123.858634 484.52812 
L 123.45411 481.907336 
L 123.049587 477.149402 
L 122.240539 477.678787 
L 121.836016 477.031761 
L 121.431492 474.711615 
L 121.026968 474.97304 
L 120.217921 471.097415 
L 119.813397 471.123558 
L 119.408873 470.169357 
L 119.00435 469.646507 
L 118.599826 469.751077 
L 118.195302 471.652943 
L 117.790779 471.064737 
L 117.386255 472.247685 
L 116.981731 472.894711 
L 116.172684 472.855498 
L 115.76816 472.430682 
L 115.363636 473.7182 
L 115.363636 473.7182 
" clip-path="url(#p81749d4754)" style="fill: none; stroke: #1f77b4; stroke-width: 2; stroke-linecap: square"/>
   </g>
   <g id="patch_3">
    <path d="M 90 512.64 
L 90 69.12 
" style="fill: none; stroke: #000000; stroke-width: 0.8; stroke-linejoin: miter; stroke-linecap: square"/>
   </g>
   <g id="patch_4">
    <path d="M 648 512.64 
L 648 69.12 
" style="fill: none; stroke: #000000; stroke-width: 0.8; stroke-linejoin: miter; stroke-linecap: square"/>
   </g>
   <g id="patch_5">
    <path d="M 90 512.64 
L 648 512.64 
" style="fill: none; stroke: #000000; stroke-width: 0.8; stroke-linejoin: miter; stroke-linecap: square"/>
   </g>
   <g id="patch_6">
    <path d="M 90 69.12 
L 648 69.12 
" style="fill: none; stroke: #000000; stroke-width: 0.8; stroke-linejoin: miter; stroke-linecap: square"/>
   </g>
   <g id="text_20">
    <!-- Last price $126.04 -->
    <g transform="translate(312.943125 63.12) scale(0.12 -0.12)">
     <defs>
      <path id="DejaVuSans-4c" d="M 628 4666 
L 1259 4666 
L 1259 531 
L 3531 531 
L 3531 0 
L 628 0 
L 628 4666 
z
" transform="scale(0.015625)"/>
      <path id="DejaVuSans-70" d="M 1159 525 
L 1159 -1331 
L 581 -1331 
L 581 3500 
L 1159 3500 
L 1159 2969 
Q 1341 3281 1617 3432 
Q 1894 3584 2278 3584 
Q 2916 3584 3314 3078 
Q 3713 2572 3713 1747 
Q 3713 922 3314 415 
Q 2916 -91 2278 -91 
Q 1894 -91 1617 61 
Q 1341 213 1159 525 
z
M 3116 1747 
Q 3116 2381 2855 2742 
Q 2594 3103 2138 3103 
Q 1681 3103 1420 2742 
Q 1159 2381 1159 1747 
Q 1159 1113 1420 752 
Q 1681 391 2138 391 
Q 2594 391 2855 752 
Q 3116 1113 3116 1747 
z
" transform="scale(0.015625)"/>
      <path id="DejaVuSans-63" d="M 3122 3366 
L 3122 2828 
Q 2878 2963 2633 3030 
Q 2388 3097 2138 3097 
Q 1578 3097 1268 2742 
Q 959 2388 959 1747 
Q 959 1106 1268 751 
Q 1578 397 2138 397 
Q 2388 397 2633 464 
Q 2878 531 3122 666 
L 3122 134 
Q 2881 22 2623 -34 
Q 2366 -91 2075 -91 
Q 1284 -91 818 406 
Q 353 903 353 1747 
Q 353 2603 823 3093 
Q 1294 3584 2113 3584 
Q 2378 3584 2631 3529 
Q 2884 3475 3122 3366 
z
" transform="scale(0.015625)"/>
      <path id="DejaVuSans-2e" d="M 684 794 
L 1344 794 
L 1344 0 
L 684 0 
L 684 794 
z
" transform="scale(0.015625)"/>
     </defs>
     <use xlink:href="#DejaVuSans-4c"/>
     <use xlink:href="#DejaVuSans-61" x="55.712891"/>
     <use xlink:href="#DejaVuSans-73" x="116.992188"/>
     <use xlink:href="#DejaVuSans-74" x="169.091797"/>
     <use xlink:href="#DejaVuSans-20" x="208.300781"/>
     <use xlink:href="#DejaVuSans-70" x="240.087891"/>
     <use xlink:href="#DejaVuSans-72" x="303.564453"/>
     <use xlink:href="#DejaVuSans-69" x="344.677734"/>
     <use xlink:href="#DejaVuSans-63" x="372.460938"/>
     <use xlink:href="#DejaVuSans-65" x="427.441406"/>
     <use xlink:href="#DejaVuSans-20" x="488.964844"/>
     <use xlink:href="#DejaVuSans-24" x="520.751953"/>
     <use xlink:href="#DejaVuSans-31" x="584.375"/>
     <use xlink:href="#DejaVuSans-32" x="647.998047"/>
     <use xlink:href="#DejaVuSans-36" x="711.621094"/>
     <use xlink:href="#DejaVuSans-2e" x="775.244141"/>
     <use xlink:href="#DejaVuSans-30" x="807.03125"/>
     <use xlink:href="#DejaVuSans-34" x="870.654297"/>
    </g>
   </g>
  </g>
 </g>
 <defs>
  <clipPath id="p81749d4754">
   <rect x="90" y="69.12" width="558" height="443.52"/>
  </clipPath>
 </defs>
</svg>
