<?xml version="1.0" encoding="utf-8" standalone="no"?>
<!DOCTYPE svg PUBLIC "-//W3C//DTD SVG 1.1//EN"
  "http://www.w3.org/Graphics/SVG/1.1/DTD/svg11.dtd">
<svg xmlns:xlink="http://www.w3.org/1999/xlink" width="720pt" height="576pt" viewBox="0 0 720 576" xmlns="http://www.w3.org/2000/svg" version="1.1">
 <metadata>
  <rdf:RDF xmlns:dc="http://purl.org/dc/elements/1.1/" xmlns:cc="http://creativecommons.org/ns#" xmlns:rdf="http://www.w3.org/1999/02/22-rdf-syntax-ns#">
   <cc:Work>
    <dc:type rdf:resource="http://purl.org/dc/dcmitype/StillImage"/>
    <dc:date>2023-01-12T13:00:13.535077</dc:date>
    <dc:format>image/svg+xml</dc:format>
    <dc:creator>
     <cc:Agent>
      <dc:title>Matplotlib v3.6.2, https://matplotlib.org/</dc:title>
     </cc:Agent>
    </dc:creator>
   </cc:Work>
  </rdf:RDF>
 </metadata>
 <defs>
  <style type="text/css">*{stroke-linejoin: round; stroke-linecap: butt}</style>
 </defs>
 <g id="figure_1">
  <g id="patch_1">
   <path d="M 0 576 
L 720 576 
L 720 0 
L 0 0 
z
" style="fill: #ffffff"/>
  </g>
  <g id="axes_1">
   <g id="patch_2">
    <path d="M 90 512.64 
L 648 512.64 
L 648 69.12 
L 90 69.12 
z
" style="fill: #ffffff"/>
   </g>
   <g id="matplotlib.axis_1">
    <g id="xtick_1">
     <g id="line2d_1">
      <defs>
       <path id="ma9ebd0ad9a" d="M 0 0 
L 0 3.5 
" style="stroke: #000000; stroke-width: 0.8"/>
      </defs>
      <g>
       <use xlink:href="#ma9ebd0ad9a" x="622.636364" y="512.64" style="stroke: #000000; stroke-width: 0.8"/>
      </g>
     </g>
     <g id="text_1">
      <!-- 2023-01-11 -->
      <g transform="translate(597.998393 552.794199) rotate(-27) scale(0.1 -0.1)">
       <defs>
        <path id="DejaVuSans-32" d="M 1228 531 
L 3431 531 
L 3431 0 
L 469 0 
L 469 531 
Q 828 903 1448 1529 
Q 2069 2156 2228 2338 
Q 2531 2678 2651 2914 
Q 2772 3150 2772 3378 
Q 2772 3750 2511 3984 
Q 2250 4219 1831 4219 
Q 1534 4219 1204 4116 
Q 875 4013 500 3803 
L 500 4441 
Q 881 4594 1212 4672 
Q 1544 4750 1819 4750 
Q 2544 4750 2975 4387 
Q 3406 4025 3406 3419 
Q 3406 3131 3298 2873 
Q 3191 2616 2906 2266 
Q 2828 2175 2409 1742 
Q 1991 1309 1228 531 
z
" transform="scale(0.015625)"/>
        <path id="DejaVuSans-30" d="M 2034 4250 
Q 1547 4250 1301 3770 
Q 1056 3291 1056 2328 
Q 1056 1369 1301 889 
Q 1547 409 2034 409 
Q 2525 409 2770 889 
Q 3016 1369 3016 2328 
Q 3016 3291 2770 3770 
Q 2525 4250 2034 4250 
z
M 2034 4750 
Q 2819 4750 3233 4129 
Q 3647 3509 3647 2328 
Q 3647 1150 3233 529 
Q 2819 -91 2034 -91 
Q 1250 -91 836 529 
Q 422 1150 422 2328 
Q 422 3509 836 4129 
Q 1250 4750 2034 4750 
z
" transform="scale(0.015625)"/>
        <path id="DejaVuSans-33" d="M 2597 2516 
Q 3050 2419 3304 2112 
Q 3559 1806 3559 1356 
Q 3559 666 3084 287 
Q 2609 -91 1734 -91 
Q 1441 -91 1130 -33 
Q 819 25 488 141 
L 488 750 
Q 750 597 1062 519 
Q 1375 441 1716 441 
Q 2309 441 2620 675 
Q 2931 909 2931 1356 
Q 2931 1769 2642 2001 
Q 2353 2234 1838 2234 
L 1294 2234 
L 1294 2753 
L 1863 2753 
Q 2328 2753 2575 2939 
Q 2822 3125 2822 3475 
Q 2822 3834 2567 4026 
Q 2313 4219 1838 4219 
Q 1578 4219 1281 4162 
Q 984 4106 628 3988 
L 628 4550 
Q 988 4650 1302 4700 
Q 1616 4750 1894 4750 
Q 2613 4750 3031 4423 
Q 3450 4097 3450 3541 
Q 3450 3153 3228 2886 
Q 3006 2619 2597 2516 
z
" transform="scale(0.015625)"/>
        <path id="DejaVuSans-2d" d="M 313 2009 
L 1997 2009 
L 1997 1497 
L 313 1497 
L 313 2009 
z
" transform="scale(0.015625)"/>
        <path id="DejaVuSans-31" d="M 794 531 
L 1825 531 
L 1825 4091 
L 703 3866 
L 703 4441 
L 1819 4666 
L 2450 4666 
L 2450 531 
L 3481 531 
L 3481 0 
L 794 0 
L 794 531 
z
" transform="scale(0.015625)"/>
       </defs>
       <use xlink:href="#DejaVuSans-32"/>
       <use xlink:href="#DejaVuSans-30" x="63.623047"/>
       <use xlink:href="#DejaVuSans-32" x="127.246094"/>
       <use xlink:href="#DejaVuSans-33" x="190.869141"/>
       <use xlink:href="#DejaVuSans-2d" x="254.492188"/>
       <use xlink:href="#DejaVuSans-30" x="290.576172"/>
       <use xlink:href="#DejaVuSans-31" x="354.199219"/>
       <use xlink:href="#DejaVuSans-2d" x="417.822266"/>
       <use xlink:href="#DejaVuSans-31" x="453.90625"/>
       <use xlink:href="#DejaVuSans-31" x="517.529297"/>
      </g>
     </g>
    </g>
    <g id="xtick_2">
     <g id="line2d_2">
      <g>
       <use xlink:href="#ma9ebd0ad9a" x="571.666377" y="512.64" style="stroke: #000000; stroke-width: 0.8"/>
      </g>
     </g>
     <g id="text_2">
      <!-- 2022-07-13 -->
      <g transform="translate(547.028406 552.794199) rotate(-27) scale(0.1 -0.1)">
       <defs>
        <path id="DejaVuSans-37" d="M 525 4666 
L 3525 4666 
L 3525 4397 
L 1831 0 
L 1172 0 
L 2766 4134 
L 525 4134 
L 525 4666 
z
" transform="scale(0.015625)"/>
       </defs>
       <use xlink:href="#DejaVuSans-32"/>
       <use xlink:href="#DejaVuSans-30" x="63.623047"/>
       <use xlink:href="#DejaVuSans-32" x="127.246094"/>
       <use xlink:href="#DejaVuSans-32" x="190.869141"/>
       <use xlink:href="#DejaVuSans-2d" x="254.492188"/>
       <use xlink:href="#DejaVuSans-30" x="290.576172"/>
       <use xlink:href="#DejaVuSans-37" x="354.199219"/>
       <use xlink:href="#DejaVuSans-2d" x="417.822266"/>
       <use xlink:href="#DejaVuSans-31" x="453.90625"/>
       <use xlink:href="#DejaVuSans-33" x="517.529297"/>
      </g>
     </g>
    </g>
    <g id="xtick_3">
     <g id="line2d_3">
      <g>
       <use xlink:href="#ma9ebd0ad9a" x="520.69639" y="512.64" style="stroke: #000000; stroke-width: 0.8"/>
      </g>
     </g>
     <g id="text_3">
      <!-- 2022-01-10 -->
      <g transform="translate(496.058419 552.794199) rotate(-27) scale(0.1 -0.1)">
       <use xlink:href="#DejaVuSans-32"/>
       <use xlink:href="#DejaVuSans-30" x="63.623047"/>
       <use xlink:href="#DejaVuSans-32" x="127.246094"/>
       <use xlink:href="#DejaVuSans-32" x="190.869141"/>
       <use xlink:href="#DejaVuSans-2d" x="254.492188"/>
       <use xlink:href="#DejaVuSans-30" x="290.576172"/>
       <use xlink:href="#DejaVuSans-31" x="354.199219"/>
       <use xlink:href="#DejaVuSans-2d" x="417.822266"/>
       <use xlink:href="#DejaVuSans-31" x="453.90625"/>
       <use xlink:href="#DejaVuSans-30" x="517.529297"/>
      </g>
     </g>
    </g>
    <g id="xtick_4">
     <g id="line2d_4">
      <g>
       <use xlink:href="#ma9ebd0ad9a" x="469.726403" y="512.64" style="stroke: #000000; stroke-width: 0.8"/>
      </g>
     </g>
     <g id="text_4">
      <!-- 2021-07-13 -->
      <g transform="translate(445.088432 552.794199) rotate(-27) scale(0.1 -0.1)">
       <use xlink:href="#DejaVuSans-32"/>
       <use xlink:href="#DejaVuSans-30" x="63.623047"/>
       <use xlink:href="#DejaVuSans-32" x="127.246094"/>
       <use xlink:href="#DejaVuSans-31" x="190.869141"/>
       <use xlink:href="#DejaVuSans-2d" x="254.492188"/>
       <use xlink:href="#DejaVuSans-30" x="290.576172"/>
       <use xlink:href="#DejaVuSans-37" x="354.199219"/>
       <use xlink:href="#DejaVuSans-2d" x="417.822266"/>
       <use xlink:href="#DejaVuSans-31" x="453.90625"/>
       <use xlink:href="#DejaVuSans-33" x="517.529297"/>
      </g>
     </g>
    </g>
    <g id="xtick_5">
     <g id="line2d_5">
      <g>
       <use xlink:href="#ma9ebd0ad9a" x="418.756416" y="512.64" style="stroke: #000000; stroke-width: 0.8"/>
      </g>
     </g>
     <g id="text_5">
      <!-- 2021-01-11 -->
      <g transform="translate(394.118445 552.794199) rotate(-27) scale(0.1 -0.1)">
       <use xlink:href="#DejaVuSans-32"/>
       <use xlink:href="#DejaVuSans-30" x="63.623047"/>
       <use xlink:href="#DejaVuSans-32" x="127.246094"/>
       <use xlink:href="#DejaVuSans-31" x="190.869141"/>
       <use xlink:href="#DejaVuSans-2d" x="254.492188"/>
       <use xlink:href="#DejaVuSans-30" x="290.576172"/>
       <use xlink:href="#DejaVuSans-31" x="354.199219"/>
       <use xlink:href="#DejaVuSans-2d" x="417.822266"/>
       <use xlink:href="#DejaVuSans-31" x="453.90625"/>
       <use xlink:href="#DejaVuSans-31" x="517.529297"/>
      </g>
     </g>
    </g>
    <g id="xtick_6">
     <g id="line2d_6">
      <g>
       <use xlink:href="#ma9ebd0ad9a" x="367.786429" y="512.64" style="stroke: #000000; stroke-width: 0.8"/>
      </g>
     </g>
     <g id="text_6">
      <!-- 2020-07-13 -->
      <g transform="translate(343.148458 552.794199) rotate(-27) scale(0.1 -0.1)">
       <use xlink:href="#DejaVuSans-32"/>
       <use xlink:href="#DejaVuSans-30" x="63.623047"/>
       <use xlink:href="#DejaVuSans-32" x="127.246094"/>
       <use xlink:href="#DejaVuSans-30" x="190.869141"/>
       <use xlink:href="#DejaVuSans-2d" x="254.492188"/>
       <use xlink:href="#DejaVuSans-30" x="290.576172"/>
       <use xlink:href="#DejaVuSans-37" x="354.199219"/>
       <use xlink:href="#DejaVuSans-2d" x="417.822266"/>
       <use xlink:href="#DejaVuSans-31" x="453.90625"/>
       <use xlink:href="#DejaVuSans-33" x="517.529297"/>
      </g>
     </g>
    </g>
    <g id="xtick_7">
     <g id="line2d_7">
      <g>
       <use xlink:href="#ma9ebd0ad9a" x="316.816442" y="512.64" style="stroke: #000000; stroke-width: 0.8"/>
      </g>
     </g>
     <g id="text_7">
      <!-- 2020-01-10 -->
      <g transform="translate(292.178471 552.794199) rotate(-27) scale(0.1 -0.1)">
       <use xlink:href="#DejaVuSans-32"/>
       <use xlink:href="#DejaVuSans-30" x="63.623047"/>
       <use xlink:href="#DejaVuSans-32" x="127.246094"/>
       <use xlink:href="#DejaVuSans-30" x="190.869141"/>
       <use xlink:href="#DejaVuSans-2d" x="254.492188"/>
       <use xlink:href="#DejaVuSans-30" x="290.576172"/>
       <use xlink:href="#DejaVuSans-31" x="354.199219"/>
       <use xlink:href="#DejaVuSans-2d" x="417.822266"/>
       <use xlink:href="#DejaVuSans-31" x="453.90625"/>
       <use xlink:href="#DejaVuSans-30" x="517.529297"/>
      </g>
     </g>
    </g>
    <g id="xtick_8">
     <g id="line2d_8">
      <g>
       <use xlink:href="#ma9ebd0ad9a" x="265.846455" y="512.64" style="stroke: #000000; stroke-width: 0.8"/>
      </g>
     </g>
     <g id="text_8">
      <!-- 2019-07-12 -->
      <g transform="translate(241.208484 552.794199) rotate(-27) scale(0.1 -0.1)">
       <defs>
        <path id="DejaVuSans-39" d="M 703 97 
L 703 672 
Q 941 559 1184 500 
Q 1428 441 1663 441 
Q 2288 441 2617 861 
Q 2947 1281 2994 2138 
Q 2813 1869 2534 1725 
Q 2256 1581 1919 1581 
Q 1219 1581 811 2004 
Q 403 2428 403 3163 
Q 403 3881 828 4315 
Q 1253 4750 1959 4750 
Q 2769 4750 3195 4129 
Q 3622 3509 3622 2328 
Q 3622 1225 3098 567 
Q 2575 -91 1691 -91 
Q 1453 -91 1209 -44 
Q 966 3 703 97 
z
M 1959 2075 
Q 2384 2075 2632 2365 
Q 2881 2656 2881 3163 
Q 2881 3666 2632 3958 
Q 2384 4250 1959 4250 
Q 1534 4250 1286 3958 
Q 1038 3666 1038 3163 
Q 1038 2656 1286 2365 
Q 1534 2075 1959 2075 
z
" transform="scale(0.015625)"/>
       </defs>
       <use xlink:href="#DejaVuSans-32"/>
       <use xlink:href="#DejaVuSans-30" x="63.623047"/>
       <use xlink:href="#DejaVuSans-31" x="127.246094"/>
       <use xlink:href="#DejaVuSans-39" x="190.869141"/>
       <use xlink:href="#DejaVuSans-2d" x="254.492188"/>
       <use xlink:href="#DejaVuSans-30" x="290.576172"/>
       <use xlink:href="#DejaVuSans-37" x="354.199219"/>
       <use xlink:href="#DejaVuSans-2d" x="417.822266"/>
       <use xlink:href="#DejaVuSans-31" x="453.90625"/>
       <use xlink:href="#DejaVuSans-32" x="517.529297"/>
      </g>
     </g>
    </g>
    <g id="xtick_9">
     <g id="line2d_9">
      <g>
       <use xlink:href="#ma9ebd0ad9a" x="214.876468" y="512.64" style="stroke: #000000; stroke-width: 0.8"/>
      </g>
     </g>
     <g id="text_9">
      <!-- 2019-01-10 -->
      <g transform="translate(190.238498 552.794199) rotate(-27) scale(0.1 -0.1)">
       <use xlink:href="#DejaVuSans-32"/>
       <use xlink:href="#DejaVuSans-30" x="63.623047"/>
       <use xlink:href="#DejaVuSans-31" x="127.246094"/>
       <use xlink:href="#DejaVuSans-39" x="190.869141"/>
       <use xlink:href="#DejaVuSans-2d" x="254.492188"/>
       <use xlink:href="#DejaVuSans-30" x="290.576172"/>
       <use xlink:href="#DejaVuSans-31" x="354.199219"/>
       <use xlink:href="#DejaVuSans-2d" x="417.822266"/>
       <use xlink:href="#DejaVuSans-31" x="453.90625"/>
       <use xlink:href="#DejaVuSans-30" x="517.529297"/>
      </g>
     </g>
    </g>
    <g id="xtick_10">
     <g id="line2d_10">
      <g>
       <use xlink:href="#ma9ebd0ad9a" x="163.906481" y="512.64" style="stroke: #000000; stroke-width: 0.8"/>
      </g>
     </g>
     <g id="text_10">
      <!-- 2018-07-11 -->
      <g transform="translate(139.268511 552.794199) rotate(-27) scale(0.1 -0.1)">
       <defs>
        <path id="DejaVuSans-38" d="M 2034 2216 
Q 1584 2216 1326 1975 
Q 1069 1734 1069 1313 
Q 1069 891 1326 650 
Q 1584 409 2034 409 
Q 2484 409 2743 651 
Q 3003 894 3003 1313 
Q 3003 1734 2745 1975 
Q 2488 2216 2034 2216 
z
M 1403 2484 
Q 997 2584 770 2862 
Q 544 3141 544 3541 
Q 544 4100 942 4425 
Q 1341 4750 2034 4750 
Q 2731 4750 3128 4425 
Q 3525 4100 3525 3541 
Q 3525 3141 3298 2862 
Q 3072 2584 2669 2484 
Q 3125 2378 3379 2068 
Q 3634 1759 3634 1313 
Q 3634 634 3220 271 
Q 2806 -91 2034 -91 
Q 1263 -91 848 271 
Q 434 634 434 1313 
Q 434 1759 690 2068 
Q 947 2378 1403 2484 
z
M 1172 3481 
Q 1172 3119 1398 2916 
Q 1625 2713 2034 2713 
Q 2441 2713 2670 2916 
Q 2900 3119 2900 3481 
Q 2900 3844 2670 4047 
Q 2441 4250 2034 4250 
Q 1625 4250 1398 4047 
Q 1172 3844 1172 3481 
z
" transform="scale(0.015625)"/>
       </defs>
       <use xlink:href="#DejaVuSans-32"/>
       <use xlink:href="#DejaVuSans-30" x="63.623047"/>
       <use xlink:href="#DejaVuSans-31" x="127.246094"/>
       <use xlink:href="#DejaVuSans-38" x="190.869141"/>
       <use xlink:href="#DejaVuSans-2d" x="254.492188"/>
       <use xlink:href="#DejaVuSans-30" x="290.576172"/>
       <use xlink:href="#DejaVuSans-37" x="354.199219"/>
       <use xlink:href="#DejaVuSans-2d" x="417.822266"/>
       <use xlink:href="#DejaVuSans-31" x="453.90625"/>
       <use xlink:href="#DejaVuSans-31" x="517.529297"/>
      </g>
     </g>
    </g>
    <g id="text_11">
     <!-- Time in 1255 trading days -->
     <g transform="translate(303.339063 566.245652) scale(0.1 -0.1)">
      <defs>
       <path id="DejaVuSans-54" d="M -19 4666 
L 3928 4666 
L 3928 4134 
L 2272 4134 
L 2272 0 
L 1638 0 
L 1638 4134 
L -19 4134 
L -19 4666 
z
" transform="scale(0.015625)"/>
       <path id="DejaVuSans-69" d="M 603 3500 
L 1178 3500 
L 1178 0 
L 603 0 
L 603 3500 
z
M 603 4863 
L 1178 4863 
L 1178 4134 
L 603 4134 
L 603 4863 
z
" transform="scale(0.015625)"/>
       <path id="DejaVuSans-6d" d="M 3328 2828 
Q 3544 3216 3844 3400 
Q 4144 3584 4550 3584 
Q 5097 3584 5394 3201 
Q 5691 2819 5691 2113 
L 5691 0 
L 5113 0 
L 5113 2094 
Q 5113 2597 4934 2840 
Q 4756 3084 4391 3084 
Q 3944 3084 3684 2787 
Q 3425 2491 3425 1978 
L 3425 0 
L 2847 0 
L 2847 2094 
Q 2847 2600 2669 2842 
Q 2491 3084 2119 3084 
Q 1678 3084 1418 2786 
Q 1159 2488 1159 1978 
L 1159 0 
L 581 0 
L 581 3500 
L 1159 3500 
L 1159 2956 
Q 1356 3278 1631 3431 
Q 1906 3584 2284 3584 
Q 2666 3584 2933 3390 
Q 3200 3197 3328 2828 
z
" transform="scale(0.015625)"/>
       <path id="DejaVuSans-65" d="M 3597 1894 
L 3597 1613 
L 953 1613 
Q 991 1019 1311 708 
Q 1631 397 2203 397 
Q 2534 397 2845 478 
Q 3156 559 3463 722 
L 3463 178 
Q 3153 47 2828 -22 
Q 2503 -91 2169 -91 
Q 1331 -91 842 396 
Q 353 884 353 1716 
Q 353 2575 817 3079 
Q 1281 3584 2069 3584 
Q 2775 3584 3186 3129 
Q 3597 2675 3597 1894 
z
M 3022 2063 
Q 3016 2534 2758 2815 
Q 2500 3097 2075 3097 
Q 1594 3097 1305 2825 
Q 1016 2553 972 2059 
L 3022 2063 
z
" transform="scale(0.015625)"/>
       <path id="DejaVuSans-20" transform="scale(0.015625)"/>
       <path id="DejaVuSans-6e" d="M 3513 2113 
L 3513 0 
L 2938 0 
L 2938 2094 
Q 2938 2591 2744 2837 
Q 2550 3084 2163 3084 
Q 1697 3084 1428 2787 
Q 1159 2491 1159 1978 
L 1159 0 
L 581 0 
L 581 3500 
L 1159 3500 
L 1159 2956 
Q 1366 3272 1645 3428 
Q 1925 3584 2291 3584 
Q 2894 3584 3203 3211 
Q 3513 2838 3513 2113 
z
" transform="scale(0.015625)"/>
       <path id="DejaVuSans-35" d="M 691 4666 
L 3169 4666 
L 3169 4134 
L 1269 4134 
L 1269 2991 
Q 1406 3038 1543 3061 
Q 1681 3084 1819 3084 
Q 2600 3084 3056 2656 
Q 3513 2228 3513 1497 
Q 3513 744 3044 326 
Q 2575 -91 1722 -91 
Q 1428 -91 1123 -41 
Q 819 9 494 109 
L 494 744 
Q 775 591 1075 516 
Q 1375 441 1709 441 
Q 2250 441 2565 725 
Q 2881 1009 2881 1497 
Q 2881 1984 2565 2268 
Q 2250 2553 1709 2553 
Q 1456 2553 1204 2497 
Q 953 2441 691 2322 
L 691 4666 
z
" transform="scale(0.015625)"/>
       <path id="DejaVuSans-74" d="M 1172 4494 
L 1172 3500 
L 2356 3500 
L 2356 3053 
L 1172 3053 
L 1172 1153 
Q 1172 725 1289 603 
Q 1406 481 1766 481 
L 2356 481 
L 2356 0 
L 1766 0 
Q 1100 0 847 248 
Q 594 497 594 1153 
L 594 3053 
L 172 3053 
L 172 3500 
L 594 3500 
L 594 4494 
L 1172 4494 
z
" transform="scale(0.015625)"/>
       <path id="DejaVuSans-72" d="M 2631 2963 
Q 2534 3019 2420 3045 
Q 2306 3072 2169 3072 
Q 1681 3072 1420 2755 
Q 1159 2438 1159 1844 
L 1159 0 
L 581 0 
L 581 3500 
L 1159 3500 
L 1159 2956 
Q 1341 3275 1631 3429 
Q 1922 3584 2338 3584 
Q 2397 3584 2469 3576 
Q 2541 3569 2628 3553 
L 2631 2963 
z
" transform="scale(0.015625)"/>
       <path id="DejaVuSans-61" d="M 2194 1759 
Q 1497 1759 1228 1600 
Q 959 1441 959 1056 
Q 959 750 1161 570 
Q 1363 391 1709 391 
Q 2188 391 2477 730 
Q 2766 1069 2766 1631 
L 2766 1759 
L 2194 1759 
z
M 3341 1997 
L 3341 0 
L 2766 0 
L 2766 531 
Q 2569 213 2275 61 
Q 1981 -91 1556 -91 
Q 1019 -91 701 211 
Q 384 513 384 1019 
Q 384 1609 779 1909 
Q 1175 2209 1959 2209 
L 2766 2209 
L 2766 2266 
Q 2766 2663 2505 2880 
Q 2244 3097 1772 3097 
Q 1472 3097 1187 3025 
Q 903 2953 641 2809 
L 641 3341 
Q 956 3463 1253 3523 
Q 1550 3584 1831 3584 
Q 2591 3584 2966 3190 
Q 3341 2797 3341 1997 
z
" transform="scale(0.015625)"/>
       <path id="DejaVuSans-64" d="M 2906 2969 
L 2906 4863 
L 3481 4863 
L 3481 0 
L 2906 0 
L 2906 525 
Q 2725 213 2448 61 
Q 2172 -91 1784 -91 
Q 1150 -91 751 415 
Q 353 922 353 1747 
Q 353 2572 751 3078 
Q 1150 3584 1784 3584 
Q 2172 3584 2448 3432 
Q 2725 3281 2906 2969 
z
M 947 1747 
Q 947 1113 1208 752 
Q 1469 391 1925 391 
Q 2381 391 2643 752 
Q 2906 1113 2906 1747 
Q 2906 2381 2643 2742 
Q 2381 3103 1925 3103 
Q 1469 3103 1208 2742 
Q 947 2381 947 1747 
z
" transform="scale(0.015625)"/>
       <path id="DejaVuSans-67" d="M 2906 1791 
Q 2906 2416 2648 2759 
Q 2391 3103 1925 3103 
Q 1463 3103 1205 2759 
Q 947 2416 947 1791 
Q 947 1169 1205 825 
Q 1463 481 1925 481 
Q 2391 481 2648 825 
Q 2906 1169 2906 1791 
z
M 3481 434 
Q 3481 -459 3084 -895 
Q 2688 -1331 1869 -1331 
Q 1566 -1331 1297 -1286 
Q 1028 -1241 775 -1147 
L 775 -588 
Q 1028 -725 1275 -790 
Q 1522 -856 1778 -856 
Q 2344 -856 2625 -561 
Q 2906 -266 2906 331 
L 2906 616 
Q 2728 306 2450 153 
Q 2172 0 1784 0 
Q 1141 0 747 490 
Q 353 981 353 1791 
Q 353 2603 747 3093 
Q 1141 3584 1784 3584 
Q 2172 3584 2450 3431 
Q 2728 3278 2906 2969 
L 2906 3500 
L 3481 3500 
L 3481 434 
z
" transform="scale(0.015625)"/>
       <path id="DejaVuSans-79" d="M 2059 -325 
Q 1816 -950 1584 -1140 
Q 1353 -1331 966 -1331 
L 506 -1331 
L 506 -850 
L 844 -850 
Q 1081 -850 1212 -737 
Q 1344 -625 1503 -206 
L 1606 56 
L 191 3500 
L 800 3500 
L 1894 763 
L 2988 3500 
L 3597 3500 
L 2059 -325 
z
" transform="scale(0.015625)"/>
       <path id="DejaVuSans-73" d="M 2834 3397 
L 2834 2853 
Q 2591 2978 2328 3040 
Q 2066 3103 1784 3103 
Q 1356 3103 1142 2972 
Q 928 2841 928 2578 
Q 928 2378 1081 2264 
Q 1234 2150 1697 2047 
L 1894 2003 
Q 2506 1872 2764 1633 
Q 3022 1394 3022 966 
Q 3022 478 2636 193 
Q 2250 -91 1575 -91 
Q 1294 -91 989 -36 
Q 684 19 347 128 
L 347 722 
Q 666 556 975 473 
Q 1284 391 1588 391 
Q 1994 391 2212 530 
Q 2431 669 2431 922 
Q 2431 1156 2273 1281 
Q 2116 1406 1581 1522 
L 1381 1569 
Q 847 1681 609 1914 
Q 372 2147 372 2553 
Q 372 3047 722 3315 
Q 1072 3584 1716 3584 
Q 2034 3584 2315 3537 
Q 2597 3491 2834 3397 
z
" transform="scale(0.015625)"/>
      </defs>
      <use xlink:href="#DejaVuSans-54"/>
      <use xlink:href="#DejaVuSans-69" x="57.958984"/>
      <use xlink:href="#DejaVuSans-6d" x="85.742188"/>
      <use xlink:href="#DejaVuSans-65" x="183.154297"/>
      <use xlink:href="#DejaVuSans-20" x="244.677734"/>
      <use xlink:href="#DejaVuSans-69" x="276.464844"/>
      <use xlink:href="#DejaVuSans-6e" x="304.248047"/>
      <use xlink:href="#DejaVuSans-20" x="367.626953"/>
      <use xlink:href="#DejaVuSans-31" x="399.414062"/>
      <use xlink:href="#DejaVuSans-32" x="463.037109"/>
      <use xlink:href="#DejaVuSans-35" x="526.660156"/>
      <use xlink:href="#DejaVuSans-35" x="590.283203"/>
      <use xlink:href="#DejaVuSans-20" x="653.90625"/>
      <use xlink:href="#DejaVuSans-74" x="685.693359"/>
      <use xlink:href="#DejaVuSans-72" x="724.902344"/>
      <use xlink:href="#DejaVuSans-61" x="766.015625"/>
      <use xlink:href="#DejaVuSans-64" x="827.294922"/>
      <use xlink:href="#DejaVuSans-69" x="890.771484"/>
      <use xlink:href="#DejaVuSans-6e" x="918.554688"/>
      <use xlink:href="#DejaVuSans-67" x="981.933594"/>
      <use xlink:href="#DejaVuSans-20" x="1045.410156"/>
      <use xlink:href="#DejaVuSans-64" x="1077.197266"/>
      <use xlink:href="#DejaVuSans-61" x="1140.673828"/>
      <use xlink:href="#DejaVuSans-79" x="1201.953125"/>
      <use xlink:href="#DejaVuSans-73" x="1261.132812"/>
     </g>
    </g>
   </g>
   <g id="matplotlib.axis_2">
    <g id="ytick_1">
     <g id="line2d_11">
      <defs>
       <path id="m638c770e36" d="M 0 0 
L -3.5 0 
" style="stroke: #000000; stroke-width: 0.8"/>
      </defs>
      <g>
       <use xlink:href="#m638c770e36" x="90" y="507.434865" style="stroke: #000000; stroke-width: 0.8"/>
      </g>
     </g>
     <g id="text_12">
      <!-- $60 -->
      <g transform="translate(63.9125 511.234083) scale(0.1 -0.1)">
       <defs>
        <path id="DejaVuSans-24" d="M 2163 -941 
L 1850 -941 
L 1847 0 
Q 1519 6 1191 76 
Q 863 147 531 288 
L 531 850 
Q 850 650 1176 548 
Q 1503 447 1850 444 
L 1850 1869 
Q 1159 1981 845 2250 
Q 531 2519 531 2988 
Q 531 3497 872 3790 
Q 1213 4084 1850 4128 
L 1850 4863 
L 2163 4863 
L 2163 4138 
Q 2453 4125 2725 4076 
Q 2997 4028 3256 3944 
L 3256 3397 
Q 2997 3528 2723 3600 
Q 2450 3672 2163 3684 
L 2163 2350 
Q 2872 2241 3206 1959 
Q 3541 1678 3541 1191 
Q 3541 663 3186 358 
Q 2831 53 2163 6 
L 2163 -941 
z
M 1850 2406 
L 1850 3688 
Q 1488 3647 1297 3481 
Q 1106 3316 1106 3041 
Q 1106 2772 1282 2622 
Q 1459 2472 1850 2406 
z
M 2163 1806 
L 2163 453 
Q 2559 506 2761 678 
Q 2963 850 2963 1131 
Q 2963 1406 2770 1568 
Q 2578 1731 2163 1806 
z
" transform="scale(0.015625)"/>
        <path id="DejaVuSans-36" d="M 2113 2584 
Q 1688 2584 1439 2293 
Q 1191 2003 1191 1497 
Q 1191 994 1439 701 
Q 1688 409 2113 409 
Q 2538 409 2786 701 
Q 3034 994 3034 1497 
Q 3034 2003 2786 2293 
Q 2538 2584 2113 2584 
z
M 3366 4563 
L 3366 3988 
Q 3128 4100 2886 4159 
Q 2644 4219 2406 4219 
Q 1781 4219 1451 3797 
Q 1122 3375 1075 2522 
Q 1259 2794 1537 2939 
Q 1816 3084 2150 3084 
Q 2853 3084 3261 2657 
Q 3669 2231 3669 1497 
Q 3669 778 3244 343 
Q 2819 -91 2113 -91 
Q 1303 -91 875 529 
Q 447 1150 447 2328 
Q 447 3434 972 4092 
Q 1497 4750 2381 4750 
Q 2619 4750 2861 4703 
Q 3103 4656 3366 4563 
z
" transform="scale(0.015625)"/>
       </defs>
       <use xlink:href="#DejaVuSans-24"/>
       <use xlink:href="#DejaVuSans-36" x="63.623047"/>
       <use xlink:href="#DejaVuSans-30" x="127.246094"/>
      </g>
     </g>
    </g>
    <g id="ytick_2">
     <g id="line2d_12">
      <g>
       <use xlink:href="#m638c770e36" x="90" y="441.125401" style="stroke: #000000; stroke-width: 0.8"/>
      </g>
     </g>
     <g id="text_13">
      <!-- $80 -->
      <g transform="translate(63.9125 444.92462) scale(0.1 -0.1)">
       <use xlink:href="#DejaVuSans-24"/>
       <use xlink:href="#DejaVuSans-38" x="63.623047"/>
       <use xlink:href="#DejaVuSans-30" x="127.246094"/>
      </g>
     </g>
    </g>
    <g id="ytick_3">
     <g id="line2d_13">
      <g>
       <use xlink:href="#m638c770e36" x="90" y="374.815938" style="stroke: #000000; stroke-width: 0.8"/>
      </g>
     </g>
     <g id="text_14">
      <!-- $100 -->
      <g transform="translate(57.55 378.615157) scale(0.1 -0.1)">
       <use xlink:href="#DejaVuSans-24"/>
       <use xlink:href="#DejaVuSans-31" x="63.623047"/>
       <use xlink:href="#DejaVuSans-30" x="127.246094"/>
       <use xlink:href="#DejaVuSans-30" x="190.869141"/>
      </g>
     </g>
    </g>
    <g id="ytick_4">
     <g id="line2d_14">
      <g>
       <use xlink:href="#m638c770e36" x="90" y="308.506475" style="stroke: #000000; stroke-width: 0.8"/>
      </g>
     </g>
     <g id="text_15">
      <!-- $120 -->
      <g transform="translate(57.55 312.305694) scale(0.1 -0.1)">
       <use xlink:href="#DejaVuSans-24"/>
       <use xlink:href="#DejaVuSans-31" x="63.623047"/>
       <use xlink:href="#DejaVuSans-32" x="127.246094"/>
       <use xlink:href="#DejaVuSans-30" x="190.869141"/>
      </g>
     </g>
    </g>
    <g id="ytick_5">
     <g id="line2d_15">
      <g>
       <use xlink:href="#m638c770e36" x="90" y="242.197012" style="stroke: #000000; stroke-width: 0.8"/>
      </g>
     </g>
     <g id="text_16">
      <!-- $140 -->
      <g transform="translate(57.55 245.99623) scale(0.1 -0.1)">
       <defs>
        <path id="DejaVuSans-34" d="M 2419 4116 
L 825 1625 
L 2419 1625 
L 2419 4116 
z
M 2253 4666 
L 3047 4666 
L 3047 1625 
L 3713 1625 
L 3713 1100 
L 3047 1100 
L 3047 0 
L 2419 0 
L 2419 1100 
L 313 1100 
L 313 1709 
L 2253 4666 
z
" transform="scale(0.015625)"/>
       </defs>
       <use xlink:href="#DejaVuSans-24"/>
       <use xlink:href="#DejaVuSans-31" x="63.623047"/>
       <use xlink:href="#DejaVuSans-34" x="127.246094"/>
       <use xlink:href="#DejaVuSans-30" x="190.869141"/>
      </g>
     </g>
    </g>
    <g id="ytick_6">
     <g id="line2d_16">
      <g>
       <use xlink:href="#m638c770e36" x="90" y="175.887548" style="stroke: #000000; stroke-width: 0.8"/>
      </g>
     </g>
     <g id="text_17">
      <!-- $160 -->
      <g transform="translate(57.55 179.686767) scale(0.1 -0.1)">
       <use xlink:href="#DejaVuSans-24"/>
       <use xlink:href="#DejaVuSans-31" x="63.623047"/>
       <use xlink:href="#DejaVuSans-36" x="127.246094"/>
       <use xlink:href="#DejaVuSans-30" x="190.869141"/>
      </g>
     </g>
    </g>
    <g id="ytick_7">
     <g id="line2d_17">
      <g>
       <use xlink:href="#m638c770e36" x="90" y="109.578085" style="stroke: #000000; stroke-width: 0.8"/>
      </g>
     </g>
     <g id="text_18">
      <!-- $180 -->
      <g transform="translate(57.55 113.377304) scale(0.1 -0.1)">
       <use xlink:href="#DejaVuSans-24"/>
       <use xlink:href="#DejaVuSans-31" x="63.623047"/>
       <use xlink:href="#DejaVuSans-38" x="127.246094"/>
       <use xlink:href="#DejaVuSans-30" x="190.869141"/>
      </g>
     </g>
    </g>
   </g>
   <g id="line2d_18">
    <path d="M 622.636364 391.094911 
L 622.23184 408.401681 
L 621.827316 416.723519 
L 621.422793 420.967325 
L 621.018269 430.781125 
L 620.613745 424.083869 
L 620.209221 421.829348 
L 619.804698 427.863509 
L 619.400174 427.266724 
L 618.99565 435.09124 
L 618.591127 431.046363 
L 618.186603 424.398274 
L 617.782079 429.227234 
L 617.377555 419.370863 
L 616.973032 424.596724 
L 616.568508 425.489751 
L 616.163984 415.76568 
L 615.759461 413.814251 
L 615.354937 403.461754 
L 614.950413 400.451922 
L 614.141366 411.697446 
L 613.736842 407.529987 
L 613.332318 413.781176 
L 612.927795 414.475752 
L 612.118747 395.027611 
L 611.3097 387.056519 
L 610.905176 400.683448 
L 610.500652 395.622962 
L 610.096129 397.409016 
L 609.691605 395.027611 
L 608.882558 400.551147 
L 608.478034 394.994536 
L 608.07351 392.646206 
L 607.264463 379.118501 
L 606.859939 380.60688 
L 606.455415 372.999613 
L 606.050892 386.758843 
L 605.646368 421.454592 
L 605.241844 408.753765 
L 604.432797 405.446258 
L 604.028273 411.00287 
L 603.623749 401.6757 
L 602.814702 367.542227 
L 602.410178 364.333945 
L 602.005655 339.362266 
L 601.196607 307.477898 
L 600.792084 310.057753 
L 600.38756 311.711507 
L 599.983036 325.173061 
L 599.578512 325.768412 
L 599.173989 321.501728 
L 598.769465 330.002021 
L 598.364941 352.790745 
L 597.960418 334.16948 
L 597.555894 332.945702 
L 597.15137 335.227882 
L 596.746846 330.398922 
L 596.342323 327.45524 
L 595.937799 308.47015 
L 595.533275 306.32027 
L 595.128752 305.857219 
L 594.724228 323.089331 
L 594.319704 332.614952 
L 593.915181 326.661439 
L 593.510657 316.044341 
L 593.106133 327.951367 
L 592.701609 325.503811 
L 592.297086 330.035096 
L 591.892562 318.359596 
L 591.488038 314.291362 
L 591.083515 302.218961 
L 590.678991 294.049419 
L 590.274467 297.786902 
L 589.46542 281.183216 
L 589.060896 286.905203 
L 588.656372 255.05391 
L 587.847325 276.982682 
L 587.442801 278.107234 
L 587.038278 289.253533 
L 586.633754 284.623023 
L 586.22923 283.597696 
L 585.824706 287.070579 
L 585.420183 280.587865 
L 584.611135 273.9067 
L 584.206612 252.308679 
L 583.802088 263.818804 
L 583.397564 264.414155 
L 582.99304 265.737158 
L 582.183993 235.704993 
L 581.779469 236.366495 
L 581.374946 227.502376 
L 580.970422 232.794387 
L 580.565898 231.570609 
L 580.161375 241.195455 
L 579.756851 234.415066 
L 579.352327 250.48955 
L 578.138756 234.811966 
L 577.734232 244.899863 
L 577.329709 262.628101 
L 576.925185 258.559867 
L 576.520661 260.015171 
L 576.116137 301.921286 
L 575.711614 306.25412 
L 575.30709 326.628364 
L 574.902566 305.691844 
L 574.498043 301.458235 
L 574.093519 294.148644 
L 573.688995 300.300607 
L 572.879948 330.101246 
L 572.475424 330.795823 
L 572.0709 340.453743 
L 571.666377 341.21447 
L 571.261853 345.117328 
L 570.857329 336.749335 
L 570.452806 324.213883 
L 570.048282 321.600953 
L 569.643758 328.215967 
L 569.239234 330.961198 
L 568.430187 355.072925 
L 568.025663 346.109581 
L 567.62114 351.136991 
L 567.216616 331.8873 
L 566.812092 321.170977 
L 566.003045 346.010355 
L 565.598521 346.903382 
L 564.789474 363.507068 
L 564.38495 350.243964 
L 563.980426 367.972203 
L 563.575903 363.473993 
L 562.362331 305.559543 
L 561.553284 293.619443 
L 561.14876 301.68976 
L 560.744237 291.23473 
L 560.339713 303.89256 
L 559.935189 308.769479 
L 559.126142 338.973634 
L 558.721618 353.204183 
L 558.317094 362.051765 
L 557.912571 350.617713 
L 557.508047 350.505257 
L 556.699 352.0879 
L 556.294476 324.781121 
L 555.889952 339.856738 
L 555.485428 332.433039 
L 555.080905 352.689866 
L 554.676381 357.844616 
L 554.271857 346.311338 
L 553.867334 346.542864 
L 553.46281 326.752395 
L 553.058286 321.346275 
L 552.653763 289.853846 
L 552.249239 295.39392 
L 551.844715 294.57862 
L 551.440191 295.30131 
L 551.035668 228.109303 
L 550.631144 249.37492 
L 550.22662 245.326532 
L 549.822097 223.222462 
L 549.417573 228.924604 
L 549.013049 215.873181 
L 548.608525 197.013775 
L 548.204002 183.395115 
L 547.799478 201.025781 
L 547.394954 204.592928 
L 546.990431 191.910292 
L 546.585907 207.632527 
L 546.181383 206.526166 
L 545.372336 184.4899 
L 544.967812 181.276656 
L 544.158765 149.556009 
L 543.754241 165.387392 
L 543.349717 167.247865 
L 542.54067 146.352689 
L 542.136146 147.425975 
L 541.731622 161.373732 
L 541.327099 165.09137 
L 540.922575 165.890133 
L 540.518051 160.991715 
L 540.113528 172.228971 
L 539.709004 173.02608 
L 538.899957 199.970687 
L 538.090909 237.183449 
L 537.686385 225.039937 
L 537.281862 220.76333 
L 536.877338 245.696972 
L 536.472814 256.494329 
L 536.068291 251.73648 
L 535.663767 224.654612 
L 535.259243 217.187915 
L 534.854719 203.44853 
L 534.450196 206.460016 
L 534.045672 198.452541 
L 533.641148 197.706698 
L 533.236625 205.745594 
L 532.832101 227.346923 
L 532.427577 209.583956 
L 531.61853 194.849012 
L 531.214006 183.444727 
L 530.000435 199.343914 
L 529.595911 180.458048 
L 529.191388 173.227838 
L 528.786864 172.486956 
L 528.38234 183.990466 
L 527.977816 184.969488 
L 527.573293 247.130777 
L 527.168769 208.211341 
L 526.764245 206.289679 
L 526.359722 211.64784 
L 525.550674 244.511231 
L 525.146151 247.041474 
L 524.741627 243.358565 
L 524.337103 228.282947 
L 523.932579 234.570518 
L 523.528056 204.721921 
L 523.123532 189.403201 
L 522.314485 170.090667 
L 521.909961 173.146804 
L 521.505437 159.939928 
L 521.100913 159.427264 
L 520.69639 172.247162 
L 520.291866 168.714744 
L 519.887342 166.399489 
L 519.482819 162.751309 
L 518.673771 142.74916 
L 518.269247 154.945592 
L 517.864724 148.570372 
L 517.4602 146.729745 
L 517.055676 141.900784 
L 516.651153 145.180178 
L 516.246629 140.552975 
L 515.842105 140.657162 
L 515.437582 142.707816 
L 515.033058 153.748275 
L 514.628534 144.029165 
L 514.22401 147.821222 
L 513.819487 133.12266 
L 513.414963 147.091917 
L 513.010439 145.517543 
L 512.201392 130.291434 
L 511.796868 123.719418 
L 511.392344 123.697919 
L 510.987821 139.560723 
L 510.583297 145.775529 
L 510.178773 137.908623 
L 509.77425 136.856836 
L 508.965202 117.36735 
L 508.560679 126.795399 
L 508.156155 114.251679 
L 507.751631 114.312868 
L 507.347107 115.548221 
L 506.942584 98.349184 
L 506.53806 95.126019 
L 506.133536 119.446119 
L 505.729013 120.818734 
L 505.324489 119.995165 
L 504.919965 123.390321 
L 504.515441 132.097333 
L 504.110918 130.517999 
L 503.706394 114.942948 
L 503.30187 129.371947 
L 502.897347 124.409033 
L 502.492823 131.353144 
L 501.683776 158.516046 
L 501.279252 157.629634 
L 500.874728 148.646445 
L 500.470204 136.385516 
L 500.065681 145.329015 
L 499.661157 148.044479 
L 499.256633 157.255886 
L 498.85211 154.745488 
L 498.447586 138.297255 
L 498.043062 141.596494 
L 497.638538 136.785725 
L 497.234015 136.357402 
L 496.829491 142.595361 
L 496.424967 160.647735 
L 496.020444 163.224283 
L 495.61592 169.334902 
L 495.211396 169.505239 
L 494.806873 162.506554 
L 494.402349 160.22272 
L 493.188778 178.852254 
L 492.784254 163.392965 
L 492.37973 163.098597 
L 491.570683 157.985191 
L 491.166159 143.127869 
L 490.761635 139.866667 
L 490.357112 141.441041 
L 489.548064 153.409255 
L 489.143541 151.408213 
L 488.739017 133.747779 
L 488.334493 129.494325 
L 487.92997 131.553248 
L 487.525446 135.818279 
L 487.120922 134.632537 
L 486.311875 130.169057 
L 485.907351 123.332439 
L 485.502827 126.013174 
L 485.098304 131.1795 
L 484.69378 133.648554 
L 484.289256 131.022393 
L 483.884732 132.380125 
L 483.480209 140.5199 
L 483.075685 152.417003 
L 482.671161 157.978576 
L 482.266638 160.76019 
L 481.862114 159.668712 
L 481.45759 166.268843 
L 481.053067 177.170386 
L 480.648543 179.187966 
L 480.244019 176.96036 
L 479.839495 170.222968 
L 479.434972 160.791611 
L 479.030448 161.621795 
L 478.625924 160.045768 
L 478.221401 161.929394 
L 477.412353 153.700316 
L 477.007829 153.192614 
L 476.603306 148.057709 
L 476.198782 151.575243 
L 475.794258 149.670118 
L 475.389735 155.418566 
L 474.985211 156.061876 
L 474.580687 111.025205 
L 474.176164 105.997795 
L 473.77164 106.64772 
L 473.367116 94.504207 
L 472.962592 101.645115 
L 472.558069 104.722751 
L 472.153545 113.459531 
L 471.749021 115.445689 
L 471.344498 119.348547 
L 470.939974 115.372924 
L 470.130926 97.504116 
L 469.726403 98.218538 
L 469.321879 91.406727 
L 468.917355 91.276081 
L 468.512832 89.28 
L 468.108308 95.040024 
L 467.703784 98.486446 
L 467.299261 125.73369 
L 466.894737 138.634621 
L 466.085689 136.125877 
L 465.681166 136.828722 
L 465.276642 143.845598 
L 464.467595 126.917777 
L 464.063071 126.649869 
L 463.658547 135.163392 
L 463.254023 129.715928 
L 462.8495 129.32895 
L 462.444976 141.565072 
L 462.040452 146.876929 
L 461.635929 146.754551 
L 461.231405 152.880054 
L 460.826881 152.413696 
L 460.422358 163.741907 
L 460.017834 166.559904 
L 459.61331 177.491215 
L 459.208786 176.133483 
L 458.804263 179.310343 
L 458.399739 171.541009 
L 457.995215 174.077867 
L 457.590692 173.346908 
L 457.186168 172.182666 
L 456.781644 166.386259 
L 456.37712 167.396703 
L 455.972597 169.72188 
L 455.568073 176.652761 
L 455.163549 169.277021 
L 454.759026 171.903181 
L 454.354502 171.823801 
L 453.949978 165.521346 
L 453.545455 173.375022 
L 453.140931 183.53403 
L 452.736407 185.110057 
L 452.331883 173.207993 
L 451.92736 178.734837 
L 451.522836 162.012081 
L 451.118312 159.571141 
L 450.713789 165.49654 
L 450.309265 158.661577 
L 449.500217 132.93744 
L 449.095694 132.29413 
L 448.69117 134.412588 
L 448.286646 141.204554 
L 447.882123 142.598668 
L 447.477599 153.864038 
L 447.073075 159.129589 
L 446.668552 150.368002 
L 446.264028 154.887711 
L 445.45498 144.179657 
L 445.050457 147.545045 
L 444.645933 155.167195 
L 444.241409 144.087046 
L 443.836886 147.495433 
L 443.432362 148.684481 
L 443.027838 160.740345 
L 442.623314 164.032968 
L 442.218791 173.222877 
L 441.814267 172.741634 
L 441.00522 194.678675 
L 440.600696 201.093585 
L 440.196172 197.713313 
L 439.791649 201.632709 
L 439.387125 202.586925 
L 438.578077 187.498077 
L 438.173554 191.902023 
L 437.76903 197.840652 
L 437.364506 205.608332 
L 436.959983 187.790792 
L 436.555459 195.045808 
L 436.150935 196.72933 
L 435.746411 195.437748 
L 435.341888 191.452202 
L 434.937364 200.704953 
L 434.53284 199.843348 
L 434.128317 218.183474 
L 433.723793 210.161116 
L 433.319269 213.946558 
L 432.914746 209.410312 
L 432.510222 194.604256 
L 432.105698 186.069234 
L 431.701174 194.868857 
L 431.296651 200.784333 
L 430.892127 183.854858 
L 430.487603 178.071682 
L 430.08308 180.347247 
L 429.274032 155.956036 
L 428.869508 159.195739 
L 428.464985 165.759487 
L 428.060461 164.310799 
L 427.655937 166.887347 
L 426.84689 159.797705 
L 426.442366 156.830871 
L 426.037843 152.000257 
L 425.228795 158.552429 
L 424.824271 147.394554 
L 424.419748 153.533287 
L 424.015224 176.13679 
L 423.6107 170.940697 
L 423.206177 171.774188 
L 422.801653 156.303324 
L 422.397129 161.616834 
L 421.992605 161.909549 
L 421.588082 159.468608 
L 421.183558 166.680628 
L 420.779034 190.266461 
L 420.374511 192.996808 
L 419.969987 189.156792 
L 419.565463 182.803071 
L 419.16094 190.254884 
L 418.756416 191.349669 
L 418.351892 180.023111 
L 417.542845 187.352547 
L 417.138321 174.10102 
L 416.733797 179.373186 
L 416.329274 167.747299 
L 415.520226 156.986324 
L 415.115702 163.277203 
L 414.711179 181.678519 
L 414.306655 179.598097 
L 413.902131 176.08387 
L 413.497608 176.140098 
L 413.093084 176.889248 
L 412.68856 171.195375 
L 412.284037 170.388343 
L 411.879513 182.93041 
L 411.474989 184.278219 
L 411.070465 190.98419 
L 410.665942 193.453244 
L 410.261418 193.005077 
L 409.856894 180.917792 
L 409.452371 184.107882 
L 409.047847 183.350463 
L 408.643323 179.356649 
L 407.834276 173.84138 
L 407.429752 182.447514 
L 407.025228 177.932767 
L 406.620705 179.631172 
L 406.216181 190.712974 
L 405.811657 193.965907 
L 405.407134 193.798878 
L 405.00261 190.884965 
L 404.598086 192.796704 
L 404.193562 187.802368 
L 403.789039 188.563095 
L 403.384515 188.935189 
L 402.979991 191.999594 
L 402.575468 187.516269 
L 402.170944 204.445744 
L 401.76642 186.466135 
L 401.361896 158.744264 
L 400.957373 156.986324 
L 400.552849 170.355268 
L 400.148325 202.231368 
L 399.743802 209.496307 
L 399.339278 204.25887 
L 398.934754 175.341335 
L 398.530231 183.317388 
L 398.125707 162.885263 
L 397.721183 175.997875 
L 397.316659 176.434466 
L 396.912136 181.064976 
L 396.507612 179.65267 
L 396.103088 174.349083 
L 395.698565 175.969761 
L 394.889517 154.232825 
L 394.484993 150.088518 
L 394.08047 136.87172 
L 393.675946 136.987482 
L 393.271422 162.832343 
L 392.866899 178.724915 
L 392.462375 177.874885 
L 392.057851 193.706268 
L 391.653328 177.294418 
L 391.248804 189.565269 
L 390.84428 173.646238 
L 390.439756 185.640912 
L 390.035233 186.277607 
L 389.630709 181.453608 
L 388.821662 206.96441 
L 388.417138 210.260341 
L 388.012614 188.905422 
L 387.60809 216.774476 
L 387.203567 217.693963 
L 386.799043 208.793462 
L 385.989996 184.417134 
L 385.585472 193.208488 
L 385.180948 191.017265 
L 384.776425 181.27831 
L 384.371901 165.815714 
L 383.967377 185.457345 
L 383.562853 161.514301 
L 383.15833 149.379058 
L 382.753806 122.348456 
L 382.349282 127.695041 
L 381.540235 143.789371 
L 381.135711 144.087046 
L 380.731187 137.166088 
L 380.326664 152.936282 
L 379.92214 159.390882 
L 379.517616 163.151517 
L 379.113093 161.059519 
L 378.708569 167.160216 
L 378.304045 158.559044 
L 377.899522 180.07107 
L 377.494998 185.758329 
L 377.090474 183.608449 
L 376.68595 183.406691 
L 376.281427 196.896359 
L 375.876903 185.735176 
L 375.472379 182.543432 
L 375.067856 173.027734 
L 374.663332 176.33028 
L 374.258808 187.278128 
L 373.854284 191.73334 
L 373.449761 183.003175 
L 373.045237 201.657515 
L 372.640713 204.692153 
L 372.23619 210.182615 
L 371.831666 201.106815 
L 371.427142 208.763694 
L 371.022619 212.461487 
L 370.618095 193.714537 
L 370.213571 187.367431 
L 369.809047 177.684704 
L 369.404524 216.526413 
L 369 210.253726 
L 368.595476 208.770309 
L 368.190953 196.345659 
L 367.786429 193.038152 
L 367.381905 177.162118 
L 366.977381 180.034687 
L 366.168334 210.217344 
L 365.76381 200.804178 
L 365.359287 228.378865 
L 364.954763 230.297219 
L 364.550239 250.122417 
L 364.145716 263.09446 
L 363.741192 261.028921 
L 363.336668 250.823608 
L 362.932144 254.160883 
L 362.527621 249.197969 
L 361.718573 263.982525 
L 361.31405 267.460369 
L 360.909526 269.610249 
L 360.505002 273.862049 
L 360.100478 280.905385 
L 359.695955 285.479668 
L 359.291431 283.339711 
L 358.886907 268.54027 
L 358.482384 276.245108 
L 358.07786 288.945935 
L 357.673336 295.736247 
L 357.268813 299.440655 
L 356.864289 296.496974 
L 356.459765 297.487572 
L 356.055241 297.714137 
L 355.650718 302.455448 
L 355.246194 309.280489 
L 354.437147 305.847297 
L 354.032623 303.363359 
L 353.628099 301.732758 
L 353.223575 293.26554 
L 352.819052 301.304436 
L 352.414528 305.119645 
L 351.605481 311.306337 
L 351.200957 314.767643 
L 350.796433 316.581811 
L 350.39191 307.974024 
L 349.987386 312.834405 
L 349.582862 314.81891 
L 349.178338 317.522797 
L 348.773815 323.056256 
L 348.369291 323.355585 
L 347.964767 328.308577 
L 347.560244 297.224626 
L 347.15572 313.975495 
L 346.751196 323.671452 
L 346.346672 313.43141 
L 345.942149 307.772266 
L 345.537625 309.553358 
L 344.728578 321.349582 
L 344.324054 310.51915 
L 343.91953 313.596786 
L 343.515007 308.107978 
L 343.110483 324.729855 
L 342.705959 328.758398 
L 341.896912 368.541094 
L 341.492388 368.501404 
L 341.087864 373.69419 
L 340.683341 376.011099 
L 340.278817 391.060256 
L 339.874293 389.036062 
L 339.469769 390.876689 
L 339.065246 383.927617 
L 338.660722 381.574325 
L 338.256198 392.133542 
L 337.851675 382.973401 
L 337.447151 394.491794 
L 337.042627 385.518528 
L 336.638104 391.682067 
L 336.23358 401.065465 
L 335.829056 395.303787 
L 335.424532 403.726354 
L 335.020009 407.391072 
L 334.615485 427.019473 
L 334.210961 411.168245 
L 333.806438 429.09328 
L 333.401914 405.237885 
L 332.99739 393.50285 
L 332.592866 408.586736 
L 332.188343 391.96982 
L 331.783819 388.17611 
L 331.379295 379.609666 
L 330.974772 390.663355 
L 330.570248 383.228079 
L 330.165724 394.837429 
L 329.761201 394.746473 
L 329.356677 378.987855 
L 328.952153 380.120676 
L 328.547629 374.076207 
L 328.143106 359.741471 
L 327.738582 350.293577 
L 327.334058 347.462351 
L 326.929535 349.868562 
L 326.525011 353.30837 
L 326.120487 350.827739 
L 325.715963 349.152487 
L 325.31144 350.67394 
L 324.906916 353.46713 
L 324.502392 362.501586 
L 324.097869 367.30574 
L 323.693345 369.019029 
L 323.288821 367.39835 
L 322.884298 374.917967 
L 322.479774 374.170471 
L 322.07525 396.998885 
L 321.670726 399.095844 
L 321.266203 399.881377 
L 320.861679 404.000877 
L 320.457155 398.493878 
L 320.052632 394.700167 
L 319.648108 394.223886 
L 319.243584 393.473082 
L 318.83906 397.984522 
L 318.434537 395.79826 
L 318.030013 398.431035 
L 317.625489 397.20395 
L 317.220966 393.588845 
L 316.816442 394.935 
L 316.411918 391.976435 
L 316.007395 393.478044 
L 315.602871 391.015605 
L 315.198347 391.673798 
L 314.793823 396.289425 
L 314.3893 392.479176 
L 313.984776 400.776058 
L 313.580252 400.933165 
L 313.175729 397.144415 
L 312.771205 397.314752 
L 312.366681 410.472015 
L 311.962157 409.845242 
L 311.557634 410.920182 
L 311.15311 409.964313 
L 310.748586 411.328659 
L 310.344063 410.232221 
L 309.939539 413.779522 
L 309.535015 415.147176 
L 309.130492 415.248055 
L 308.321444 418.740783 
L 307.91692 417.037417 
L 307.512397 416.691782 
L 307.107873 418.530756 
L 306.703349 415.18852 
L 305.894302 411.730522 
L 305.085254 405.626517 
L 304.276207 413.013834 
L 303.871683 417.664189 
L 303.46716 419.484972 
L 303.062636 417.695611 
L 302.658112 416.494986 
L 302.253589 416.537983 
L 301.849065 418.694478 
L 301.444541 416.195656 
L 301.040017 416.442065 
L 300.635494 412.325873 
L 300.23097 413.376006 
L 299.826446 411.022715 
L 299.421923 410.639044 
L 298.612875 408.404823 
L 298.208351 407.916966 
L 297.399304 412.547476 
L 296.99478 411.996776 
L 296.590257 414.854462 
L 296.185733 412.478018 
L 295.781209 415.08268 
L 295.376686 411.866129 
L 294.972162 414.943765 
L 294.567638 414.355028 
L 294.163114 411.059098 
L 293.758591 415.714414 
L 293.354067 410.758114 
L 292.54502 414.082159 
L 292.140496 419.200526 
L 291.735972 419.946369 
L 291.331448 421.874646 
L 290.926925 421.588546 
L 290.522401 424.313932 
L 290.117877 419.823991 
L 289.713354 418.668018 
L 288.904306 423.037235 
L 288.499783 419.329519 
L 288.095259 419.286521 
L 287.690735 421.016348 
L 287.286211 418.636596 
L 286.881688 413.925052 
L 286.477164 418.343882 
L 286.07264 411.118633 
L 285.668117 409.653407 
L 285.263593 405.132045 
L 284.859069 405.800161 
L 284.454545 404.958401 
L 284.050022 407.391072 
L 283.645498 402.181748 
L 283.240974 401.485518 
L 282.836451 404.885636 
L 282.431927 405.289151 
L 282.027403 403.503098 
L 281.62288 403.145887 
L 281.218356 401.953531 
L 280.813832 408.585082 
L 280.004785 412.608665 
L 279.600261 410.93672 
L 279.195737 414.599784 
L 278.791214 414.999992 
L 278.38669 413.83575 
L 277.982166 417.019225 
L 277.577642 407.916966 
L 277.173119 404.794679 
L 276.768595 408.459397 
L 276.364071 406.021764 
L 275.959548 409.916354 
L 275.1505 414.813118 
L 274.745977 404.662379 
L 274.341453 411.181475 
L 273.532405 403.24842 
L 273.127882 409.779092 
L 272.723358 410.700233 
L 272.318834 414.454254 
L 271.914311 404.844292 
L 271.509787 399.53905 
L 271.105263 397.643849 
L 270.700739 392.393181 
L 270.296216 390.091156 
L 269.082645 375.47859 
L 268.678121 376.523762 
L 268.273597 377.988988 
L 267.869074 381.480062 
L 267.060026 376.930585 
L 266.655502 373.975328 
L 266.250979 372.141315 
L 265.441931 375.435592 
L 265.037408 372.733359 
L 264.22836 383.497641 
L 263.823836 385.053823 
L 263.014789 386.476051 
L 262.610265 388.4804 
L 262.205742 393.20352 
L 261.801218 391.442273 
L 261.396694 392.508944 
L 260.992171 395.743686 
L 260.587647 389.851362 
L 260.183123 390.281338 
L 259.778599 389.141902 
L 258.969552 391.923515 
L 258.160505 397.165914 
L 257.755981 397.061727 
L 257.351457 399.53905 
L 256.946933 398.153205 
L 256.54241 398.660907 
L 255.733362 416.235346 
L 255.328839 418.858199 
L 254.924315 420.336655 
L 254.519791 426.434044 
L 254.115268 412.810423 
L 253.710744 405.988689 
L 253.30622 405.514062 
L 252.901696 402.662991 
L 252.497173 404.837677 
L 252.092649 406.127604 
L 251.688125 398.818014 
L 251.283602 399.175225 
L 250.879078 398.93543 
L 250.474554 397.276715 
L 250.07003 390.898188 
L 249.260983 402.052756 
L 248.856459 404.936902 
L 248.451936 393.807141 
L 248.047412 392.171578 
L 247.642888 389.211359 
L 247.238365 388.677197 
L 246.833841 383.790355 
L 246.429317 381.820735 
L 246.024793 392.014472 
L 245.62027 390.244955 
L 244.811222 385.794705 
L 244.406699 383.777125 
L 244.002175 391.777985 
L 243.597651 391.860673 
L 243.193127 388.219107 
L 242.788604 394.248693 
L 242.38408 398.485609 
L 241.979556 397.967984 
L 241.575033 398.262353 
L 241.170509 401.267223 
L 240.765985 401.566552 
L 240.361462 401.399523 
L 239.956938 400.860399 
L 239.552414 402.760562 
L 239.14789 400.442 
L 238.743367 402.522422 
L 238.338843 405.568636 
L 237.934319 405.264345 
L 237.529796 406.375668 
L 237.125272 406.340939 
L 236.720748 411.871091 
L 235.911701 414.35999 
L 235.507177 411.373311 
L 234.69813 414.513789 
L 234.293606 405.502486 
L 233.889082 409.13909 
L 233.484559 414.996685 
L 233.080035 418.254579 
L 232.270987 427.504023 
L 231.866464 426.74495 
L 231.46194 429.673748 
L 231.057416 430.083878 
L 230.652893 438.322879 
L 230.248369 437.471196 
L 229.843845 430.360055 
L 229.439321 426.477042 
L 229.034798 425.858538 
L 228.630274 429.900312 
L 228.22575 435.175786 
L 227.821227 434.967413 
L 227.012179 436.305299 
L 226.607656 436.54344 
L 226.203132 438.547789 
L 225.798608 438.107891 
L 225.394084 437.201634 
L 224.989561 440.447952 
L 224.180513 435.147672 
L 223.77599 435.476769 
L 223.371466 443.251064 
L 222.966942 443.710808 
L 222.157895 435.104674 
L 221.753371 432.036961 
L 221.348847 436.254033 
L 220.944324 437.42489 
L 220.5398 422.12767 
L 220.135276 430.1153 
L 219.730753 442.774783 
L 218.921705 430.092147 
L 218.112658 435.144364 
L 217.708134 436.442561 
L 217.30361 425.853577 
L 216.899087 426.346395 
L 216.090039 429.4323 
L 215.685515 438.916576 
L 215.280992 435.055062 
L 214.876468 432.465284 
L 214.471944 431.936082 
L 214.067421 432.405748 
L 213.662897 436.882459 
L 213.258373 445.832574 
L 212.853849 458.253916 
L 212.449326 451.829084 
L 212.044802 457.974432 
L 211.640278 461.935172 
L 211.235755 464.64402 
L 210.831231 463.112644 
L 210.426707 484.105392 
L 210.022184 478.566971 
L 209.61766 464.777974 
L 209.213136 459.113868 
L 208.808612 449.786698 
L 208.404089 454.842223 
L 207.595041 432.108073 
L 207.190518 431.254736 
L 206.785994 434.611856 
L 206.38147 434.977335 
L 205.976946 436.945302 
L 205.572423 425.359105 
L 205.167899 430.451012 
L 204.763375 413.25859 
L 204.358852 426.85079 
L 203.954328 429.596021 
L 203.549804 428.904752 
L 203.145281 444.83536 
L 202.740757 444.850244 
L 202.336233 457.959548 
L 201.931709 455.533492 
L 201.527186 459.051026 
L 201.122662 456.267758 
L 200.718138 442.85251 
L 200.313615 438.547789 
L 199.909091 441.926408 
L 199.504567 436.607936 
L 199.100043 435.668604 
L 198.69552 423.169535 
L 198.290996 416.14439 
L 197.886472 416.048472 
L 197.481949 434.682967 
L 197.077425 437.165251 
L 196.672901 430.925639 
L 196.268378 430.925639 
L 195.45933 453.269503 
L 195.054806 451.870428 
L 194.650283 434.682967 
L 194.245759 411.636258 
L 193.841235 431.145588 
L 193.436712 413.863864 
L 193.032188 410.457131 
L 192.627664 414.636167 
L 192.22314 413.529805 
L 191.818617 403.440255 
L 191.414093 405.386723 
L 191.009569 415.145523 
L 190.605046 410.57124 
L 190.200522 422.023484 
L 189.795998 416.088162 
L 189.391475 397.05842 
L 188.986951 398.034135 
L 188.177903 390.592244 
L 187.77338 383.424876 
L 187.368856 380.357163 
L 186.964332 374.891507 
L 186.559809 375.116418 
L 186.155285 373.465972 
L 185.750761 379.771734 
L 185.346237 379.821347 
L 184.941714 386.467782 
L 184.53719 389.667795 
L 184.132666 384.823951 
L 183.728143 387.780863 
L 183.323619 385.361421 
L 182.919095 390.822115 
L 182.514572 380.542383 
L 182.110048 377.287796 
L 181.705524 377.266297 
L 181.301 377.737617 
L 180.896477 385.698787 
L 180.491953 383.538985 
L 180.087429 382.507042 
L 179.278382 369.078564 
L 178.873858 373.510623 
L 178.469334 375.218951 
L 178.064811 375.926757 
L 177.660287 386.72246 
L 177.255763 387.57249 
L 176.85124 391.258706 
L 176.446716 391.670491 
L 176.042192 391.33974 
L 175.637669 394.892003 
L 175.233145 396.001671 
L 174.424097 394.379339 
L 174.019574 395.024303 
L 173.61505 388.900454 
L 173.210526 392.778506 
L 172.806003 394.415722 
L 172.401479 392.394835 
L 171.996955 394.379339 
L 171.592431 398.354963 
L 171.187908 400.790942 
L 170.783384 404.836023 
L 170.37886 403.010279 
L 169.974337 409.155627 
L 169.569813 412.418483 
L 169.165289 412.124115 
L 168.760766 405.831583 
L 168.356242 407.364612 
L 167.951718 398.168089 
L 167.142671 408.356864 
L 166.738147 406.421973 
L 166.333623 406.542697 
L 165.9291 401.589705 
L 165.524576 401.422676 
L 165.120052 404.968323 
L 164.715528 406.532774 
L 164.311005 409.246584 
L 163.906481 416.129506 
L 163.501957 418.102434 
L 163.097434 418.772204 
L 162.69291 423.46721 
L 162.288386 425.269802 
L 161.883863 426.224018 
L 161.479339 422.946278 
L 161.074815 425.258226 
L 160.670291 424.985356 
L 160.265768 431.755823 
L 159.861244 426.698645 
L 159.45672 431.319232 
L 159.052197 422.633719 
L 158.647673 420.227507 
L 158.243149 416.943153 
L 157.838625 419.473396 
L 157.434102 421.290871 
L 157.029578 422.584106 
L 156.625054 421.279295 
L 156.220531 424.421426 
L 155.816007 425.43187 
L 155.411483 427.024434 
L 155.00696 427.87281 
L 154.197912 425.927996 
L 153.793388 425.828771 
L 152.984341 434.892994 
L 152.579817 436.864268 
L 152.175294 437.646493 
L 151.77077 439.634305 
L 151.366246 440.084126 
L 150.961722 441.254984 
L 150.557199 441.455088 
L 150.152675 444.838668 
L 149.748151 444.167244 
L 149.343628 446.001256 
L 148.53458 443.866261 
L 148.130057 445.71185 
L 147.725533 441.508008 
L 147.321009 441.281444 
L 146.916485 440.261078 
L 146.511962 440.439683 
L 146.107438 443.021192 
L 145.702914 441.739533 
L 145.298391 444.913087 
L 144.893867 446.379966 
L 144.489343 446.776867 
L 144.084819 444.696445 
L 143.680296 447.363949 
L 143.275772 446.290663 
L 142.466725 464.887122 
L 142.062201 464.900352 
L 141.657677 455.346618 
L 141.253154 453.754053 
L 140.84863 448.88871 
L 140.039582 457.666834 
L 139.635059 467.97468 
L 139.230535 469.74585 
L 138.826011 466.817052 
L 138.421488 470.364354 
L 138.016964 468.847862 
L 137.61244 473.832275 
L 137.207916 473.972844 
L 136.803393 466.279582 
L 136.398869 473.08974 
L 135.589822 479.469921 
L 135.185298 467.008888 
L 134.780774 469.641663 
L 133.971727 449.062354 
L 133.567203 459.034488 
L 132.758156 444.762595 
L 132.353632 443.9936 
L 131.949108 450.869907 
L 131.544585 446.446116 
L 130.735537 443.251064 
L 130.331013 443.717423 
L 129.92649 442.02894 
L 129.521966 445.25376 
L 129.117442 449.723856 
L 128.308395 452.075493 
L 127.903871 454.395709 
L 127.499348 458.258878 
L 127.094824 459.38343 
L 126.6903 456.241298 
L 126.285776 456.319025 
L 125.881253 454.670233 
L 125.476729 458.300222 
L 125.072205 460.724624 
L 124.667682 461.124833 
L 124.263158 463.534352 
L 123.858634 466.785631 
L 123.45411 464.624175 
L 123.049587 466.395345 
L 121.836016 484.826429 
L 121.431492 483.023837 
L 121.026968 472.062759 
L 120.622445 467.753077 
L 120.217921 476.491511 
L 119.813397 469.884765 
L 119.408873 476.491511 
L 119.00435 466.421805 
L 118.599826 468.583261 
L 116.981731 481.864556 
L 116.577207 481.032718 
L 115.76816 492.271627 
L 115.363636 492.48 
L 115.363636 492.48 
" clip-path="url(#p81d40c7650)" style="fill: none; stroke: #1f77b4; stroke-width: 2; stroke-linecap: square"/>
   </g>
   <g id="patch_3">
    <path d="M 90 512.64 
L 90 69.12 
" style="fill: none; stroke: #000000; stroke-width: 0.8; stroke-linejoin: miter; stroke-linecap: square"/>
   </g>
   <g id="patch_4">
    <path d="M 648 512.64 
L 648 69.12 
" style="fill: none; stroke: #000000; stroke-width: 0.8; stroke-linejoin: miter; stroke-linecap: square"/>
   </g>
   <g id="patch_5">
    <path d="M 90 512.64 
L 648 512.64 
" style="fill: none; stroke: #000000; stroke-width: 0.8; stroke-linejoin: miter; stroke-linecap: square"/>
   </g>
   <g id="patch_6">
    <path d="M 90 69.12 
L 648 69.12 
" style="fill: none; stroke: #000000; stroke-width: 0.8; stroke-linejoin: miter; stroke-linecap: square"/>
   </g>
   <g id="text_19">
    <!-- Last price $95.09 -->
    <g transform="translate(316.760625 63.12) scale(0.12 -0.12)">
     <defs>
      <path id="DejaVuSans-4c" d="M 628 4666 
L 1259 4666 
L 1259 531 
L 3531 531 
L 3531 0 
L 628 0 
L 628 4666 
z
" transform="scale(0.015625)"/>
      <path id="DejaVuSans-70" d="M 1159 525 
L 1159 -1331 
L 581 -1331 
L 581 3500 
L 1159 3500 
L 1159 2969 
Q 1341 3281 1617 3432 
Q 1894 3584 2278 3584 
Q 2916 3584 3314 3078 
Q 3713 2572 3713 1747 
Q 3713 922 3314 415 
Q 2916 -91 2278 -91 
Q 1894 -91 1617 61 
Q 1341 213 1159 525 
z
M 3116 1747 
Q 3116 2381 2855 2742 
Q 2594 3103 2138 3103 
Q 1681 3103 1420 2742 
Q 1159 2381 1159 1747 
Q 1159 1113 1420 752 
Q 1681 391 2138 391 
Q 2594 391 2855 752 
Q 3116 1113 3116 1747 
z
" transform="scale(0.015625)"/>
      <path id="DejaVuSans-63" d="M 3122 3366 
L 3122 2828 
Q 2878 2963 2633 3030 
Q 2388 3097 2138 3097 
Q 1578 3097 1268 2742 
Q 959 2388 959 1747 
Q 959 1106 1268 751 
Q 1578 397 2138 397 
Q 2388 397 2633 464 
Q 2878 531 3122 666 
L 3122 134 
Q 2881 22 2623 -34 
Q 2366 -91 2075 -91 
Q 1284 -91 818 406 
Q 353 903 353 1747 
Q 353 2603 823 3093 
Q 1294 3584 2113 3584 
Q 2378 3584 2631 3529 
Q 2884 3475 3122 3366 
z
" transform="scale(0.015625)"/>
      <path id="DejaVuSans-2e" d="M 684 794 
L 1344 794 
L 1344 0 
L 684 0 
L 684 794 
z
" transform="scale(0.015625)"/>
     </defs>
     <use xlink:href="#DejaVuSans-4c"/>
     <use xlink:href="#DejaVuSans-61" x="55.712891"/>
     <use xlink:href="#DejaVuSans-73" x="116.992188"/>
     <use xlink:href="#DejaVuSans-74" x="169.091797"/>
     <use xlink:href="#DejaVuSans-20" x="208.300781"/>
     <use xlink:href="#DejaVuSans-70" x="240.087891"/>
     <use xlink:href="#DejaVuSans-72" x="303.564453"/>
     <use xlink:href="#DejaVuSans-69" x="344.677734"/>
     <use xlink:href="#DejaVuSans-63" x="372.460938"/>
     <use xlink:href="#DejaVuSans-65" x="427.441406"/>
     <use xlink:href="#DejaVuSans-20" x="488.964844"/>
     <use xlink:href="#DejaVuSans-24" x="520.751953"/>
     <use xlink:href="#DejaVuSans-39" x="584.375"/>
     <use xlink:href="#DejaVuSans-35" x="647.998047"/>
     <use xlink:href="#DejaVuSans-2e" x="711.621094"/>
     <use xlink:href="#DejaVuSans-30" x="743.408203"/>
     <use xlink:href="#DejaVuSans-39" x="807.03125"/>
    </g>
   </g>
  </g>
 </g>
 <defs>
  <clipPath id="p81d40c7650">
   <rect x="90" y="69.12" width="558" height="443.52"/>
  </clipPath>
 </defs>
</svg>
