<?xml version="1.0" encoding="utf-8" standalone="no"?>
<!DOCTYPE svg PUBLIC "-//W3C//DTD SVG 1.1//EN"
  "http://www.w3.org/Graphics/SVG/1.1/DTD/svg11.dtd">
<svg xmlns:xlink="http://www.w3.org/1999/xlink" width="720pt" height="576pt" viewBox="0 0 720 576" xmlns="http://www.w3.org/2000/svg" version="1.1">
 <metadata>
  <rdf:RDF xmlns:dc="http://purl.org/dc/elements/1.1/" xmlns:cc="http://creativecommons.org/ns#" xmlns:rdf="http://www.w3.org/1999/02/22-rdf-syntax-ns#">
   <cc:Work>
    <dc:type rdf:resource="http://purl.org/dc/dcmitype/StillImage"/>
    <dc:date>2023-01-14T15:40:09.585043</dc:date>
    <dc:format>image/svg+xml</dc:format>
    <dc:creator>
     <cc:Agent>
      <dc:title>Matplotlib v3.6.2, https://matplotlib.org/</dc:title>
     </cc:Agent>
    </dc:creator>
   </cc:Work>
  </rdf:RDF>
 </metadata>
 <defs>
  <style type="text/css">*{stroke-linejoin: round; stroke-linecap: butt}</style>
 </defs>
 <g id="figure_1">
  <g id="patch_1">
   <path d="M 0 576 
L 720 576 
L 720 0 
L 0 0 
z
" style="fill: #ffffff"/>
  </g>
  <g id="axes_1">
   <g id="patch_2">
    <path d="M 90 512.64 
L 648 512.64 
L 648 69.12 
L 90 69.12 
z
" style="fill: #ffffff"/>
   </g>
   <g id="matplotlib.axis_1">
    <g id="xtick_1">
     <g id="line2d_1">
      <defs>
       <path id="md72c8a51b2" d="M 0 0 
L 0 3.5 
" style="stroke: #000000; stroke-width: 0.8"/>
      </defs>
      <g>
       <use xlink:href="#md72c8a51b2" x="622.636364" y="512.64" style="stroke: #000000; stroke-width: 0.8"/>
      </g>
     </g>
     <g id="text_1">
      <!-- 2023-01-13 -->
      <g transform="translate(597.998393 552.794199) rotate(-27) scale(0.1 -0.1)">
       <defs>
        <path id="DejaVuSans-32" d="M 1228 531 
L 3431 531 
L 3431 0 
L 469 0 
L 469 531 
Q 828 903 1448 1529 
Q 2069 2156 2228 2338 
Q 2531 2678 2651 2914 
Q 2772 3150 2772 3378 
Q 2772 3750 2511 3984 
Q 2250 4219 1831 4219 
Q 1534 4219 1204 4116 
Q 875 4013 500 3803 
L 500 4441 
Q 881 4594 1212 4672 
Q 1544 4750 1819 4750 
Q 2544 4750 2975 4387 
Q 3406 4025 3406 3419 
Q 3406 3131 3298 2873 
Q 3191 2616 2906 2266 
Q 2828 2175 2409 1742 
Q 1991 1309 1228 531 
z
" transform="scale(0.015625)"/>
        <path id="DejaVuSans-30" d="M 2034 4250 
Q 1547 4250 1301 3770 
Q 1056 3291 1056 2328 
Q 1056 1369 1301 889 
Q 1547 409 2034 409 
Q 2525 409 2770 889 
Q 3016 1369 3016 2328 
Q 3016 3291 2770 3770 
Q 2525 4250 2034 4250 
z
M 2034 4750 
Q 2819 4750 3233 4129 
Q 3647 3509 3647 2328 
Q 3647 1150 3233 529 
Q 2819 -91 2034 -91 
Q 1250 -91 836 529 
Q 422 1150 422 2328 
Q 422 3509 836 4129 
Q 1250 4750 2034 4750 
z
" transform="scale(0.015625)"/>
        <path id="DejaVuSans-33" d="M 2597 2516 
Q 3050 2419 3304 2112 
Q 3559 1806 3559 1356 
Q 3559 666 3084 287 
Q 2609 -91 1734 -91 
Q 1441 -91 1130 -33 
Q 819 25 488 141 
L 488 750 
Q 750 597 1062 519 
Q 1375 441 1716 441 
Q 2309 441 2620 675 
Q 2931 909 2931 1356 
Q 2931 1769 2642 2001 
Q 2353 2234 1838 2234 
L 1294 2234 
L 1294 2753 
L 1863 2753 
Q 2328 2753 2575 2939 
Q 2822 3125 2822 3475 
Q 2822 3834 2567 4026 
Q 2313 4219 1838 4219 
Q 1578 4219 1281 4162 
Q 984 4106 628 3988 
L 628 4550 
Q 988 4650 1302 4700 
Q 1616 4750 1894 4750 
Q 2613 4750 3031 4423 
Q 3450 4097 3450 3541 
Q 3450 3153 3228 2886 
Q 3006 2619 2597 2516 
z
" transform="scale(0.015625)"/>
        <path id="DejaVuSans-2d" d="M 313 2009 
L 1997 2009 
L 1997 1497 
L 313 1497 
L 313 2009 
z
" transform="scale(0.015625)"/>
        <path id="DejaVuSans-31" d="M 794 531 
L 1825 531 
L 1825 4091 
L 703 3866 
L 703 4441 
L 1819 4666 
L 2450 4666 
L 2450 531 
L 3481 531 
L 3481 0 
L 794 0 
L 794 531 
z
" transform="scale(0.015625)"/>
       </defs>
       <use xlink:href="#DejaVuSans-32"/>
       <use xlink:href="#DejaVuSans-30" x="63.623047"/>
       <use xlink:href="#DejaVuSans-32" x="127.246094"/>
       <use xlink:href="#DejaVuSans-33" x="190.869141"/>
       <use xlink:href="#DejaVuSans-2d" x="254.492188"/>
       <use xlink:href="#DejaVuSans-30" x="290.576172"/>
       <use xlink:href="#DejaVuSans-31" x="354.199219"/>
       <use xlink:href="#DejaVuSans-2d" x="417.822266"/>
       <use xlink:href="#DejaVuSans-31" x="453.90625"/>
       <use xlink:href="#DejaVuSans-33" x="517.529297"/>
      </g>
     </g>
    </g>
    <g id="xtick_2">
     <g id="line2d_2">
      <g>
       <use xlink:href="#md72c8a51b2" x="571.666377" y="512.64" style="stroke: #000000; stroke-width: 0.8"/>
      </g>
     </g>
     <g id="text_2">
      <!-- 2022-07-15 -->
      <g transform="translate(547.028406 552.794199) rotate(-27) scale(0.1 -0.1)">
       <defs>
        <path id="DejaVuSans-37" d="M 525 4666 
L 3525 4666 
L 3525 4397 
L 1831 0 
L 1172 0 
L 2766 4134 
L 525 4134 
L 525 4666 
z
" transform="scale(0.015625)"/>
        <path id="DejaVuSans-35" d="M 691 4666 
L 3169 4666 
L 3169 4134 
L 1269 4134 
L 1269 2991 
Q 1406 3038 1543 3061 
Q 1681 3084 1819 3084 
Q 2600 3084 3056 2656 
Q 3513 2228 3513 1497 
Q 3513 744 3044 326 
Q 2575 -91 1722 -91 
Q 1428 -91 1123 -41 
Q 819 9 494 109 
L 494 744 
Q 775 591 1075 516 
Q 1375 441 1709 441 
Q 2250 441 2565 725 
Q 2881 1009 2881 1497 
Q 2881 1984 2565 2268 
Q 2250 2553 1709 2553 
Q 1456 2553 1204 2497 
Q 953 2441 691 2322 
L 691 4666 
z
" transform="scale(0.015625)"/>
       </defs>
       <use xlink:href="#DejaVuSans-32"/>
       <use xlink:href="#DejaVuSans-30" x="63.623047"/>
       <use xlink:href="#DejaVuSans-32" x="127.246094"/>
       <use xlink:href="#DejaVuSans-32" x="190.869141"/>
       <use xlink:href="#DejaVuSans-2d" x="254.492188"/>
       <use xlink:href="#DejaVuSans-30" x="290.576172"/>
       <use xlink:href="#DejaVuSans-37" x="354.199219"/>
       <use xlink:href="#DejaVuSans-2d" x="417.822266"/>
       <use xlink:href="#DejaVuSans-31" x="453.90625"/>
       <use xlink:href="#DejaVuSans-35" x="517.529297"/>
      </g>
     </g>
    </g>
    <g id="xtick_3">
     <g id="line2d_3">
      <g>
       <use xlink:href="#md72c8a51b2" x="520.69639" y="512.64" style="stroke: #000000; stroke-width: 0.8"/>
      </g>
     </g>
     <g id="text_3">
      <!-- 2022-01-12 -->
      <g transform="translate(496.058419 552.794199) rotate(-27) scale(0.1 -0.1)">
       <use xlink:href="#DejaVuSans-32"/>
       <use xlink:href="#DejaVuSans-30" x="63.623047"/>
       <use xlink:href="#DejaVuSans-32" x="127.246094"/>
       <use xlink:href="#DejaVuSans-32" x="190.869141"/>
       <use xlink:href="#DejaVuSans-2d" x="254.492188"/>
       <use xlink:href="#DejaVuSans-30" x="290.576172"/>
       <use xlink:href="#DejaVuSans-31" x="354.199219"/>
       <use xlink:href="#DejaVuSans-2d" x="417.822266"/>
       <use xlink:href="#DejaVuSans-31" x="453.90625"/>
       <use xlink:href="#DejaVuSans-32" x="517.529297"/>
      </g>
     </g>
    </g>
    <g id="xtick_4">
     <g id="line2d_4">
      <g>
       <use xlink:href="#md72c8a51b2" x="469.726403" y="512.64" style="stroke: #000000; stroke-width: 0.8"/>
      </g>
     </g>
     <g id="text_4">
      <!-- 2021-07-15 -->
      <g transform="translate(445.088432 552.794199) rotate(-27) scale(0.1 -0.1)">
       <use xlink:href="#DejaVuSans-32"/>
       <use xlink:href="#DejaVuSans-30" x="63.623047"/>
       <use xlink:href="#DejaVuSans-32" x="127.246094"/>
       <use xlink:href="#DejaVuSans-31" x="190.869141"/>
       <use xlink:href="#DejaVuSans-2d" x="254.492188"/>
       <use xlink:href="#DejaVuSans-30" x="290.576172"/>
       <use xlink:href="#DejaVuSans-37" x="354.199219"/>
       <use xlink:href="#DejaVuSans-2d" x="417.822266"/>
       <use xlink:href="#DejaVuSans-31" x="453.90625"/>
       <use xlink:href="#DejaVuSans-35" x="517.529297"/>
      </g>
     </g>
    </g>
    <g id="xtick_5">
     <g id="line2d_5">
      <g>
       <use xlink:href="#md72c8a51b2" x="418.756416" y="512.64" style="stroke: #000000; stroke-width: 0.8"/>
      </g>
     </g>
     <g id="text_5">
      <!-- 2021-01-13 -->
      <g transform="translate(394.118445 552.794199) rotate(-27) scale(0.1 -0.1)">
       <use xlink:href="#DejaVuSans-32"/>
       <use xlink:href="#DejaVuSans-30" x="63.623047"/>
       <use xlink:href="#DejaVuSans-32" x="127.246094"/>
       <use xlink:href="#DejaVuSans-31" x="190.869141"/>
       <use xlink:href="#DejaVuSans-2d" x="254.492188"/>
       <use xlink:href="#DejaVuSans-30" x="290.576172"/>
       <use xlink:href="#DejaVuSans-31" x="354.199219"/>
       <use xlink:href="#DejaVuSans-2d" x="417.822266"/>
       <use xlink:href="#DejaVuSans-31" x="453.90625"/>
       <use xlink:href="#DejaVuSans-33" x="517.529297"/>
      </g>
     </g>
    </g>
    <g id="xtick_6">
     <g id="line2d_6">
      <g>
       <use xlink:href="#md72c8a51b2" x="367.786429" y="512.64" style="stroke: #000000; stroke-width: 0.8"/>
      </g>
     </g>
     <g id="text_6">
      <!-- 2020-07-15 -->
      <g transform="translate(343.148458 552.794199) rotate(-27) scale(0.1 -0.1)">
       <use xlink:href="#DejaVuSans-32"/>
       <use xlink:href="#DejaVuSans-30" x="63.623047"/>
       <use xlink:href="#DejaVuSans-32" x="127.246094"/>
       <use xlink:href="#DejaVuSans-30" x="190.869141"/>
       <use xlink:href="#DejaVuSans-2d" x="254.492188"/>
       <use xlink:href="#DejaVuSans-30" x="290.576172"/>
       <use xlink:href="#DejaVuSans-37" x="354.199219"/>
       <use xlink:href="#DejaVuSans-2d" x="417.822266"/>
       <use xlink:href="#DejaVuSans-31" x="453.90625"/>
       <use xlink:href="#DejaVuSans-35" x="517.529297"/>
      </g>
     </g>
    </g>
    <g id="xtick_7">
     <g id="line2d_7">
      <g>
       <use xlink:href="#md72c8a51b2" x="316.816442" y="512.64" style="stroke: #000000; stroke-width: 0.8"/>
      </g>
     </g>
     <g id="text_7">
      <!-- 2020-01-14 -->
      <g transform="translate(292.178471 552.794199) rotate(-27) scale(0.1 -0.1)">
       <defs>
        <path id="DejaVuSans-34" d="M 2419 4116 
L 825 1625 
L 2419 1625 
L 2419 4116 
z
M 2253 4666 
L 3047 4666 
L 3047 1625 
L 3713 1625 
L 3713 1100 
L 3047 1100 
L 3047 0 
L 2419 0 
L 2419 1100 
L 313 1100 
L 313 1709 
L 2253 4666 
z
" transform="scale(0.015625)"/>
       </defs>
       <use xlink:href="#DejaVuSans-32"/>
       <use xlink:href="#DejaVuSans-30" x="63.623047"/>
       <use xlink:href="#DejaVuSans-32" x="127.246094"/>
       <use xlink:href="#DejaVuSans-30" x="190.869141"/>
       <use xlink:href="#DejaVuSans-2d" x="254.492188"/>
       <use xlink:href="#DejaVuSans-30" x="290.576172"/>
       <use xlink:href="#DejaVuSans-31" x="354.199219"/>
       <use xlink:href="#DejaVuSans-2d" x="417.822266"/>
       <use xlink:href="#DejaVuSans-31" x="453.90625"/>
       <use xlink:href="#DejaVuSans-34" x="517.529297"/>
      </g>
     </g>
    </g>
    <g id="xtick_8">
     <g id="line2d_8">
      <g>
       <use xlink:href="#md72c8a51b2" x="265.846455" y="512.64" style="stroke: #000000; stroke-width: 0.8"/>
      </g>
     </g>
     <g id="text_8">
      <!-- 2019-07-16 -->
      <g transform="translate(241.208484 552.794199) rotate(-27) scale(0.1 -0.1)">
       <defs>
        <path id="DejaVuSans-39" d="M 703 97 
L 703 672 
Q 941 559 1184 500 
Q 1428 441 1663 441 
Q 2288 441 2617 861 
Q 2947 1281 2994 2138 
Q 2813 1869 2534 1725 
Q 2256 1581 1919 1581 
Q 1219 1581 811 2004 
Q 403 2428 403 3163 
Q 403 3881 828 4315 
Q 1253 4750 1959 4750 
Q 2769 4750 3195 4129 
Q 3622 3509 3622 2328 
Q 3622 1225 3098 567 
Q 2575 -91 1691 -91 
Q 1453 -91 1209 -44 
Q 966 3 703 97 
z
M 1959 2075 
Q 2384 2075 2632 2365 
Q 2881 2656 2881 3163 
Q 2881 3666 2632 3958 
Q 2384 4250 1959 4250 
Q 1534 4250 1286 3958 
Q 1038 3666 1038 3163 
Q 1038 2656 1286 2365 
Q 1534 2075 1959 2075 
z
" transform="scale(0.015625)"/>
        <path id="DejaVuSans-36" d="M 2113 2584 
Q 1688 2584 1439 2293 
Q 1191 2003 1191 1497 
Q 1191 994 1439 701 
Q 1688 409 2113 409 
Q 2538 409 2786 701 
Q 3034 994 3034 1497 
Q 3034 2003 2786 2293 
Q 2538 2584 2113 2584 
z
M 3366 4563 
L 3366 3988 
Q 3128 4100 2886 4159 
Q 2644 4219 2406 4219 
Q 1781 4219 1451 3797 
Q 1122 3375 1075 2522 
Q 1259 2794 1537 2939 
Q 1816 3084 2150 3084 
Q 2853 3084 3261 2657 
Q 3669 2231 3669 1497 
Q 3669 778 3244 343 
Q 2819 -91 2113 -91 
Q 1303 -91 875 529 
Q 447 1150 447 2328 
Q 447 3434 972 4092 
Q 1497 4750 2381 4750 
Q 2619 4750 2861 4703 
Q 3103 4656 3366 4563 
z
" transform="scale(0.015625)"/>
       </defs>
       <use xlink:href="#DejaVuSans-32"/>
       <use xlink:href="#DejaVuSans-30" x="63.623047"/>
       <use xlink:href="#DejaVuSans-31" x="127.246094"/>
       <use xlink:href="#DejaVuSans-39" x="190.869141"/>
       <use xlink:href="#DejaVuSans-2d" x="254.492188"/>
       <use xlink:href="#DejaVuSans-30" x="290.576172"/>
       <use xlink:href="#DejaVuSans-37" x="354.199219"/>
       <use xlink:href="#DejaVuSans-2d" x="417.822266"/>
       <use xlink:href="#DejaVuSans-31" x="453.90625"/>
       <use xlink:href="#DejaVuSans-36" x="517.529297"/>
      </g>
     </g>
    </g>
    <g id="xtick_9">
     <g id="line2d_9">
      <g>
       <use xlink:href="#md72c8a51b2" x="214.876468" y="512.64" style="stroke: #000000; stroke-width: 0.8"/>
      </g>
     </g>
     <g id="text_9">
      <!-- 2019-01-14 -->
      <g transform="translate(190.238498 552.794199) rotate(-27) scale(0.1 -0.1)">
       <use xlink:href="#DejaVuSans-32"/>
       <use xlink:href="#DejaVuSans-30" x="63.623047"/>
       <use xlink:href="#DejaVuSans-31" x="127.246094"/>
       <use xlink:href="#DejaVuSans-39" x="190.869141"/>
       <use xlink:href="#DejaVuSans-2d" x="254.492188"/>
       <use xlink:href="#DejaVuSans-30" x="290.576172"/>
       <use xlink:href="#DejaVuSans-31" x="354.199219"/>
       <use xlink:href="#DejaVuSans-2d" x="417.822266"/>
       <use xlink:href="#DejaVuSans-31" x="453.90625"/>
       <use xlink:href="#DejaVuSans-34" x="517.529297"/>
      </g>
     </g>
    </g>
    <g id="xtick_10">
     <g id="line2d_10">
      <g>
       <use xlink:href="#md72c8a51b2" x="163.906481" y="512.64" style="stroke: #000000; stroke-width: 0.8"/>
      </g>
     </g>
     <g id="text_10">
      <!-- 2018-07-13 -->
      <g transform="translate(139.268511 552.794199) rotate(-27) scale(0.1 -0.1)">
       <defs>
        <path id="DejaVuSans-38" d="M 2034 2216 
Q 1584 2216 1326 1975 
Q 1069 1734 1069 1313 
Q 1069 891 1326 650 
Q 1584 409 2034 409 
Q 2484 409 2743 651 
Q 3003 894 3003 1313 
Q 3003 1734 2745 1975 
Q 2488 2216 2034 2216 
z
M 1403 2484 
Q 997 2584 770 2862 
Q 544 3141 544 3541 
Q 544 4100 942 4425 
Q 1341 4750 2034 4750 
Q 2731 4750 3128 4425 
Q 3525 4100 3525 3541 
Q 3525 3141 3298 2862 
Q 3072 2584 2669 2484 
Q 3125 2378 3379 2068 
Q 3634 1759 3634 1313 
Q 3634 634 3220 271 
Q 2806 -91 2034 -91 
Q 1263 -91 848 271 
Q 434 634 434 1313 
Q 434 1759 690 2068 
Q 947 2378 1403 2484 
z
M 1172 3481 
Q 1172 3119 1398 2916 
Q 1625 2713 2034 2713 
Q 2441 2713 2670 2916 
Q 2900 3119 2900 3481 
Q 2900 3844 2670 4047 
Q 2441 4250 2034 4250 
Q 1625 4250 1398 4047 
Q 1172 3844 1172 3481 
z
" transform="scale(0.015625)"/>
       </defs>
       <use xlink:href="#DejaVuSans-32"/>
       <use xlink:href="#DejaVuSans-30" x="63.623047"/>
       <use xlink:href="#DejaVuSans-31" x="127.246094"/>
       <use xlink:href="#DejaVuSans-38" x="190.869141"/>
       <use xlink:href="#DejaVuSans-2d" x="254.492188"/>
       <use xlink:href="#DejaVuSans-30" x="290.576172"/>
       <use xlink:href="#DejaVuSans-37" x="354.199219"/>
       <use xlink:href="#DejaVuSans-2d" x="417.822266"/>
       <use xlink:href="#DejaVuSans-31" x="453.90625"/>
       <use xlink:href="#DejaVuSans-33" x="517.529297"/>
      </g>
     </g>
    </g>
    <g id="text_11">
     <!-- Time in 1255 trading days -->
     <g transform="translate(303.339063 566.245652) scale(0.1 -0.1)">
      <defs>
       <path id="DejaVuSans-54" d="M -19 4666 
L 3928 4666 
L 3928 4134 
L 2272 4134 
L 2272 0 
L 1638 0 
L 1638 4134 
L -19 4134 
L -19 4666 
z
" transform="scale(0.015625)"/>
       <path id="DejaVuSans-69" d="M 603 3500 
L 1178 3500 
L 1178 0 
L 603 0 
L 603 3500 
z
M 603 4863 
L 1178 4863 
L 1178 4134 
L 603 4134 
L 603 4863 
z
" transform="scale(0.015625)"/>
       <path id="DejaVuSans-6d" d="M 3328 2828 
Q 3544 3216 3844 3400 
Q 4144 3584 4550 3584 
Q 5097 3584 5394 3201 
Q 5691 2819 5691 2113 
L 5691 0 
L 5113 0 
L 5113 2094 
Q 5113 2597 4934 2840 
Q 4756 3084 4391 3084 
Q 3944 3084 3684 2787 
Q 3425 2491 3425 1978 
L 3425 0 
L 2847 0 
L 2847 2094 
Q 2847 2600 2669 2842 
Q 2491 3084 2119 3084 
Q 1678 3084 1418 2786 
Q 1159 2488 1159 1978 
L 1159 0 
L 581 0 
L 581 3500 
L 1159 3500 
L 1159 2956 
Q 1356 3278 1631 3431 
Q 1906 3584 2284 3584 
Q 2666 3584 2933 3390 
Q 3200 3197 3328 2828 
z
" transform="scale(0.015625)"/>
       <path id="DejaVuSans-65" d="M 3597 1894 
L 3597 1613 
L 953 1613 
Q 991 1019 1311 708 
Q 1631 397 2203 397 
Q 2534 397 2845 478 
Q 3156 559 3463 722 
L 3463 178 
Q 3153 47 2828 -22 
Q 2503 -91 2169 -91 
Q 1331 -91 842 396 
Q 353 884 353 1716 
Q 353 2575 817 3079 
Q 1281 3584 2069 3584 
Q 2775 3584 3186 3129 
Q 3597 2675 3597 1894 
z
M 3022 2063 
Q 3016 2534 2758 2815 
Q 2500 3097 2075 3097 
Q 1594 3097 1305 2825 
Q 1016 2553 972 2059 
L 3022 2063 
z
" transform="scale(0.015625)"/>
       <path id="DejaVuSans-20" transform="scale(0.015625)"/>
       <path id="DejaVuSans-6e" d="M 3513 2113 
L 3513 0 
L 2938 0 
L 2938 2094 
Q 2938 2591 2744 2837 
Q 2550 3084 2163 3084 
Q 1697 3084 1428 2787 
Q 1159 2491 1159 1978 
L 1159 0 
L 581 0 
L 581 3500 
L 1159 3500 
L 1159 2956 
Q 1366 3272 1645 3428 
Q 1925 3584 2291 3584 
Q 2894 3584 3203 3211 
Q 3513 2838 3513 2113 
z
" transform="scale(0.015625)"/>
       <path id="DejaVuSans-74" d="M 1172 4494 
L 1172 3500 
L 2356 3500 
L 2356 3053 
L 1172 3053 
L 1172 1153 
Q 1172 725 1289 603 
Q 1406 481 1766 481 
L 2356 481 
L 2356 0 
L 1766 0 
Q 1100 0 847 248 
Q 594 497 594 1153 
L 594 3053 
L 172 3053 
L 172 3500 
L 594 3500 
L 594 4494 
L 1172 4494 
z
" transform="scale(0.015625)"/>
       <path id="DejaVuSans-72" d="M 2631 2963 
Q 2534 3019 2420 3045 
Q 2306 3072 2169 3072 
Q 1681 3072 1420 2755 
Q 1159 2438 1159 1844 
L 1159 0 
L 581 0 
L 581 3500 
L 1159 3500 
L 1159 2956 
Q 1341 3275 1631 3429 
Q 1922 3584 2338 3584 
Q 2397 3584 2469 3576 
Q 2541 3569 2628 3553 
L 2631 2963 
z
" transform="scale(0.015625)"/>
       <path id="DejaVuSans-61" d="M 2194 1759 
Q 1497 1759 1228 1600 
Q 959 1441 959 1056 
Q 959 750 1161 570 
Q 1363 391 1709 391 
Q 2188 391 2477 730 
Q 2766 1069 2766 1631 
L 2766 1759 
L 2194 1759 
z
M 3341 1997 
L 3341 0 
L 2766 0 
L 2766 531 
Q 2569 213 2275 61 
Q 1981 -91 1556 -91 
Q 1019 -91 701 211 
Q 384 513 384 1019 
Q 384 1609 779 1909 
Q 1175 2209 1959 2209 
L 2766 2209 
L 2766 2266 
Q 2766 2663 2505 2880 
Q 2244 3097 1772 3097 
Q 1472 3097 1187 3025 
Q 903 2953 641 2809 
L 641 3341 
Q 956 3463 1253 3523 
Q 1550 3584 1831 3584 
Q 2591 3584 2966 3190 
Q 3341 2797 3341 1997 
z
" transform="scale(0.015625)"/>
       <path id="DejaVuSans-64" d="M 2906 2969 
L 2906 4863 
L 3481 4863 
L 3481 0 
L 2906 0 
L 2906 525 
Q 2725 213 2448 61 
Q 2172 -91 1784 -91 
Q 1150 -91 751 415 
Q 353 922 353 1747 
Q 353 2572 751 3078 
Q 1150 3584 1784 3584 
Q 2172 3584 2448 3432 
Q 2725 3281 2906 2969 
z
M 947 1747 
Q 947 1113 1208 752 
Q 1469 391 1925 391 
Q 2381 391 2643 752 
Q 2906 1113 2906 1747 
Q 2906 2381 2643 2742 
Q 2381 3103 1925 3103 
Q 1469 3103 1208 2742 
Q 947 2381 947 1747 
z
" transform="scale(0.015625)"/>
       <path id="DejaVuSans-67" d="M 2906 1791 
Q 2906 2416 2648 2759 
Q 2391 3103 1925 3103 
Q 1463 3103 1205 2759 
Q 947 2416 947 1791 
Q 947 1169 1205 825 
Q 1463 481 1925 481 
Q 2391 481 2648 825 
Q 2906 1169 2906 1791 
z
M 3481 434 
Q 3481 -459 3084 -895 
Q 2688 -1331 1869 -1331 
Q 1566 -1331 1297 -1286 
Q 1028 -1241 775 -1147 
L 775 -588 
Q 1028 -725 1275 -790 
Q 1522 -856 1778 -856 
Q 2344 -856 2625 -561 
Q 2906 -266 2906 331 
L 2906 616 
Q 2728 306 2450 153 
Q 2172 0 1784 0 
Q 1141 0 747 490 
Q 353 981 353 1791 
Q 353 2603 747 3093 
Q 1141 3584 1784 3584 
Q 2172 3584 2450 3431 
Q 2728 3278 2906 2969 
L 2906 3500 
L 3481 3500 
L 3481 434 
z
" transform="scale(0.015625)"/>
       <path id="DejaVuSans-79" d="M 2059 -325 
Q 1816 -950 1584 -1140 
Q 1353 -1331 966 -1331 
L 506 -1331 
L 506 -850 
L 844 -850 
Q 1081 -850 1212 -737 
Q 1344 -625 1503 -206 
L 1606 56 
L 191 3500 
L 800 3500 
L 1894 763 
L 2988 3500 
L 3597 3500 
L 2059 -325 
z
" transform="scale(0.015625)"/>
       <path id="DejaVuSans-73" d="M 2834 3397 
L 2834 2853 
Q 2591 2978 2328 3040 
Q 2066 3103 1784 3103 
Q 1356 3103 1142 2972 
Q 928 2841 928 2578 
Q 928 2378 1081 2264 
Q 1234 2150 1697 2047 
L 1894 2003 
Q 2506 1872 2764 1633 
Q 3022 1394 3022 966 
Q 3022 478 2636 193 
Q 2250 -91 1575 -91 
Q 1294 -91 989 -36 
Q 684 19 347 128 
L 347 722 
Q 666 556 975 473 
Q 1284 391 1588 391 
Q 1994 391 2212 530 
Q 2431 669 2431 922 
Q 2431 1156 2273 1281 
Q 2116 1406 1581 1522 
L 1381 1569 
Q 847 1681 609 1914 
Q 372 2147 372 2553 
Q 372 3047 722 3315 
Q 1072 3584 1716 3584 
Q 2034 3584 2315 3537 
Q 2597 3491 2834 3397 
z
" transform="scale(0.015625)"/>
      </defs>
      <use xlink:href="#DejaVuSans-54"/>
      <use xlink:href="#DejaVuSans-69" x="57.958984"/>
      <use xlink:href="#DejaVuSans-6d" x="85.742188"/>
      <use xlink:href="#DejaVuSans-65" x="183.154297"/>
      <use xlink:href="#DejaVuSans-20" x="244.677734"/>
      <use xlink:href="#DejaVuSans-69" x="276.464844"/>
      <use xlink:href="#DejaVuSans-6e" x="304.248047"/>
      <use xlink:href="#DejaVuSans-20" x="367.626953"/>
      <use xlink:href="#DejaVuSans-31" x="399.414062"/>
      <use xlink:href="#DejaVuSans-32" x="463.037109"/>
      <use xlink:href="#DejaVuSans-35" x="526.660156"/>
      <use xlink:href="#DejaVuSans-35" x="590.283203"/>
      <use xlink:href="#DejaVuSans-20" x="653.90625"/>
      <use xlink:href="#DejaVuSans-74" x="685.693359"/>
      <use xlink:href="#DejaVuSans-72" x="724.902344"/>
      <use xlink:href="#DejaVuSans-61" x="766.015625"/>
      <use xlink:href="#DejaVuSans-64" x="827.294922"/>
      <use xlink:href="#DejaVuSans-69" x="890.771484"/>
      <use xlink:href="#DejaVuSans-6e" x="918.554688"/>
      <use xlink:href="#DejaVuSans-67" x="981.933594"/>
      <use xlink:href="#DejaVuSans-20" x="1045.410156"/>
      <use xlink:href="#DejaVuSans-64" x="1077.197266"/>
      <use xlink:href="#DejaVuSans-61" x="1140.673828"/>
      <use xlink:href="#DejaVuSans-79" x="1201.953125"/>
      <use xlink:href="#DejaVuSans-73" x="1261.132812"/>
     </g>
    </g>
   </g>
   <g id="matplotlib.axis_2">
    <g id="ytick_1">
     <g id="line2d_11">
      <defs>
       <path id="m9585bbd359" d="M 0 0 
L -3.5 0 
" style="stroke: #000000; stroke-width: 0.8"/>
      </defs>
      <g>
       <use xlink:href="#m9585bbd359" x="90" y="461.504468" style="stroke: #000000; stroke-width: 0.8"/>
      </g>
     </g>
     <g id="text_12">
      <!-- $100 -->
      <g transform="translate(57.55 465.303687) scale(0.1 -0.1)">
       <defs>
        <path id="DejaVuSans-24" d="M 2163 -941 
L 1850 -941 
L 1847 0 
Q 1519 6 1191 76 
Q 863 147 531 288 
L 531 850 
Q 850 650 1176 548 
Q 1503 447 1850 444 
L 1850 1869 
Q 1159 1981 845 2250 
Q 531 2519 531 2988 
Q 531 3497 872 3790 
Q 1213 4084 1850 4128 
L 1850 4863 
L 2163 4863 
L 2163 4138 
Q 2453 4125 2725 4076 
Q 2997 4028 3256 3944 
L 3256 3397 
Q 2997 3528 2723 3600 
Q 2450 3672 2163 3684 
L 2163 2350 
Q 2872 2241 3206 1959 
Q 3541 1678 3541 1191 
Q 3541 663 3186 358 
Q 2831 53 2163 6 
L 2163 -941 
z
M 1850 2406 
L 1850 3688 
Q 1488 3647 1297 3481 
Q 1106 3316 1106 3041 
Q 1106 2772 1282 2622 
Q 1459 2472 1850 2406 
z
M 2163 1806 
L 2163 453 
Q 2559 506 2761 678 
Q 2963 850 2963 1131 
Q 2963 1406 2770 1568 
Q 2578 1731 2163 1806 
z
" transform="scale(0.015625)"/>
       </defs>
       <use xlink:href="#DejaVuSans-24"/>
       <use xlink:href="#DejaVuSans-31" x="63.623047"/>
       <use xlink:href="#DejaVuSans-30" x="127.246094"/>
       <use xlink:href="#DejaVuSans-30" x="190.869141"/>
      </g>
     </g>
    </g>
    <g id="ytick_2">
     <g id="line2d_12">
      <g>
       <use xlink:href="#m9585bbd359" x="90" y="383.920913" style="stroke: #000000; stroke-width: 0.8"/>
      </g>
     </g>
     <g id="text_13">
      <!-- $150 -->
      <g transform="translate(57.55 387.720132) scale(0.1 -0.1)">
       <use xlink:href="#DejaVuSans-24"/>
       <use xlink:href="#DejaVuSans-31" x="63.623047"/>
       <use xlink:href="#DejaVuSans-35" x="127.246094"/>
       <use xlink:href="#DejaVuSans-30" x="190.869141"/>
      </g>
     </g>
    </g>
    <g id="ytick_3">
     <g id="line2d_13">
      <g>
       <use xlink:href="#m9585bbd359" x="90" y="306.337358" style="stroke: #000000; stroke-width: 0.8"/>
      </g>
     </g>
     <g id="text_14">
      <!-- $200 -->
      <g transform="translate(57.55 310.136577) scale(0.1 -0.1)">
       <use xlink:href="#DejaVuSans-24"/>
       <use xlink:href="#DejaVuSans-32" x="63.623047"/>
       <use xlink:href="#DejaVuSans-30" x="127.246094"/>
       <use xlink:href="#DejaVuSans-30" x="190.869141"/>
      </g>
     </g>
    </g>
    <g id="ytick_4">
     <g id="line2d_14">
      <g>
       <use xlink:href="#m9585bbd359" x="90" y="228.753803" style="stroke: #000000; stroke-width: 0.8"/>
      </g>
     </g>
     <g id="text_15">
      <!-- $250 -->
      <g transform="translate(57.55 232.553022) scale(0.1 -0.1)">
       <use xlink:href="#DejaVuSans-24"/>
       <use xlink:href="#DejaVuSans-32" x="63.623047"/>
       <use xlink:href="#DejaVuSans-35" x="127.246094"/>
       <use xlink:href="#DejaVuSans-30" x="190.869141"/>
      </g>
     </g>
    </g>
    <g id="ytick_5">
     <g id="line2d_15">
      <g>
       <use xlink:href="#m9585bbd359" x="90" y="151.170248" style="stroke: #000000; stroke-width: 0.8"/>
      </g>
     </g>
     <g id="text_16">
      <!-- $300 -->
      <g transform="translate(57.55 154.969467) scale(0.1 -0.1)">
       <use xlink:href="#DejaVuSans-24"/>
       <use xlink:href="#DejaVuSans-33" x="63.623047"/>
       <use xlink:href="#DejaVuSans-30" x="127.246094"/>
       <use xlink:href="#DejaVuSans-30" x="190.869141"/>
      </g>
     </g>
    </g>
    <g id="ytick_6">
     <g id="line2d_16">
      <g>
       <use xlink:href="#m9585bbd359" x="90" y="73.586693" style="stroke: #000000; stroke-width: 0.8"/>
      </g>
     </g>
     <g id="text_17">
      <!-- $350 -->
      <g transform="translate(57.55 77.385912) scale(0.1 -0.1)">
       <use xlink:href="#DejaVuSans-24"/>
       <use xlink:href="#DejaVuSans-33" x="63.623047"/>
       <use xlink:href="#DejaVuSans-35" x="127.246094"/>
       <use xlink:href="#DejaVuSans-30" x="190.869141"/>
      </g>
     </g>
    </g>
   </g>
   <g id="line2d_17">
    <path d="M 622.636364 245.465301 
L 622.23184 246.582504 
L 621.827316 250.834083 
L 621.422793 261.571647 
L 620.613745 267.654198 
L 620.209221 271.719576 
L 619.804698 261.183729 
L 619.400174 244.922216 
L 618.99565 244.549815 
L 618.591127 242.703326 
L 618.186603 252.758155 
L 617.377555 246.241136 
L 616.973032 247.079039 
L 616.568508 237.396611 
L 616.163984 241.477506 
L 615.759461 243.572262 
L 614.950413 230.289957 
L 614.54589 217.550738 
L 614.141366 218.016239 
L 613.736842 224.859109 
L 613.332318 235.860457 
L 612.927795 232.788148 
L 612.523271 237.489711 
L 612.118747 236.325958 
L 611.3097 220.964414 
L 610.905176 221.476466 
L 610.500652 220.778214 
L 610.096129 243.758463 
L 609.691605 241.539573 
L 609.287081 232.648497 
L 608.882558 232.508847 
L 608.07351 241.089588 
L 607.668987 242.377475 
L 607.264463 241.663707 
L 606.859939 241.586123 
L 606.050892 242.916817 
L 605.646368 234.313726 
L 605.241844 240.704152 
L 604.837321 269.283123 
L 604.432797 262.536814 
L 604.028273 264.084133 
L 603.219226 285.158609 
L 602.814702 276.106797 
L 602.410178 263.619937 
L 601.601131 251.705585 
L 601.196607 265.817129 
L 600.792084 258.745884 
L 600.38756 228.820746 
L 599.983036 234.097102 
L 599.173989 251.272336 
L 598.769465 250.761721 
L 598.364941 247.636138 
L 597.960418 249.137037 
L 597.555894 263.016483 
L 597.15137 254.227714 
L 596.746846 267.364448 
L 596.342323 267.890536 
L 595.937799 261.948833 
L 595.533275 254.227714 
L 595.128752 234.808868 
L 594.724228 231.079831 
L 594.319704 231.574973 
L 593.510657 256.301121 
L 592.701609 243.65953 
L 592.297086 250.870033 
L 591.892562 249.260822 
L 591.488038 248.533583 
L 591.083515 243.798788 
L 590.678991 246.939845 
L 590.274467 241.52423 
L 589.869943 238.321281 
L 589.46542 237.980871 
L 589.060896 236.990587 
L 588.656372 226.406929 
L 588.251849 226.762813 
L 587.847325 204.079125 
L 587.442801 207.467752 
L 587.038278 216.658823 
L 586.633754 217.32417 
L 586.22923 224.813191 
L 585.824706 220.465227 
L 585.420183 213.749865 
L 585.015659 212.094234 
L 584.611135 209.773257 
L 583.802088 201.850986 
L 583.397564 185.20184 
L 582.99304 189.936635 
L 582.588517 188.930878 
L 582.183993 186.90389 
L 581.779469 173.906416 
L 581.374946 167.686196 
L 580.970422 165.90678 
L 580.161375 163.54441 
L 579.756851 165.953101 
L 579.352327 173.503419 
L 578.947803 170.19919 
L 578.54328 180.791251 
L 578.138756 183.848435 
L 577.734232 179.849392 
L 577.329709 178.706808 
L 576.925185 180.528766 
L 576.520661 192.340613 
L 575.711614 183.199942 
L 575.30709 189.885602 
L 574.902566 201.72833 
L 574.498043 227.729834 
L 574.093519 217.02969 
L 573.688995 214.667321 
L 573.284472 207.750056 
L 572.475424 215.948867 
L 572.0709 224.101358 
L 571.666377 220.287598 
L 571.261853 224.363844 
L 570.857329 226.463728 
L 570.452806 224.996897 
L 570.048282 208.259586 
L 569.643758 203.395885 
L 569.239234 202.253301 
L 568.834711 205.634732 
L 567.62114 220.117755 
L 567.216616 214.821724 
L 566.812092 220.658166 
L 566.407569 207.672854 
L 566.003045 203.334123 
L 565.598521 216.983369 
L 565.193997 225.830674 
L 564.789474 224.888815 
L 564.38495 234.291972 
L 563.980426 238.429978 
L 563.575903 227.945999 
L 563.171379 239.171114 
L 562.766855 242.614306 
L 561.957808 207.827257 
L 561.553284 199.149796 
L 561.14876 195.922768 
L 560.744237 201.712889 
L 560.339713 199.751968 
L 559.935189 192.711181 
L 559.530666 196.046291 
L 559.126142 196.895509 
L 558.721618 194.780184 
L 558.317094 206.113382 
L 557.508047 215.809905 
L 557.103523 214.219551 
L 556.699 226.710773 
L 556.294476 225.815234 
L 555.889952 224.363844 
L 555.485428 205.695725 
L 555.080905 213.889982 
L 554.676381 214.475286 
L 554.271857 223.362666 
L 553.867334 215.353242 
L 553.46281 201.567792 
L 553.058286 209.145939 
L 552.653763 193.51216 
L 552.249239 189.476642 
L 551.844715 170.022984 
L 551.440191 182.653229 
L 551.035668 178.509893 
L 550.631144 189.214796 
L 550.22662 170.56208 
L 549.822097 180.435235 
L 549.417573 200.458794 
L 549.013049 184.28592 
L 548.608525 194.590351 
L 547.799478 175.598775 
L 547.394954 177.231466 
L 546.990431 184.593974 
L 546.585907 185.656763 
L 546.181383 173.65803 
L 545.77686 182.221953 
L 545.372336 177.293077 
L 544.967812 159.256471 
L 544.563288 152.479266 
L 544.158765 155.359578 
L 543.754241 137.831262 
L 543.349717 131.531542 
L 542.945194 140.080062 
L 542.54067 141.789766 
L 542.136146 133.241246 
L 541.731622 130.853822 
L 541.327099 138.108511 
L 540.922575 148.921233 
L 540.518051 148.274318 
L 540.113528 155.374981 
L 539.709004 148.335929 
L 539.30448 155.883271 
L 538.899957 153.927123 
L 538.495433 161.95195 
L 538.090909 163.230377 
L 537.686385 174.381959 
L 537.281862 190.878291 
L 536.877338 185.287098 
L 536.472814 176.784786 
L 536.068291 172.30259 
L 535.663767 191.787053 
L 535.259243 187.073815 
L 534.854719 170.207817 
L 534.450196 160.873758 
L 534.045672 154.296789 
L 533.641148 162.367824 
L 533.236625 156.453172 
L 532.832101 158.732777 
L 532.427577 162.922322 
L 532.023054 184.979043 
L 531.61853 173.504003 
L 531.214006 173.180546 
L 530.809482 168.867779 
L 530.404959 155.359578 
L 530.000435 154.821596 
L 529.595911 163.229488 
L 529.191388 163.168004 
L 528.38234 138.313229 
L 527.977816 148.53489 
L 527.573293 154.083792 
L 527.168769 146.413703 
L 526.764245 153.622664 
L 526.359722 134.854773 
L 525.955198 142.079104 
L 525.550674 138.666761 
L 525.146151 142.84765 
L 524.741627 155.789964 
L 524.337103 160.601061 
L 523.932579 173.235956 
L 523.528056 161.123672 
L 523.123532 161.646283 
L 522.719008 153.084682 
L 522.314485 150.425513 
L 521.909961 151.470736 
L 521.505437 139.865692 
L 521.100913 148.165988 
L 520.69639 127.461361 
L 520.291866 132.518393 
L 519.887342 133.609728 
L 519.078295 134.209194 
L 518.673771 130.366465 
L 518.269247 110.952995 
L 517.864724 102.130088 
L 517.4602 99.716854 
L 516.651153 91.063027 
L 516.246629 92.138991 
L 515.842105 90.294481 
L 515.437582 102.222313 
L 515.033058 104.51258 
L 514.22401 124.94053 
L 513.819487 118.961243 
L 513.414963 117.270442 
L 513.010439 102.283797 
L 512.605916 111.982846 
L 512.201392 94.982611 
L 511.796868 90.156142 
L 511.392344 104.666289 
L 510.987821 101.791928 
L 510.583297 101.868782 
L 510.178773 115.287594 
L 509.77425 120.175546 
L 509.369726 110.215191 
L 508.560679 108.52439 
L 508.156155 99.240355 
L 507.751631 109.923143 
L 507.347107 97.272878 
L 506.942584 97.626409 
L 506.53806 94.321661 
L 506.133536 89.28 
L 505.324489 95.412996 
L 504.919965 95.765882 
L 504.515441 101.043829 
L 504.110918 100.046542 
L 503.706394 106.628633 
L 503.30187 109.12952 
L 502.897347 101.227943 
L 502.492823 99.632285 
L 502.088299 101.059172 
L 501.683776 100.476143 
L 501.279252 104.219802 
L 500.874728 105.554632 
L 500.470204 111.32355 
L 500.065681 107.871405 
L 499.661157 119.02567 
L 499.256633 120.836128 
L 498.85211 140.873913 
L 498.447586 143.911801 
L 498.043062 142.331485 
L 497.638538 139.876627 
L 497.234015 145.016487 
L 496.829491 143.758372 
L 496.424967 145.200602 
L 496.020444 149.926205 
L 495.61592 152.166263 
L 495.211396 162.04707 
L 494.806873 167.309674 
L 494.402349 165.238387 
L 493.997825 164.287129 
L 493.593301 164.287129 
L 493.188778 166.956788 
L 492.784254 173.630935 
L 492.37973 182.299655 
L 491.975207 173.109278 
L 491.570683 184.125457 
L 491.166159 180.93414 
L 490.761635 181.670598 
L 490.357112 165.330444 
L 489.952588 157.382838 
L 489.548064 157.060638 
L 489.143541 158.564239 
L 488.739017 164.363843 
L 488.334493 165.130987 
L 487.525446 148.376575 
L 487.120922 148.99029 
L 486.716398 156.707752 
L 486.311875 161.003755 
L 485.907351 162.967642 
L 485.502827 160.604841 
L 485.098304 156.063352 
L 484.69378 156.10938 
L 484.289256 154.636465 
L 483.884732 154.621122 
L 483.480209 153.577807 
L 483.075685 153.501093 
L 482.671161 150.877463 
L 482.266638 156.815152 
L 481.862114 157.781753 
L 481.45759 153.301636 
L 481.053067 152.365721 
L 480.648543 149.251119 
L 480.244019 149.696062 
L 479.434972 170.60839 
L 478.625924 165.539664 
L 478.221401 168.219504 
L 477.412353 177.254393 
L 477.007829 178.035375 
L 476.603306 175.141148 
L 476.198782 173.410737 
L 475.794258 173.318857 
L 475.389735 177.928182 
L 474.985211 176.994066 
L 474.580687 180.516141 
L 474.176164 180.378321 
L 473.77164 177.943495 
L 473.367116 178.372269 
L 472.962592 177.882242 
L 472.558069 174.038585 
L 472.153545 173.089156 
L 471.749021 178.494776 
L 471.344498 185.753314 
L 470.53545 192.475884 
L 470.130926 186.748683 
L 469.726403 186.319909 
L 469.321879 184.05353 
L 468.917355 186.396476 
L 468.512832 192.00117 
L 468.108308 191.051741 
L 467.703784 191.848036 
L 467.299261 188.00438 
L 466.894737 191.480515 
L 466.490213 191.495828 
L 466.085689 200.760418 
L 465.681166 201.832354 
L 465.276642 201.066685 
L 464.872118 205.170669 
L 464.467595 210.836616 
L 464.063071 208.279283 
L 463.658547 210.446125 
L 463.254023 210.086261 
L 462.444976 219.396791 
L 462.040452 217.145725 
L 461.635929 222.536032 
L 461.231405 221.035321 
L 460.826881 218.692376 
L 460.422358 221.75505 
L 460.017834 222.750419 
L 459.61331 228.339799 
L 459.208786 229.901763 
L 458.804263 228.002905 
L 458.399739 232.627543 
L 457.995215 240.406736 
L 457.590692 237.97191 
L 457.186168 237.818776 
L 456.781644 234.327328 
L 456.37712 234.893922 
L 455.972597 231.555607 
L 455.568073 231.2034 
L 455.163549 232.642857 
L 454.759026 241.233658 
L 454.354502 239.227606 
L 453.949978 244.372899 
L 453.545455 245.28959 
L 453.140931 242.081172 
L 452.736407 237.543553 
L 451.92736 251.523087 
L 451.522836 240.476963 
L 451.118312 239.025536 
L 450.713789 230.958657 
L 449.904741 240.110287 
L 449.500217 238.093567 
L 449.095694 231.875348 
L 448.286646 230.882267 
L 447.882123 227.75024 
L 447.477599 216.429109 
L 446.668552 217.681919 
L 446.264028 223.762635 
L 445.859504 218.552776 
L 445.45498 222.097313 
L 445.050457 221.363961 
L 444.645933 218.308325 
L 444.241409 220.202819 
L 443.836886 226.176587 
L 443.432362 221.745915 
L 443.027838 225.687685 
L 442.623314 225.779355 
L 442.218791 229.751681 
L 441.814267 234.869871 
L 441.409743 237.98662 
L 441.00522 236.13796 
L 440.196172 256.457939 
L 439.791649 262.446985 
L 439.387125 257.267683 
L 438.982601 255.373188 
L 438.578077 261.698355 
L 438.173554 256.931563 
L 437.76903 253.692589 
L 437.364506 256.121819 
L 436.959983 264.738712 
L 436.555459 264.17342 
L 436.150935 254.51761 
L 435.746411 253.493972 
L 435.341888 257.924644 
L 434.937364 256.488495 
L 434.53284 254.380107 
L 434.128317 261.576129 
L 433.723793 259.498297 
L 433.319269 269.261054 
L 432.914746 262.82894 
L 432.510222 270.269413 
L 432.105698 269.001324 
L 431.701174 259.360793 
L 431.296651 254.670392 
L 430.487603 266.816545 
L 430.08308 258.321877 
L 429.678556 260.277484 
L 429.274032 258.38299 
L 428.869508 248.513286 
L 428.464985 244.204839 
L 428.060461 243.578434 
L 427.655937 245.194215 
L 427.251414 243.22784 
L 426.84689 243.990001 
L 426.442366 246.535619 
L 426.037843 245.087513 
L 425.633319 247.069132 
L 424.824271 247.77032 
L 424.419748 246.261241 
L 424.015224 251.581126 
L 423.6107 251.367721 
L 423.206177 263.08976 
L 422.801653 252.465233 
L 422.397129 261.656897 
L 421.992605 262.525761 
L 421.588082 266.793863 
L 421.183558 272.250938 
L 420.779034 273.744774 
L 420.374511 274.705097 
L 419.969987 286.747243 
L 419.565463 292.524425 
L 419.16094 291.960426 
L 418.756416 286.899676 
L 418.351892 289.04897 
L 417.542845 281.899898 
L 417.138321 283.927247 
L 416.733797 293.134154 
L 416.329274 284.521733 
L 415.92475 284.84184 
L 415.520226 277.631796 
L 415.115702 278.759794 
L 414.711179 274.994718 
L 414.306655 273.760017 
L 413.497608 279.765847 
L 413.093084 275.314826 
L 412.68856 277.372661 
L 412.284037 283.46995 
L 411.879513 282.204763 
L 411.474989 282.418168 
L 411.070465 290.268428 
L 410.665942 290.161726 
L 410.261418 291.594589 
L 409.856894 295.771232 
L 409.452371 293.820099 
L 409.047847 287.402702 
L 408.643323 290.024537 
L 408.238799 289.917834 
L 407.834276 290.100753 
L 407.025228 287.097838 
L 406.620705 290.359887 
L 406.216181 288.591673 
L 405.811657 290.664752 
L 405.407134 290.679995 
L 405.00261 296.396204 
L 404.598086 295.969394 
L 404.193562 292.875019 
L 403.789039 294.917611 
L 402.979991 286.419196 
L 402.575468 287.513804 
L 402.170944 289.140513 
L 401.76642 287.452992 
L 401.361896 295.875393 
L 400.957373 284.65566 
L 400.552849 276.55252 
L 400.148325 277.206244 
L 399.743802 287.696239 
L 399.339278 302.838317 
L 398.934754 309.071502 
L 398.530231 308.858662 
L 398.125707 305.438011 
L 397.721183 308.539401 
L 397.316659 292.469946 
L 396.912136 297.289262 
L 396.507612 287.939485 
L 396.103088 289.976672 
L 395.294041 290.341541 
L 394.889517 290.995266 
L 394.484993 282.724893 
L 394.08047 282.724893 
L 393.675946 280.900547 
L 393.271422 277.859969 
L 392.866899 280.079591 
L 392.057851 296.529118 
L 391.653328 297.669334 
L 391.248804 303.628867 
L 390.84428 296.833175 
L 390.439756 303.203186 
L 390.035233 293.670974 
L 389.630709 296.90919 
L 389.226185 301.576477 
L 388.821662 298.262247 
L 388.417138 300.725115 
L 388.012614 307.764053 
L 387.60809 311.716805 
L 387.203567 301.333231 
L 386.799043 308.752241 
L 386.394519 312.020863 
L 385.585472 304.936316 
L 385.180948 299.265638 
L 384.776425 304.389012 
L 384.371901 306.487011 
L 383.967377 304.449823 
L 383.562853 295.449712 
L 383.15833 308.569807 
L 382.753806 290.949657 
L 382.349282 286.312776 
L 381.944759 264.496628 
L 381.540235 271.155494 
L 381.135711 273.800797 
L 380.731187 268.66222 
L 380.326664 272.204493 
L 379.517616 287.574615 
L 379.113093 291.801019 
L 378.708569 292.819612 
L 378.304045 290.447962 
L 377.899522 297.866972 
L 377.494998 295.925723 
L 376.68595 299.853719 
L 376.281427 300.157039 
L 375.876903 299.413905 
L 375.472379 308.225354 
L 374.663332 294.424289 
L 374.258808 288.555044 
L 373.854284 293.726652 
L 373.449761 293.195842 
L 373.045237 288.26689 
L 372.640713 305.753295 
L 372.23619 307.436722 
L 371.831666 307.194066 
L 371.427142 310.287931 
L 371.022619 307.512552 
L 370.618095 311.379883 
L 370.213571 309.499298 
L 369.809047 295.531407 
L 369.404524 300.081209 
L 369 295.758897 
L 368.595476 308.983654 
L 368.190953 307.40639 
L 367.786429 301.157995 
L 367.381905 300.687849 
L 366.977381 302.629098 
L 366.572858 292.619534 
L 366.168334 291.633744 
L 365.76381 293.893479 
L 365.359287 300.839509 
L 364.954763 297.123838 
L 364.550239 303.857544 
L 363.741192 308.028196 
L 363.336668 315.717361 
L 362.932144 318.917388 
L 362.527621 312.83582 
L 362.123097 316.627321 
L 361.718573 310.454757 
L 361.31405 312.487002 
L 360.909526 320.706977 
L 360.505002 318.932554 
L 360.100478 322.087083 
L 359.695955 323.103206 
L 359.291431 330.125066 
L 358.482384 334.17439 
L 358.07786 318.143922 
L 357.673336 328.82079 
L 356.864289 332.763951 
L 356.459765 339.255002 
L 356.055241 335.554496 
L 355.650718 336.236966 
L 355.246194 339.391496 
L 354.84167 338.754523 
L 354.437147 341.560235 
L 354.032623 340.938428 
L 353.628099 341.302412 
L 353.223575 338.360207 
L 352.819052 338.481535 
L 352.414528 335.099516 
L 352.010004 338.941129 
L 351.605481 337.005198 
L 351.200957 339.651978 
L 350.796433 343.629711 
L 350.39191 344.809419 
L 349.987386 340.635068 
L 349.582862 334.237422 
L 349.178338 337.353061 
L 348.369291 340.589695 
L 347.560244 346.185745 
L 347.15572 352.643889 
L 346.751196 345.62614 
L 346.346672 348.318294 
L 345.942149 359.843132 
L 345.537625 353.430361 
L 345.133101 352.674138 
L 344.728578 357.408094 
L 344.324054 354.231957 
L 343.91953 362.852899 
L 343.515007 351.902791 
L 343.110483 346.548732 
L 342.705959 348.908148 
L 342.301435 356.712369 
L 341.896912 353.959717 
L 341.492388 366.346649 
L 341.087864 366.906254 
L 340.683341 366.921379 
L 340.278817 369.40179 
L 339.874293 366.709636 
L 339.469769 384.012018 
L 339.065246 381.84922 
L 338.660722 386.613425 
L 338.256198 378.143728 
L 337.851675 374.332364 
L 337.447151 390.25842 
L 337.042627 380.563641 
L 336.638104 394.46302 
L 336.23358 392.315346 
L 335.829056 411.009178 
L 335.424532 408.937127 
L 335.020009 400.830417 
L 334.615485 404.324167 
L 334.210961 394.992376 
L 333.806438 411.856148 
L 333.401914 376.449788 
L 332.99739 406.350845 
L 332.592866 384.314507 
L 332.188343 373.288776 
L 331.783819 388.86697 
L 331.379295 372.305686 
L 330.570248 358.723922 
L 330.165724 367.859095 
L 329.761201 355.336043 
L 329.356677 371.64021 
L 328.952153 377.432878 
L 328.547629 359.298651 
L 328.143106 362.474788 
L 327.738582 358.20969 
L 326.929535 337.746296 
L 326.525011 333.420701 
L 326.120487 334.265371 
L 325.31144 339.574722 
L 324.906916 338.066383 
L 324.502392 338.473635 
L 324.097869 332.048113 
L 323.693345 339.303221 
L 323.288821 339.695389 
L 322.884298 345.321491 
L 322.479774 344.989657 
L 322.07525 353.64752 
L 321.670726 359.907124 
L 321.266203 356.060861 
L 320.861679 363.210385 
L 320.052632 371.898415 
L 319.648108 367.735401 
L 319.243584 365.201392 
L 318.83906 366.739897 
L 318.030013 364.628224 
L 317.625489 366.030978 
L 317.220966 370.54091 
L 316.816442 372.124666 
L 316.411918 370.390076 
L 316.007395 373.316253 
L 315.602871 372.184999 
L 314.793823 378.987606 
L 314.3893 376.800515 
L 313.984776 377.418934 
L 313.580252 374.402257 
L 313.175729 378.806605 
L 312.771205 378.972522 
L 312.366681 376.906099 
L 311.962157 377.343517 
L 311.557634 379.289273 
L 310.748586 379.244023 
L 309.939539 383.829372 
L 309.535015 383.346704 
L 309.130492 382.079699 
L 308.725968 383.588038 
L 307.91692 387.856636 
L 307.512397 388.716389 
L 307.107873 388.369471 
L 306.703349 387.781219 
L 306.298826 390.526395 
L 305.894302 390.647062 
L 305.489778 391.461565 
L 305.085254 391.099563 
L 304.680731 388.339304 
L 304.276207 386.921466 
L 303.871683 387.358884 
L 303.46716 388.565555 
L 303.062636 391.03923 
L 302.658112 391.205147 
L 302.253589 390.99398 
L 301.849065 390.603144 
L 301.444541 390.678305 
L 301.040017 391.234494 
L 300.635494 394.105634 
L 300.23097 395.233045 
L 299.826446 395.593816 
L 299.421923 397.036902 
L 299.017399 397.262384 
L 298.612875 399.817849 
L 298.208351 400.118492 
L 297.803828 399.517206 
L 297.399304 399.381917 
L 296.99478 400.629585 
L 296.590257 401.15571 
L 296.185733 399.291724 
L 295.781209 401.967446 
L 295.376686 399.923074 
L 294.972162 405.124196 
L 294.567638 406.311736 
L 294.163114 410.370415 
L 293.758591 411.678212 
L 293.354067 408.58159 
L 292.949543 410.114869 
L 292.54502 406.687539 
L 292.140496 405.605225 
L 291.735972 403.861496 
L 291.331448 406.897989 
L 290.926925 406.702572 
L 290.522401 407.574436 
L 290.117877 408.867201 
L 289.713354 412.730462 
L 289.30883 410.550801 
L 288.904306 409.047586 
L 288.095259 414.263741 
L 287.286211 407.679661 
L 286.881688 409.63384 
L 286.477164 406.913022 
L 286.07264 407.1836 
L 285.668117 410.159965 
L 285.263593 407.514307 
L 284.859069 407.063343 
L 284.454545 404.613103 
L 284.050022 408.4463 
L 283.240974 411.73834 
L 282.836451 410.250158 
L 282.431927 409.949515 
L 282.027403 412.054015 
L 281.62288 412.114144 
L 280.409308 406.146382 
L 280.004785 409.784161 
L 279.600261 412.174273 
L 279.195737 409.438422 
L 278.791214 409.047586 
L 278.38669 412.895815 
L 277.982166 412.625237 
L 277.577642 413.061169 
L 277.173119 416.157791 
L 276.768595 409.558679 
L 276.364071 408.040433 
L 275.959548 410.340351 
L 275.555024 408.611654 
L 274.745977 415.721859 
L 274.341453 415.270894 
L 273.936929 409.038919 
L 273.532405 413.248498 
L 273.127882 410.372202 
L 272.723358 408.604478 
L 272.318834 414.012515 
L 271.914311 414.896377 
L 271.509787 418.611593 
L 271.105263 411.585639 
L 270.700739 409.847877 
L 270.296216 412.529424 
L 269.891692 406.417294 
L 269.487168 405.398606 
L 269.082645 404.934204 
L 268.678121 406.656985 
L 268.273597 405.863008 
L 267.869074 408.005249 
L 267.46455 409.293591 
L 267.060026 412.005099 
L 266.250979 412.529424 
L 265.846455 411.315987 
L 265.441931 408.589497 
L 265.037408 408.589497 
L 264.22836 410.162472 
L 263.823836 412.244791 
L 263.419313 411.495755 
L 263.014789 411.345948 
L 262.610265 410.74672 
L 261.801218 413.413286 
L 261.396694 415.989969 
L 260.992171 415.705335 
L 260.587647 416.034911 
L 260.183123 416.783946 
L 259.778599 410.267337 
L 259.374076 411.480774 
L 258.969552 411.510736 
L 258.565028 413.398306 
L 258.160505 414.192283 
L 257.755981 417.652828 
L 257.351457 418.252056 
L 256.946933 418.446805 
L 256.54241 419.690204 
L 255.733362 418.027345 
L 255.328839 419.825031 
L 254.924315 425.188125 
L 254.519791 428.169287 
L 253.710744 437.142733 
L 253.30622 431.39014 
L 252.901696 428.319094 
L 252.497173 429.50257 
L 252.092649 427.674923 
L 251.688125 427.555078 
L 251.283602 427.644962 
L 250.879078 425.412836 
L 250.07003 427.585039 
L 249.665507 424.813608 
L 249.260983 423.525266 
L 248.856459 427.884653 
L 248.047412 432.556563 
L 247.642888 426.914449 
L 247.238365 429.347424 
L 246.429317 429.317571 
L 246.024793 425.391973 
L 245.62027 424.272506 
L 245.215746 428.287662 
L 244.811222 425.794982 
L 244.406699 421.735048 
L 244.002175 422.973925 
L 243.597651 422.79481 
L 243.193127 423.899351 
L 242.788604 430.078809 
L 242.38408 429.436981 
L 241.979556 431.944587 
L 241.575033 432.52671 
L 241.170509 434.914907 
L 240.765985 436.407529 
L 240.361462 435.989595 
L 239.956938 436.138857 
L 239.552414 437.064283 
L 239.14789 437.273251 
L 238.743367 438.631537 
L 238.338843 437.661332 
L 237.934319 437.721037 
L 237.529796 438.512127 
L 237.125272 437.601628 
L 236.720748 438.765873 
L 236.316224 439.019619 
L 235.507177 442.139201 
L 235.102653 442.37802 
L 234.69813 440.67643 
L 234.293606 441.049586 
L 233.889082 441.960086 
L 233.484559 437.228472 
L 233.080035 441.258553 
L 232.675511 441.064512 
L 232.270987 441.183922 
L 231.46194 445.631938 
L 231.057416 445.766274 
L 230.248369 448.258954 
L 229.843845 451.721839 
L 229.439321 451.900953 
L 229.034798 449.870986 
L 228.630274 449.945618 
L 228.22575 449.109749 
L 227.821227 448.706741 
L 227.416703 449.453052 
L 226.607656 448.960487 
L 225.798608 451.035232 
L 225.394084 453.363724 
L 224.989561 456.737051 
L 224.585037 455.904755 
L 224.180513 455.830443 
L 223.77599 457.792283 
L 223.371466 457.926045 
L 222.966942 457.807146 
L 222.562418 460.244583 
L 222.157895 459.620361 
L 221.753371 460.214858 
L 221.348847 459.085314 
L 220.944324 457.316686 
L 220.5398 459.516324 
L 220.135276 463.915601 
L 219.326229 458.565129 
L 218.921705 463.677802 
L 218.112658 457.390998 
L 217.708134 458.832653 
L 217.30361 458.074669 
L 216.899087 459.605499 
L 216.494563 456.588427 
L 216.090039 458.951552 
L 215.685515 460.051371 
L 215.280992 460.601281 
L 214.876468 465.000558 
L 213.662897 461.7011 
L 213.258373 463.885876 
L 212.853849 464.985696 
L 212.449326 465.178907 
L 212.044802 471.911584 
L 211.640278 466.382763 
L 211.235755 465.713954 
L 210.831231 467.46772 
L 210.426707 466.293589 
L 210.022184 467.215059 
L 209.61766 476.771596 
L 208.808612 465.803129 
L 208.404089 462.563121 
L 207.999565 462.146973 
L 207.595041 463.752114 
L 206.785994 454.002365 
L 205.976946 455.280534 
L 205.572423 456.766776 
L 205.167899 460.883667 
L 204.763375 454.388788 
L 204.358852 455.384571 
L 203.954328 450.078686 
L 203.549804 451.862177 
L 203.145281 452.902546 
L 202.740757 451.520341 
L 202.336233 457.435585 
L 201.931709 458.431367 
L 201.527186 463.484591 
L 201.122662 463.425141 
L 200.718138 465.50588 
L 199.909091 455.726406 
L 199.504567 457.227511 
L 199.100043 460.660731 
L 198.69552 458.426297 
L 198.290996 458.52988 
L 197.481949 451.308662 
L 197.077425 450.997913 
L 196.672901 457.272086 
L 196.268378 457.582835 
L 195.863854 459.580508 
L 195.45933 459.935649 
L 195.054806 458.618665 
L 194.650283 463.176319 
L 194.245759 462.998748 
L 193.841235 458.396701 
L 193.436712 456.413826 
L 193.032188 465.262777 
L 192.627664 456.709778 
L 192.22314 454.445749 
L 191.818617 455.881113 
L 191.414093 456.117875 
L 191.009569 452.84761 
L 190.605046 452.418481 
L 190.200522 457.449657 
L 189.795998 454.534534 
L 189.391475 459.950447 
L 188.986951 459.580508 
L 188.582427 450.553986 
L 188.177903 452.640444 
L 187.77338 450.746354 
L 187.368856 449.769714 
L 186.964332 446.247891 
L 186.559809 446.277486 
L 186.155285 445.596798 
L 185.750761 447.431697 
L 185.346237 447.372507 
L 184.941714 448.008803 
L 184.53719 447.313317 
L 184.132666 446.98777 
L 183.728143 447.594471 
L 183.323619 448.615503 
L 182.919095 451.38265 
L 182.514572 449.148216 
L 182.110048 450.731557 
L 181.705524 448.911455 
L 181.301 449.592144 
L 180.896477 451.367853 
L 180.491953 452.063339 
L 180.087429 454.815688 
L 179.682906 456.547004 
L 179.278382 455.762733 
L 178.873858 456.132672 
L 178.469334 451.367853 
L 178.064811 450.450403 
L 177.660287 451.012711 
L 177.255763 450.909128 
L 176.85124 453.513501 
L 176.446716 454.490141 
L 176.042192 456.26585 
L 175.637669 457.508847 
L 175.233145 458.248726 
L 174.828621 459.846864 
L 174.019574 457.479252 
L 173.210526 457.360871 
L 172.806003 455.17934 
L 172.401479 457.16925 
L 171.592431 455.0172 
L 171.187908 455.282521 
L 170.37886 457.287171 
L 169.974337 457.419831 
L 169.569813 458.112615 
L 169.165289 460.014084 
L 168.760766 460.308886 
L 168.356242 461.355431 
L 167.547194 455.0909 
L 167.142671 453.307351 
L 166.738147 457.979954 
L 166.333623 457.523012 
L 165.524576 462.785218 
L 164.715528 460.500507 
L 164.311005 462.033474 
L 163.906481 461.26699 
L 163.501957 463.094759 
L 163.097434 466.352316 
L 162.69291 466.145955 
L 162.288386 466.543936 
L 161.883863 467.561002 
L 161.479339 469.624612 
L 161.074815 470.671157 
L 160.670291 469.25611 
L 160.265768 471.31972 
L 159.861244 471.29024 
L 159.45672 472.896908 
L 159.052197 470.626937 
L 158.647673 471.644002 
L 158.243149 468.666507 
L 157.434102 466.514456 
L 157.029578 468.003204 
L 156.625054 468.003204 
L 156.220531 469.079229 
L 155.816007 467.17776 
L 155.411483 468.017944 
L 155.00696 467.3399 
L 154.602436 467.723142 
L 154.197912 466.868218 
L 153.793388 467.973724 
L 153.388865 465.600572 
L 152.984341 466.042774 
L 152.579817 466.809258 
L 152.175294 468.106384 
L 151.77077 470.980698 
L 151.366246 470.818558 
L 150.961722 472.204124 
L 150.557199 471.688222 
L 150.152675 471.761922 
L 149.748151 471.24602 
L 149.343628 472.955868 
L 148.939104 472.808467 
L 148.53458 474.636236 
L 148.130057 474.901558 
L 147.725533 473.471771 
L 147.321009 473.838686 
L 146.916485 472.796646 
L 146.511962 473.280975 
L 146.107438 472.972766 
L 145.298391 476.054856 
L 144.893867 475.453115 
L 144.084819 478.608589 
L 143.680296 479.43048 
L 143.275772 477.243663 
L 142.871248 479.415803 
L 142.466725 476.04018 
L 141.657677 481.191674 
L 141.253154 480.002868 
L 140.84863 476.729981 
L 140.444106 477.243663 
L 140.039582 475.614558 
L 139.635059 475.130229 
L 139.230535 475.673264 
L 138.826011 478.461822 
L 138.421488 480.061574 
L 138.016964 479.327743 
L 137.61244 481.852122 
L 137.207916 480.355107 
L 136.803393 483.451874 
L 136.398869 484.244412 
L 135.994345 481.088938 
L 135.589822 481.162321 
L 135.185298 485.007596 
L 134.780774 486.754114 
L 134.376251 482.718043 
L 133.971727 485.477248 
L 133.567203 485.359835 
L 133.162679 479.034211 
L 132.758156 488.720782 
L 131.949108 480.942172 
L 131.544585 479.988191 
L 131.140061 480.34043 
L 130.735537 477.830728 
L 129.92649 478.931474 
L 129.521966 478.109583 
L 129.117442 474.645901 
L 128.712919 474.983463 
L 128.308395 478.08023 
L 127.499348 479.709335 
L 127.094824 479.239683 
L 126.6903 480.105604 
L 126.285776 480.399137 
L 125.881253 479.048887 
L 125.476729 478.417793 
L 125.072205 476.627245 
L 124.667682 478.623265 
L 124.263158 482.042918 
L 123.858634 482.395157 
L 123.45411 480.589933 
L 123.049587 481.64665 
L 122.645063 480.677992 
L 121.836016 485.438435 
L 121.431492 486.461069 
L 121.026968 487.848929 
L 120.622445 492.48 
L 120.217921 485.759835 
L 119.813397 483.247077 
L 119.408873 488.111892 
L 119.00435 482.58967 
L 118.599826 478.966624 
L 118.195302 477.870945 
L 117.790779 481.1872 
L 117.386255 479.463332 
L 116.981731 479.258805 
L 116.577207 481.786172 
L 116.172684 482.531233 
L 115.76816 482.414361 
L 115.363636 482.838024 
L 115.363636 482.838024 
" clip-path="url(#p922becaf5e)" style="fill: none; stroke: #1f77b4; stroke-width: 2; stroke-linecap: square"/>
   </g>
   <g id="patch_3">
    <path d="M 90 512.64 
L 90 69.12 
" style="fill: none; stroke: #000000; stroke-width: 0.8; stroke-linejoin: miter; stroke-linecap: square"/>
   </g>
   <g id="patch_4">
    <path d="M 648 512.64 
L 648 69.12 
" style="fill: none; stroke: #000000; stroke-width: 0.8; stroke-linejoin: miter; stroke-linecap: square"/>
   </g>
   <g id="patch_5">
    <path d="M 90 512.64 
L 648 512.64 
" style="fill: none; stroke: #000000; stroke-width: 0.8; stroke-linejoin: miter; stroke-linecap: square"/>
   </g>
   <g id="patch_6">
    <path d="M 90 69.12 
L 648 69.12 
" style="fill: none; stroke: #000000; stroke-width: 0.8; stroke-linejoin: miter; stroke-linecap: square"/>
   </g>
   <g id="text_18">
    <!-- Last price $239.23 -->
    <g transform="translate(312.943125 63.12) scale(0.12 -0.12)">
     <defs>
      <path id="DejaVuSans-4c" d="M 628 4666 
L 1259 4666 
L 1259 531 
L 3531 531 
L 3531 0 
L 628 0 
L 628 4666 
z
" transform="scale(0.015625)"/>
      <path id="DejaVuSans-70" d="M 1159 525 
L 1159 -1331 
L 581 -1331 
L 581 3500 
L 1159 3500 
L 1159 2969 
Q 1341 3281 1617 3432 
Q 1894 3584 2278 3584 
Q 2916 3584 3314 3078 
Q 3713 2572 3713 1747 
Q 3713 922 3314 415 
Q 2916 -91 2278 -91 
Q 1894 -91 1617 61 
Q 1341 213 1159 525 
z
M 3116 1747 
Q 3116 2381 2855 2742 
Q 2594 3103 2138 3103 
Q 1681 3103 1420 2742 
Q 1159 2381 1159 1747 
Q 1159 1113 1420 752 
Q 1681 391 2138 391 
Q 2594 391 2855 752 
Q 3116 1113 3116 1747 
z
" transform="scale(0.015625)"/>
      <path id="DejaVuSans-63" d="M 3122 3366 
L 3122 2828 
Q 2878 2963 2633 3030 
Q 2388 3097 2138 3097 
Q 1578 3097 1268 2742 
Q 959 2388 959 1747 
Q 959 1106 1268 751 
Q 1578 397 2138 397 
Q 2388 397 2633 464 
Q 2878 531 3122 666 
L 3122 134 
Q 2881 22 2623 -34 
Q 2366 -91 2075 -91 
Q 1284 -91 818 406 
Q 353 903 353 1747 
Q 353 2603 823 3093 
Q 1294 3584 2113 3584 
Q 2378 3584 2631 3529 
Q 2884 3475 3122 3366 
z
" transform="scale(0.015625)"/>
      <path id="DejaVuSans-2e" d="M 684 794 
L 1344 794 
L 1344 0 
L 684 0 
L 684 794 
z
" transform="scale(0.015625)"/>
     </defs>
     <use xlink:href="#DejaVuSans-4c"/>
     <use xlink:href="#DejaVuSans-61" x="55.712891"/>
     <use xlink:href="#DejaVuSans-73" x="116.992188"/>
     <use xlink:href="#DejaVuSans-74" x="169.091797"/>
     <use xlink:href="#DejaVuSans-20" x="208.300781"/>
     <use xlink:href="#DejaVuSans-70" x="240.087891"/>
     <use xlink:href="#DejaVuSans-72" x="303.564453"/>
     <use xlink:href="#DejaVuSans-69" x="344.677734"/>
     <use xlink:href="#DejaVuSans-63" x="372.460938"/>
     <use xlink:href="#DejaVuSans-65" x="427.441406"/>
     <use xlink:href="#DejaVuSans-20" x="488.964844"/>
     <use xlink:href="#DejaVuSans-24" x="520.751953"/>
     <use xlink:href="#DejaVuSans-32" x="584.375"/>
     <use xlink:href="#DejaVuSans-33" x="647.998047"/>
     <use xlink:href="#DejaVuSans-39" x="711.621094"/>
     <use xlink:href="#DejaVuSans-2e" x="775.244141"/>
     <use xlink:href="#DejaVuSans-32" x="807.03125"/>
     <use xlink:href="#DejaVuSans-33" x="870.654297"/>
    </g>
   </g>
  </g>
 </g>
 <defs>
  <clipPath id="p922becaf5e">
   <rect x="90" y="69.12" width="558" height="443.52"/>
  </clipPath>
 </defs>
</svg>
