<?xml version="1.0" encoding="utf-8" standalone="no"?>
<!DOCTYPE svg PUBLIC "-//W3C//DTD SVG 1.1//EN"
  "http://www.w3.org/Graphics/SVG/1.1/DTD/svg11.dtd">
<svg xmlns:xlink="http://www.w3.org/1999/xlink" width="720pt" height="576pt" viewBox="0 0 720 576" xmlns="http://www.w3.org/2000/svg" version="1.1">
 <metadata>
  <rdf:RDF xmlns:dc="http://purl.org/dc/elements/1.1/" xmlns:cc="http://creativecommons.org/ns#" xmlns:rdf="http://www.w3.org/1999/02/22-rdf-syntax-ns#">
   <cc:Work>
    <dc:type rdf:resource="http://purl.org/dc/dcmitype/StillImage"/>
    <dc:date>2023-02-02T23:56:30.918178</dc:date>
    <dc:format>image/svg+xml</dc:format>
    <dc:creator>
     <cc:Agent>
      <dc:title>Matplotlib v3.6.2, https://matplotlib.org/</dc:title>
     </cc:Agent>
    </dc:creator>
   </cc:Work>
  </rdf:RDF>
 </metadata>
 <defs>
  <style type="text/css">*{stroke-linejoin: round; stroke-linecap: butt}</style>
 </defs>
 <g id="figure_1">
  <g id="patch_1">
   <path d="M 0 576 
L 720 576 
L 720 0 
L 0 0 
z
" style="fill: #ffffff"/>
  </g>
  <g id="axes_1">
   <g id="patch_2">
    <path d="M 90 512.64 
L 648 512.64 
L 648 69.12 
L 90 69.12 
z
" style="fill: #ffffff"/>
   </g>
   <g id="matplotlib.axis_1">
    <g id="xtick_1">
     <g id="line2d_1">
      <defs>
       <path id="m4578386b66" d="M 0 0 
L 0 3.5 
" style="stroke: #000000; stroke-width: 0.8"/>
      </defs>
      <g>
       <use xlink:href="#m4578386b66" x="622.636364" y="512.64" style="stroke: #000000; stroke-width: 0.8"/>
      </g>
     </g>
     <g id="text_1">
      <!-- 2023-02-02 -->
      <g transform="translate(597.998393 552.794199) rotate(-27) scale(0.1 -0.1)">
       <defs>
        <path id="DejaVuSans-32" d="M 1228 531 
L 3431 531 
L 3431 0 
L 469 0 
L 469 531 
Q 828 903 1448 1529 
Q 2069 2156 2228 2338 
Q 2531 2678 2651 2914 
Q 2772 3150 2772 3378 
Q 2772 3750 2511 3984 
Q 2250 4219 1831 4219 
Q 1534 4219 1204 4116 
Q 875 4013 500 3803 
L 500 4441 
Q 881 4594 1212 4672 
Q 1544 4750 1819 4750 
Q 2544 4750 2975 4387 
Q 3406 4025 3406 3419 
Q 3406 3131 3298 2873 
Q 3191 2616 2906 2266 
Q 2828 2175 2409 1742 
Q 1991 1309 1228 531 
z
" transform="scale(0.015625)"/>
        <path id="DejaVuSans-30" d="M 2034 4250 
Q 1547 4250 1301 3770 
Q 1056 3291 1056 2328 
Q 1056 1369 1301 889 
Q 1547 409 2034 409 
Q 2525 409 2770 889 
Q 3016 1369 3016 2328 
Q 3016 3291 2770 3770 
Q 2525 4250 2034 4250 
z
M 2034 4750 
Q 2819 4750 3233 4129 
Q 3647 3509 3647 2328 
Q 3647 1150 3233 529 
Q 2819 -91 2034 -91 
Q 1250 -91 836 529 
Q 422 1150 422 2328 
Q 422 3509 836 4129 
Q 1250 4750 2034 4750 
z
" transform="scale(0.015625)"/>
        <path id="DejaVuSans-33" d="M 2597 2516 
Q 3050 2419 3304 2112 
Q 3559 1806 3559 1356 
Q 3559 666 3084 287 
Q 2609 -91 1734 -91 
Q 1441 -91 1130 -33 
Q 819 25 488 141 
L 488 750 
Q 750 597 1062 519 
Q 1375 441 1716 441 
Q 2309 441 2620 675 
Q 2931 909 2931 1356 
Q 2931 1769 2642 2001 
Q 2353 2234 1838 2234 
L 1294 2234 
L 1294 2753 
L 1863 2753 
Q 2328 2753 2575 2939 
Q 2822 3125 2822 3475 
Q 2822 3834 2567 4026 
Q 2313 4219 1838 4219 
Q 1578 4219 1281 4162 
Q 984 4106 628 3988 
L 628 4550 
Q 988 4650 1302 4700 
Q 1616 4750 1894 4750 
Q 2613 4750 3031 4423 
Q 3450 4097 3450 3541 
Q 3450 3153 3228 2886 
Q 3006 2619 2597 2516 
z
" transform="scale(0.015625)"/>
        <path id="DejaVuSans-2d" d="M 313 2009 
L 1997 2009 
L 1997 1497 
L 313 1497 
L 313 2009 
z
" transform="scale(0.015625)"/>
       </defs>
       <use xlink:href="#DejaVuSans-32"/>
       <use xlink:href="#DejaVuSans-30" x="63.623047"/>
       <use xlink:href="#DejaVuSans-32" x="127.246094"/>
       <use xlink:href="#DejaVuSans-33" x="190.869141"/>
       <use xlink:href="#DejaVuSans-2d" x="254.492188"/>
       <use xlink:href="#DejaVuSans-30" x="290.576172"/>
       <use xlink:href="#DejaVuSans-32" x="354.199219"/>
       <use xlink:href="#DejaVuSans-2d" x="417.822266"/>
       <use xlink:href="#DejaVuSans-30" x="453.90625"/>
       <use xlink:href="#DejaVuSans-32" x="517.529297"/>
      </g>
     </g>
    </g>
    <g id="xtick_2">
     <g id="line2d_2">
      <g>
       <use xlink:href="#m4578386b66" x="571.666377" y="512.64" style="stroke: #000000; stroke-width: 0.8"/>
      </g>
     </g>
     <g id="text_2">
      <!-- 2022-08-03 -->
      <g transform="translate(547.028406 552.794199) rotate(-27) scale(0.1 -0.1)">
       <defs>
        <path id="DejaVuSans-38" d="M 2034 2216 
Q 1584 2216 1326 1975 
Q 1069 1734 1069 1313 
Q 1069 891 1326 650 
Q 1584 409 2034 409 
Q 2484 409 2743 651 
Q 3003 894 3003 1313 
Q 3003 1734 2745 1975 
Q 2488 2216 2034 2216 
z
M 1403 2484 
Q 997 2584 770 2862 
Q 544 3141 544 3541 
Q 544 4100 942 4425 
Q 1341 4750 2034 4750 
Q 2731 4750 3128 4425 
Q 3525 4100 3525 3541 
Q 3525 3141 3298 2862 
Q 3072 2584 2669 2484 
Q 3125 2378 3379 2068 
Q 3634 1759 3634 1313 
Q 3634 634 3220 271 
Q 2806 -91 2034 -91 
Q 1263 -91 848 271 
Q 434 634 434 1313 
Q 434 1759 690 2068 
Q 947 2378 1403 2484 
z
M 1172 3481 
Q 1172 3119 1398 2916 
Q 1625 2713 2034 2713 
Q 2441 2713 2670 2916 
Q 2900 3119 2900 3481 
Q 2900 3844 2670 4047 
Q 2441 4250 2034 4250 
Q 1625 4250 1398 4047 
Q 1172 3844 1172 3481 
z
" transform="scale(0.015625)"/>
       </defs>
       <use xlink:href="#DejaVuSans-32"/>
       <use xlink:href="#DejaVuSans-30" x="63.623047"/>
       <use xlink:href="#DejaVuSans-32" x="127.246094"/>
       <use xlink:href="#DejaVuSans-32" x="190.869141"/>
       <use xlink:href="#DejaVuSans-2d" x="254.492188"/>
       <use xlink:href="#DejaVuSans-30" x="290.576172"/>
       <use xlink:href="#DejaVuSans-38" x="354.199219"/>
       <use xlink:href="#DejaVuSans-2d" x="417.822266"/>
       <use xlink:href="#DejaVuSans-30" x="453.90625"/>
       <use xlink:href="#DejaVuSans-33" x="517.529297"/>
      </g>
     </g>
    </g>
    <g id="xtick_3">
     <g id="line2d_3">
      <g>
       <use xlink:href="#m4578386b66" x="520.69639" y="512.64" style="stroke: #000000; stroke-width: 0.8"/>
      </g>
     </g>
     <g id="text_3">
      <!-- 2022-02-01 -->
      <g transform="translate(496.058419 552.794199) rotate(-27) scale(0.1 -0.1)">
       <defs>
        <path id="DejaVuSans-31" d="M 794 531 
L 1825 531 
L 1825 4091 
L 703 3866 
L 703 4441 
L 1819 4666 
L 2450 4666 
L 2450 531 
L 3481 531 
L 3481 0 
L 794 0 
L 794 531 
z
" transform="scale(0.015625)"/>
       </defs>
       <use xlink:href="#DejaVuSans-32"/>
       <use xlink:href="#DejaVuSans-30" x="63.623047"/>
       <use xlink:href="#DejaVuSans-32" x="127.246094"/>
       <use xlink:href="#DejaVuSans-32" x="190.869141"/>
       <use xlink:href="#DejaVuSans-2d" x="254.492188"/>
       <use xlink:href="#DejaVuSans-30" x="290.576172"/>
       <use xlink:href="#DejaVuSans-32" x="354.199219"/>
       <use xlink:href="#DejaVuSans-2d" x="417.822266"/>
       <use xlink:href="#DejaVuSans-30" x="453.90625"/>
       <use xlink:href="#DejaVuSans-31" x="517.529297"/>
      </g>
     </g>
    </g>
    <g id="xtick_4">
     <g id="line2d_4">
      <g>
       <use xlink:href="#m4578386b66" x="469.726403" y="512.64" style="stroke: #000000; stroke-width: 0.8"/>
      </g>
     </g>
     <g id="text_4">
      <!-- 2021-08-03 -->
      <g transform="translate(445.088432 552.794199) rotate(-27) scale(0.1 -0.1)">
       <use xlink:href="#DejaVuSans-32"/>
       <use xlink:href="#DejaVuSans-30" x="63.623047"/>
       <use xlink:href="#DejaVuSans-32" x="127.246094"/>
       <use xlink:href="#DejaVuSans-31" x="190.869141"/>
       <use xlink:href="#DejaVuSans-2d" x="254.492188"/>
       <use xlink:href="#DejaVuSans-30" x="290.576172"/>
       <use xlink:href="#DejaVuSans-38" x="354.199219"/>
       <use xlink:href="#DejaVuSans-2d" x="417.822266"/>
       <use xlink:href="#DejaVuSans-30" x="453.90625"/>
       <use xlink:href="#DejaVuSans-33" x="517.529297"/>
      </g>
     </g>
    </g>
    <g id="xtick_5">
     <g id="line2d_5">
      <g>
       <use xlink:href="#m4578386b66" x="418.756416" y="512.64" style="stroke: #000000; stroke-width: 0.8"/>
      </g>
     </g>
     <g id="text_5">
      <!-- 2021-02-02 -->
      <g transform="translate(394.118445 552.794199) rotate(-27) scale(0.1 -0.1)">
       <use xlink:href="#DejaVuSans-32"/>
       <use xlink:href="#DejaVuSans-30" x="63.623047"/>
       <use xlink:href="#DejaVuSans-32" x="127.246094"/>
       <use xlink:href="#DejaVuSans-31" x="190.869141"/>
       <use xlink:href="#DejaVuSans-2d" x="254.492188"/>
       <use xlink:href="#DejaVuSans-30" x="290.576172"/>
       <use xlink:href="#DejaVuSans-32" x="354.199219"/>
       <use xlink:href="#DejaVuSans-2d" x="417.822266"/>
       <use xlink:href="#DejaVuSans-30" x="453.90625"/>
       <use xlink:href="#DejaVuSans-32" x="517.529297"/>
      </g>
     </g>
    </g>
    <g id="xtick_6">
     <g id="line2d_6">
      <g>
       <use xlink:href="#m4578386b66" x="367.786429" y="512.64" style="stroke: #000000; stroke-width: 0.8"/>
      </g>
     </g>
     <g id="text_6">
      <!-- 2020-08-03 -->
      <g transform="translate(343.148458 552.794199) rotate(-27) scale(0.1 -0.1)">
       <use xlink:href="#DejaVuSans-32"/>
       <use xlink:href="#DejaVuSans-30" x="63.623047"/>
       <use xlink:href="#DejaVuSans-32" x="127.246094"/>
       <use xlink:href="#DejaVuSans-30" x="190.869141"/>
       <use xlink:href="#DejaVuSans-2d" x="254.492188"/>
       <use xlink:href="#DejaVuSans-30" x="290.576172"/>
       <use xlink:href="#DejaVuSans-38" x="354.199219"/>
       <use xlink:href="#DejaVuSans-2d" x="417.822266"/>
       <use xlink:href="#DejaVuSans-30" x="453.90625"/>
       <use xlink:href="#DejaVuSans-33" x="517.529297"/>
      </g>
     </g>
    </g>
    <g id="xtick_7">
     <g id="line2d_7">
      <g>
       <use xlink:href="#m4578386b66" x="316.816442" y="512.64" style="stroke: #000000; stroke-width: 0.8"/>
      </g>
     </g>
     <g id="text_7">
      <!-- 2020-02-03 -->
      <g transform="translate(292.178471 552.794199) rotate(-27) scale(0.1 -0.1)">
       <use xlink:href="#DejaVuSans-32"/>
       <use xlink:href="#DejaVuSans-30" x="63.623047"/>
       <use xlink:href="#DejaVuSans-32" x="127.246094"/>
       <use xlink:href="#DejaVuSans-30" x="190.869141"/>
       <use xlink:href="#DejaVuSans-2d" x="254.492188"/>
       <use xlink:href="#DejaVuSans-30" x="290.576172"/>
       <use xlink:href="#DejaVuSans-32" x="354.199219"/>
       <use xlink:href="#DejaVuSans-2d" x="417.822266"/>
       <use xlink:href="#DejaVuSans-30" x="453.90625"/>
       <use xlink:href="#DejaVuSans-33" x="517.529297"/>
      </g>
     </g>
    </g>
    <g id="xtick_8">
     <g id="line2d_8">
      <g>
       <use xlink:href="#m4578386b66" x="265.846455" y="512.64" style="stroke: #000000; stroke-width: 0.8"/>
      </g>
     </g>
     <g id="text_8">
      <!-- 2019-08-02 -->
      <g transform="translate(241.208484 552.794199) rotate(-27) scale(0.1 -0.1)">
       <defs>
        <path id="DejaVuSans-39" d="M 703 97 
L 703 672 
Q 941 559 1184 500 
Q 1428 441 1663 441 
Q 2288 441 2617 861 
Q 2947 1281 2994 2138 
Q 2813 1869 2534 1725 
Q 2256 1581 1919 1581 
Q 1219 1581 811 2004 
Q 403 2428 403 3163 
Q 403 3881 828 4315 
Q 1253 4750 1959 4750 
Q 2769 4750 3195 4129 
Q 3622 3509 3622 2328 
Q 3622 1225 3098 567 
Q 2575 -91 1691 -91 
Q 1453 -91 1209 -44 
Q 966 3 703 97 
z
M 1959 2075 
Q 2384 2075 2632 2365 
Q 2881 2656 2881 3163 
Q 2881 3666 2632 3958 
Q 2384 4250 1959 4250 
Q 1534 4250 1286 3958 
Q 1038 3666 1038 3163 
Q 1038 2656 1286 2365 
Q 1534 2075 1959 2075 
z
" transform="scale(0.015625)"/>
       </defs>
       <use xlink:href="#DejaVuSans-32"/>
       <use xlink:href="#DejaVuSans-30" x="63.623047"/>
       <use xlink:href="#DejaVuSans-31" x="127.246094"/>
       <use xlink:href="#DejaVuSans-39" x="190.869141"/>
       <use xlink:href="#DejaVuSans-2d" x="254.492188"/>
       <use xlink:href="#DejaVuSans-30" x="290.576172"/>
       <use xlink:href="#DejaVuSans-38" x="354.199219"/>
       <use xlink:href="#DejaVuSans-2d" x="417.822266"/>
       <use xlink:href="#DejaVuSans-30" x="453.90625"/>
       <use xlink:href="#DejaVuSans-32" x="517.529297"/>
      </g>
     </g>
    </g>
    <g id="xtick_9">
     <g id="line2d_9">
      <g>
       <use xlink:href="#m4578386b66" x="214.876468" y="512.64" style="stroke: #000000; stroke-width: 0.8"/>
      </g>
     </g>
     <g id="text_9">
      <!-- 2019-02-01 -->
      <g transform="translate(190.238498 552.794199) rotate(-27) scale(0.1 -0.1)">
       <use xlink:href="#DejaVuSans-32"/>
       <use xlink:href="#DejaVuSans-30" x="63.623047"/>
       <use xlink:href="#DejaVuSans-31" x="127.246094"/>
       <use xlink:href="#DejaVuSans-39" x="190.869141"/>
       <use xlink:href="#DejaVuSans-2d" x="254.492188"/>
       <use xlink:href="#DejaVuSans-30" x="290.576172"/>
       <use xlink:href="#DejaVuSans-32" x="354.199219"/>
       <use xlink:href="#DejaVuSans-2d" x="417.822266"/>
       <use xlink:href="#DejaVuSans-30" x="453.90625"/>
       <use xlink:href="#DejaVuSans-31" x="517.529297"/>
      </g>
     </g>
    </g>
    <g id="xtick_10">
     <g id="line2d_10">
      <g>
       <use xlink:href="#m4578386b66" x="163.906481" y="512.64" style="stroke: #000000; stroke-width: 0.8"/>
      </g>
     </g>
     <g id="text_10">
      <!-- 2018-08-01 -->
      <g transform="translate(139.268511 552.794199) rotate(-27) scale(0.1 -0.1)">
       <use xlink:href="#DejaVuSans-32"/>
       <use xlink:href="#DejaVuSans-30" x="63.623047"/>
       <use xlink:href="#DejaVuSans-31" x="127.246094"/>
       <use xlink:href="#DejaVuSans-38" x="190.869141"/>
       <use xlink:href="#DejaVuSans-2d" x="254.492188"/>
       <use xlink:href="#DejaVuSans-30" x="290.576172"/>
       <use xlink:href="#DejaVuSans-38" x="354.199219"/>
       <use xlink:href="#DejaVuSans-2d" x="417.822266"/>
       <use xlink:href="#DejaVuSans-30" x="453.90625"/>
       <use xlink:href="#DejaVuSans-31" x="517.529297"/>
      </g>
     </g>
    </g>
    <g id="text_11">
     <!-- Time in 1255 trading days -->
     <g transform="translate(303.339063 566.245652) scale(0.1 -0.1)">
      <defs>
       <path id="DejaVuSans-54" d="M -19 4666 
L 3928 4666 
L 3928 4134 
L 2272 4134 
L 2272 0 
L 1638 0 
L 1638 4134 
L -19 4134 
L -19 4666 
z
" transform="scale(0.015625)"/>
       <path id="DejaVuSans-69" d="M 603 3500 
L 1178 3500 
L 1178 0 
L 603 0 
L 603 3500 
z
M 603 4863 
L 1178 4863 
L 1178 4134 
L 603 4134 
L 603 4863 
z
" transform="scale(0.015625)"/>
       <path id="DejaVuSans-6d" d="M 3328 2828 
Q 3544 3216 3844 3400 
Q 4144 3584 4550 3584 
Q 5097 3584 5394 3201 
Q 5691 2819 5691 2113 
L 5691 0 
L 5113 0 
L 5113 2094 
Q 5113 2597 4934 2840 
Q 4756 3084 4391 3084 
Q 3944 3084 3684 2787 
Q 3425 2491 3425 1978 
L 3425 0 
L 2847 0 
L 2847 2094 
Q 2847 2600 2669 2842 
Q 2491 3084 2119 3084 
Q 1678 3084 1418 2786 
Q 1159 2488 1159 1978 
L 1159 0 
L 581 0 
L 581 3500 
L 1159 3500 
L 1159 2956 
Q 1356 3278 1631 3431 
Q 1906 3584 2284 3584 
Q 2666 3584 2933 3390 
Q 3200 3197 3328 2828 
z
" transform="scale(0.015625)"/>
       <path id="DejaVuSans-65" d="M 3597 1894 
L 3597 1613 
L 953 1613 
Q 991 1019 1311 708 
Q 1631 397 2203 397 
Q 2534 397 2845 478 
Q 3156 559 3463 722 
L 3463 178 
Q 3153 47 2828 -22 
Q 2503 -91 2169 -91 
Q 1331 -91 842 396 
Q 353 884 353 1716 
Q 353 2575 817 3079 
Q 1281 3584 2069 3584 
Q 2775 3584 3186 3129 
Q 3597 2675 3597 1894 
z
M 3022 2063 
Q 3016 2534 2758 2815 
Q 2500 3097 2075 3097 
Q 1594 3097 1305 2825 
Q 1016 2553 972 2059 
L 3022 2063 
z
" transform="scale(0.015625)"/>
       <path id="DejaVuSans-20" transform="scale(0.015625)"/>
       <path id="DejaVuSans-6e" d="M 3513 2113 
L 3513 0 
L 2938 0 
L 2938 2094 
Q 2938 2591 2744 2837 
Q 2550 3084 2163 3084 
Q 1697 3084 1428 2787 
Q 1159 2491 1159 1978 
L 1159 0 
L 581 0 
L 581 3500 
L 1159 3500 
L 1159 2956 
Q 1366 3272 1645 3428 
Q 1925 3584 2291 3584 
Q 2894 3584 3203 3211 
Q 3513 2838 3513 2113 
z
" transform="scale(0.015625)"/>
       <path id="DejaVuSans-35" d="M 691 4666 
L 3169 4666 
L 3169 4134 
L 1269 4134 
L 1269 2991 
Q 1406 3038 1543 3061 
Q 1681 3084 1819 3084 
Q 2600 3084 3056 2656 
Q 3513 2228 3513 1497 
Q 3513 744 3044 326 
Q 2575 -91 1722 -91 
Q 1428 -91 1123 -41 
Q 819 9 494 109 
L 494 744 
Q 775 591 1075 516 
Q 1375 441 1709 441 
Q 2250 441 2565 725 
Q 2881 1009 2881 1497 
Q 2881 1984 2565 2268 
Q 2250 2553 1709 2553 
Q 1456 2553 1204 2497 
Q 953 2441 691 2322 
L 691 4666 
z
" transform="scale(0.015625)"/>
       <path id="DejaVuSans-74" d="M 1172 4494 
L 1172 3500 
L 2356 3500 
L 2356 3053 
L 1172 3053 
L 1172 1153 
Q 1172 725 1289 603 
Q 1406 481 1766 481 
L 2356 481 
L 2356 0 
L 1766 0 
Q 1100 0 847 248 
Q 594 497 594 1153 
L 594 3053 
L 172 3053 
L 172 3500 
L 594 3500 
L 594 4494 
L 1172 4494 
z
" transform="scale(0.015625)"/>
       <path id="DejaVuSans-72" d="M 2631 2963 
Q 2534 3019 2420 3045 
Q 2306 3072 2169 3072 
Q 1681 3072 1420 2755 
Q 1159 2438 1159 1844 
L 1159 0 
L 581 0 
L 581 3500 
L 1159 3500 
L 1159 2956 
Q 1341 3275 1631 3429 
Q 1922 3584 2338 3584 
Q 2397 3584 2469 3576 
Q 2541 3569 2628 3553 
L 2631 2963 
z
" transform="scale(0.015625)"/>
       <path id="DejaVuSans-61" d="M 2194 1759 
Q 1497 1759 1228 1600 
Q 959 1441 959 1056 
Q 959 750 1161 570 
Q 1363 391 1709 391 
Q 2188 391 2477 730 
Q 2766 1069 2766 1631 
L 2766 1759 
L 2194 1759 
z
M 3341 1997 
L 3341 0 
L 2766 0 
L 2766 531 
Q 2569 213 2275 61 
Q 1981 -91 1556 -91 
Q 1019 -91 701 211 
Q 384 513 384 1019 
Q 384 1609 779 1909 
Q 1175 2209 1959 2209 
L 2766 2209 
L 2766 2266 
Q 2766 2663 2505 2880 
Q 2244 3097 1772 3097 
Q 1472 3097 1187 3025 
Q 903 2953 641 2809 
L 641 3341 
Q 956 3463 1253 3523 
Q 1550 3584 1831 3584 
Q 2591 3584 2966 3190 
Q 3341 2797 3341 1997 
z
" transform="scale(0.015625)"/>
       <path id="DejaVuSans-64" d="M 2906 2969 
L 2906 4863 
L 3481 4863 
L 3481 0 
L 2906 0 
L 2906 525 
Q 2725 213 2448 61 
Q 2172 -91 1784 -91 
Q 1150 -91 751 415 
Q 353 922 353 1747 
Q 353 2572 751 3078 
Q 1150 3584 1784 3584 
Q 2172 3584 2448 3432 
Q 2725 3281 2906 2969 
z
M 947 1747 
Q 947 1113 1208 752 
Q 1469 391 1925 391 
Q 2381 391 2643 752 
Q 2906 1113 2906 1747 
Q 2906 2381 2643 2742 
Q 2381 3103 1925 3103 
Q 1469 3103 1208 2742 
Q 947 2381 947 1747 
z
" transform="scale(0.015625)"/>
       <path id="DejaVuSans-67" d="M 2906 1791 
Q 2906 2416 2648 2759 
Q 2391 3103 1925 3103 
Q 1463 3103 1205 2759 
Q 947 2416 947 1791 
Q 947 1169 1205 825 
Q 1463 481 1925 481 
Q 2391 481 2648 825 
Q 2906 1169 2906 1791 
z
M 3481 434 
Q 3481 -459 3084 -895 
Q 2688 -1331 1869 -1331 
Q 1566 -1331 1297 -1286 
Q 1028 -1241 775 -1147 
L 775 -588 
Q 1028 -725 1275 -790 
Q 1522 -856 1778 -856 
Q 2344 -856 2625 -561 
Q 2906 -266 2906 331 
L 2906 616 
Q 2728 306 2450 153 
Q 2172 0 1784 0 
Q 1141 0 747 490 
Q 353 981 353 1791 
Q 353 2603 747 3093 
Q 1141 3584 1784 3584 
Q 2172 3584 2450 3431 
Q 2728 3278 2906 2969 
L 2906 3500 
L 3481 3500 
L 3481 434 
z
" transform="scale(0.015625)"/>
       <path id="DejaVuSans-79" d="M 2059 -325 
Q 1816 -950 1584 -1140 
Q 1353 -1331 966 -1331 
L 506 -1331 
L 506 -850 
L 844 -850 
Q 1081 -850 1212 -737 
Q 1344 -625 1503 -206 
L 1606 56 
L 191 3500 
L 800 3500 
L 1894 763 
L 2988 3500 
L 3597 3500 
L 2059 -325 
z
" transform="scale(0.015625)"/>
       <path id="DejaVuSans-73" d="M 2834 3397 
L 2834 2853 
Q 2591 2978 2328 3040 
Q 2066 3103 1784 3103 
Q 1356 3103 1142 2972 
Q 928 2841 928 2578 
Q 928 2378 1081 2264 
Q 1234 2150 1697 2047 
L 1894 2003 
Q 2506 1872 2764 1633 
Q 3022 1394 3022 966 
Q 3022 478 2636 193 
Q 2250 -91 1575 -91 
Q 1294 -91 989 -36 
Q 684 19 347 128 
L 347 722 
Q 666 556 975 473 
Q 1284 391 1588 391 
Q 1994 391 2212 530 
Q 2431 669 2431 922 
Q 2431 1156 2273 1281 
Q 2116 1406 1581 1522 
L 1381 1569 
Q 847 1681 609 1914 
Q 372 2147 372 2553 
Q 372 3047 722 3315 
Q 1072 3584 1716 3584 
Q 2034 3584 2315 3537 
Q 2597 3491 2834 3397 
z
" transform="scale(0.015625)"/>
      </defs>
      <use xlink:href="#DejaVuSans-54"/>
      <use xlink:href="#DejaVuSans-69" x="57.958984"/>
      <use xlink:href="#DejaVuSans-6d" x="85.742188"/>
      <use xlink:href="#DejaVuSans-65" x="183.154297"/>
      <use xlink:href="#DejaVuSans-20" x="244.677734"/>
      <use xlink:href="#DejaVuSans-69" x="276.464844"/>
      <use xlink:href="#DejaVuSans-6e" x="304.248047"/>
      <use xlink:href="#DejaVuSans-20" x="367.626953"/>
      <use xlink:href="#DejaVuSans-31" x="399.414062"/>
      <use xlink:href="#DejaVuSans-32" x="463.037109"/>
      <use xlink:href="#DejaVuSans-35" x="526.660156"/>
      <use xlink:href="#DejaVuSans-35" x="590.283203"/>
      <use xlink:href="#DejaVuSans-20" x="653.90625"/>
      <use xlink:href="#DejaVuSans-74" x="685.693359"/>
      <use xlink:href="#DejaVuSans-72" x="724.902344"/>
      <use xlink:href="#DejaVuSans-61" x="766.015625"/>
      <use xlink:href="#DejaVuSans-64" x="827.294922"/>
      <use xlink:href="#DejaVuSans-69" x="890.771484"/>
      <use xlink:href="#DejaVuSans-6e" x="918.554688"/>
      <use xlink:href="#DejaVuSans-67" x="981.933594"/>
      <use xlink:href="#DejaVuSans-20" x="1045.410156"/>
      <use xlink:href="#DejaVuSans-64" x="1077.197266"/>
      <use xlink:href="#DejaVuSans-61" x="1140.673828"/>
      <use xlink:href="#DejaVuSans-79" x="1201.953125"/>
      <use xlink:href="#DejaVuSans-73" x="1261.132812"/>
     </g>
    </g>
   </g>
   <g id="matplotlib.axis_2">
    <g id="ytick_1">
     <g id="line2d_11">
      <defs>
       <path id="m8e13414422" d="M 0 0 
L -3.5 0 
" style="stroke: #000000; stroke-width: 0.8"/>
      </defs>
      <g>
       <use xlink:href="#m8e13414422" x="90" y="448.583001" style="stroke: #000000; stroke-width: 0.8"/>
      </g>
     </g>
     <g id="text_12">
      <!-- $80 -->
      <g transform="translate(44.825 456.181439) scale(0.2 -0.2)">
       <defs>
        <path id="DejaVuSans-24" d="M 2163 -941 
L 1850 -941 
L 1847 0 
Q 1519 6 1191 76 
Q 863 147 531 288 
L 531 850 
Q 850 650 1176 548 
Q 1503 447 1850 444 
L 1850 1869 
Q 1159 1981 845 2250 
Q 531 2519 531 2988 
Q 531 3497 872 3790 
Q 1213 4084 1850 4128 
L 1850 4863 
L 2163 4863 
L 2163 4138 
Q 2453 4125 2725 4076 
Q 2997 4028 3256 3944 
L 3256 3397 
Q 2997 3528 2723 3600 
Q 2450 3672 2163 3684 
L 2163 2350 
Q 2872 2241 3206 1959 
Q 3541 1678 3541 1191 
Q 3541 663 3186 358 
Q 2831 53 2163 6 
L 2163 -941 
z
M 1850 2406 
L 1850 3688 
Q 1488 3647 1297 3481 
Q 1106 3316 1106 3041 
Q 1106 2772 1282 2622 
Q 1459 2472 1850 2406 
z
M 2163 1806 
L 2163 453 
Q 2559 506 2761 678 
Q 2963 850 2963 1131 
Q 2963 1406 2770 1568 
Q 2578 1731 2163 1806 
z
" transform="scale(0.015625)"/>
       </defs>
       <use xlink:href="#DejaVuSans-24"/>
       <use xlink:href="#DejaVuSans-38" x="63.623047"/>
       <use xlink:href="#DejaVuSans-30" x="127.246094"/>
      </g>
     </g>
    </g>
    <g id="ytick_2">
     <g id="line2d_12">
      <g>
       <use xlink:href="#m8e13414422" x="90" y="381.152896" style="stroke: #000000; stroke-width: 0.8"/>
      </g>
     </g>
     <g id="text_13">
      <!-- $100 -->
      <g transform="translate(32.1 388.751334) scale(0.2 -0.2)">
       <use xlink:href="#DejaVuSans-24"/>
       <use xlink:href="#DejaVuSans-31" x="63.623047"/>
       <use xlink:href="#DejaVuSans-30" x="127.246094"/>
       <use xlink:href="#DejaVuSans-30" x="190.869141"/>
      </g>
     </g>
    </g>
    <g id="ytick_3">
     <g id="line2d_13">
      <g>
       <use xlink:href="#m8e13414422" x="90" y="313.722791" style="stroke: #000000; stroke-width: 0.8"/>
      </g>
     </g>
     <g id="text_14">
      <!-- $120 -->
      <g transform="translate(32.1 321.321229) scale(0.2 -0.2)">
       <use xlink:href="#DejaVuSans-24"/>
       <use xlink:href="#DejaVuSans-31" x="63.623047"/>
       <use xlink:href="#DejaVuSans-32" x="127.246094"/>
       <use xlink:href="#DejaVuSans-30" x="190.869141"/>
      </g>
     </g>
    </g>
    <g id="ytick_4">
     <g id="line2d_14">
      <g>
       <use xlink:href="#m8e13414422" x="90" y="246.292686" style="stroke: #000000; stroke-width: 0.8"/>
      </g>
     </g>
     <g id="text_15">
      <!-- $140 -->
      <g transform="translate(32.1 253.891123) scale(0.2 -0.2)">
       <defs>
        <path id="DejaVuSans-34" d="M 2419 4116 
L 825 1625 
L 2419 1625 
L 2419 4116 
z
M 2253 4666 
L 3047 4666 
L 3047 1625 
L 3713 1625 
L 3713 1100 
L 3047 1100 
L 3047 0 
L 2419 0 
L 2419 1100 
L 313 1100 
L 313 1709 
L 2253 4666 
z
" transform="scale(0.015625)"/>
       </defs>
       <use xlink:href="#DejaVuSans-24"/>
       <use xlink:href="#DejaVuSans-31" x="63.623047"/>
       <use xlink:href="#DejaVuSans-34" x="127.246094"/>
       <use xlink:href="#DejaVuSans-30" x="190.869141"/>
      </g>
     </g>
    </g>
    <g id="ytick_5">
     <g id="line2d_15">
      <g>
       <use xlink:href="#m8e13414422" x="90" y="178.862581" style="stroke: #000000; stroke-width: 0.8"/>
      </g>
     </g>
     <g id="text_16">
      <!-- $160 -->
      <g transform="translate(32.1 186.461018) scale(0.2 -0.2)">
       <defs>
        <path id="DejaVuSans-36" d="M 2113 2584 
Q 1688 2584 1439 2293 
Q 1191 2003 1191 1497 
Q 1191 994 1439 701 
Q 1688 409 2113 409 
Q 2538 409 2786 701 
Q 3034 994 3034 1497 
Q 3034 2003 2786 2293 
Q 2538 2584 2113 2584 
z
M 3366 4563 
L 3366 3988 
Q 3128 4100 2886 4159 
Q 2644 4219 2406 4219 
Q 1781 4219 1451 3797 
Q 1122 3375 1075 2522 
Q 1259 2794 1537 2939 
Q 1816 3084 2150 3084 
Q 2853 3084 3261 2657 
Q 3669 2231 3669 1497 
Q 3669 778 3244 343 
Q 2819 -91 2113 -91 
Q 1303 -91 875 529 
Q 447 1150 447 2328 
Q 447 3434 972 4092 
Q 1497 4750 2381 4750 
Q 2619 4750 2861 4703 
Q 3103 4656 3366 4563 
z
" transform="scale(0.015625)"/>
       </defs>
       <use xlink:href="#DejaVuSans-24"/>
       <use xlink:href="#DejaVuSans-31" x="63.623047"/>
       <use xlink:href="#DejaVuSans-36" x="127.246094"/>
       <use xlink:href="#DejaVuSans-30" x="190.869141"/>
      </g>
     </g>
    </g>
    <g id="ytick_6">
     <g id="line2d_16">
      <g>
       <use xlink:href="#m8e13414422" x="90" y="111.432475" style="stroke: #000000; stroke-width: 0.8"/>
      </g>
     </g>
     <g id="text_17">
      <!-- $180 -->
      <g transform="translate(32.1 119.030913) scale(0.2 -0.2)">
       <use xlink:href="#DejaVuSans-24"/>
       <use xlink:href="#DejaVuSans-31" x="63.623047"/>
       <use xlink:href="#DejaVuSans-38" x="127.246094"/>
       <use xlink:href="#DejaVuSans-30" x="190.869141"/>
      </g>
     </g>
    </g>
   </g>
   <g id="line2d_17">
    <path d="M 622.636364 337.626763 
L 622.23184 363.789644 
L 621.827316 370.600085 
L 621.422793 379.298568 
L 621.018269 373.600724 
L 620.613745 383.78267 
L 620.209221 390.660541 
L 619.804698 393.560036 
L 619.400174 389.514229 
L 618.99565 390.424536 
L 618.591127 402.46081 
L 618.186603 396.45953 
L 617.782079 394.470342 
L 617.377555 387.491326 
L 616.973032 397.100116 
L 616.568508 397.706987 
L 616.163984 415.306245 
L 615.759461 423.768723 
L 615.354937 428.08425 
L 614.950413 438.063905 
L 614.54589 431.253464 
L 614.141366 428.960841 
L 613.736842 435.09698 
L 613.332318 434.490109 
L 612.927795 442.446862 
L 612.523271 438.333625 
L 612.118747 430.882599 
L 611.714224 435.804997 
L 611.3097 425.757911 
L 610.905176 431.084889 
L 610.500652 431.995196 
L 610.096129 422.08297 
L 609.691605 420.093782 
L 609.287081 409.540971 
L 608.882558 406.472901 
L 608.07351 417.936019 
L 607.668987 413.687922 
L 607.264463 420.060067 
L 606.859939 420.768083 
L 606.050892 400.943632 
L 605.241844 392.818304 
L 604.837321 406.708906 
L 604.432797 401.550503 
L 604.028273 403.371116 
L 603.623749 400.943632 
L 602.814702 406.574046 
L 602.410178 400.909917 
L 602.005655 398.516148 
L 601.196607 384.726692 
L 600.792084 386.243869 
L 600.38756 378.489407 
L 599.983036 392.514869 
L 599.578512 427.881959 
L 599.173989 414.935379 
L 598.364941 411.563874 
L 597.960418 417.228003 
L 597.555894 407.720358 
L 596.746846 372.926423 
L 596.342323 369.656063 
L 595.937799 344.201199 
L 595.128752 311.699888 
L 594.724228 314.329662 
L 594.319704 316.015415 
L 593.915181 329.737441 
L 593.510657 330.344312 
L 593.106133 325.99507 
L 592.701609 334.659839 
L 592.297086 357.88951 
L 591.892562 338.907935 
L 591.488038 337.660478 
L 591.083515 339.986817 
L 590.678991 335.064419 
L 590.274467 332.06378 
L 589.869943 312.711339 
L 589.46542 310.519861 
L 589.060896 310.04785 
L 588.656372 327.613393 
L 588.251849 337.323328 
L 587.847325 331.254618 
L 587.442801 320.432086 
L 587.038278 332.569505 
L 586.633754 330.074592 
L 586.22923 334.693554 
L 585.824706 322.79214 
L 585.420183 318.645189 
L 585.015659 306.339195 
L 584.611135 298.011577 
L 584.206612 301.821377 
L 583.397564 284.896421 
L 582.99304 290.729125 
L 582.588517 258.261529 
L 581.779469 280.614609 
L 581.374946 281.760921 
L 580.970422 293.122894 
L 580.565898 288.402787 
L 580.161375 287.35762 
L 579.756851 290.8977 
L 579.352327 284.28955 
L 578.54328 277.479109 
L 578.138756 255.46318 
L 577.734232 267.196018 
L 577.329709 267.802889 
L 576.925185 269.151491 
L 576.116137 238.538224 
L 575.711614 239.212525 
L 575.30709 230.176891 
L 574.902566 235.571299 
L 574.498043 234.323842 
L 574.093519 244.134922 
L 573.688995 237.223337 
L 573.284472 253.608852 
L 572.0709 237.627917 
L 571.666377 247.911008 
L 571.261853 265.982277 
L 570.857329 261.835325 
L 570.452806 263.318787 
L 570.048282 306.035759 
L 569.643758 310.452431 
L 569.239234 331.220903 
L 568.834711 309.879275 
L 568.430187 305.563748 
L 568.025663 298.112722 
L 567.62114 304.383721 
L 566.812092 334.760984 
L 566.407569 335.469 
L 566.003045 345.313795 
L 565.598521 346.089242 
L 565.193997 350.067618 
L 564.789474 341.537709 
L 564.38495 328.759704 
L 563.980426 326.096215 
L 563.575903 332.839226 
L 563.171379 335.637575 
L 562.362331 360.215849 
L 561.957808 351.079069 
L 561.553284 356.203757 
L 561.14876 336.581597 
L 560.744237 325.65792 
L 559.935189 350.977924 
L 559.530666 351.888231 
L 558.721618 368.813187 
L 558.317094 355.293451 
L 557.912571 373.364719 
L 557.508047 368.779472 
L 556.294476 309.744415 
L 555.485428 297.573281 
L 555.080905 305.799754 
L 554.676381 295.142426 
L 554.271857 308.045176 
L 553.867334 313.016461 
L 553.058286 343.805047 
L 552.653763 358.310948 
L 552.249239 367.329725 
L 551.844715 355.674431 
L 551.440191 355.5598 
L 550.631144 357.173065 
L 550.22662 329.337918 
L 549.822097 344.705239 
L 549.417573 337.137895 
L 549.013049 357.786679 
L 548.608525 363.04117 
L 548.204002 351.284731 
L 547.799478 351.520737 
L 547.394954 331.347335 
L 546.990431 325.836609 
L 546.585907 293.734822 
L 546.181383 299.382093 
L 545.77686 298.551017 
L 545.372336 299.287691 
L 544.967812 230.795562 
L 544.563288 252.472655 
L 544.158765 248.345932 
L 543.754241 225.814163 
L 543.349717 231.626638 
L 542.945194 218.322678 
L 542.54067 199.098355 
L 542.136146 185.216182 
L 541.731622 203.187991 
L 541.327099 206.824159 
L 540.922575 193.896123 
L 540.518051 209.922573 
L 540.113528 208.794804 
L 539.30448 186.33215 
L 538.899957 183.056733 
L 538.090909 150.722312 
L 537.686385 166.860022 
L 537.281862 168.756494 
L 536.472814 147.457009 
L 536.068291 148.551063 
L 535.663767 162.7687 
L 535.259243 166.558272 
L 534.854719 167.372491 
L 534.450196 162.379291 
L 534.045672 173.83398 
L 533.641148 174.646513 
L 532.832101 202.112481 
L 532.023054 240.045287 
L 531.61853 227.666805 
L 531.214006 223.307449 
L 530.809482 248.723541 
L 530.404959 259.72982 
L 530.000435 254.87991 
L 529.595911 227.274025 
L 529.191388 219.662851 
L 528.786864 205.657619 
L 528.38234 208.727374 
L 527.977816 200.56496 
L 527.573293 199.804685 
L 527.168769 207.999129 
L 526.764245 230.01843 
L 526.359722 211.911761 
L 525.550674 196.891705 
L 525.146151 185.266755 
L 523.932579 201.473581 
L 523.528056 182.222286 
L 523.123532 174.852175 
L 522.719008 174.096958 
L 522.314485 185.823053 
L 521.909961 186.821019 
L 521.505437 250.185089 
L 521.100913 210.512586 
L 520.69639 208.553742 
L 520.291866 214.01558 
L 519.482819 247.514856 
L 519.078295 250.094058 
L 518.673771 246.339887 
L 518.269247 230.972566 
L 517.864724 237.381797 
L 517.4602 206.955648 
L 517.055676 191.340522 
L 516.246629 171.654302 
L 515.842105 174.769573 
L 515.437582 161.307153 
L 515.033058 160.784569 
L 514.628534 173.852524 
L 514.22401 170.251756 
L 513.819487 167.891702 
L 513.414963 164.172932 
L 512.605916 143.783754 
L 512.201392 156.21618 
L 511.796868 149.717603 
L 511.392344 147.841361 
L 510.987821 142.918963 
L 510.583297 146.26181 
L 510.178773 141.545075 
L 509.77425 141.651277 
L 509.369726 143.74161 
L 508.965202 154.995695 
L 508.560679 145.088527 
L 508.156155 148.953957 
L 507.751631 133.970988 
L 507.347107 148.21054 
L 506.942584 146.605704 
L 506.133536 131.084979 
L 505.729013 124.385799 
L 505.324489 124.363884 
L 504.919965 140.533623 
L 504.515441 146.868681 
L 504.110918 138.849556 
L 503.706394 137.777417 
L 502.897347 117.910823 
L 502.492823 127.521298 
L 502.088299 114.734865 
L 501.683776 114.797238 
L 501.279252 116.056495 
L 500.874728 98.524667 
L 500.470204 95.239136 
L 500.065681 120.029814 
L 499.661157 121.428988 
L 499.256633 120.589484 
L 498.85211 124.050334 
L 498.447586 132.925821 
L 498.043062 131.315928 
L 497.638538 115.439509 
L 497.234015 130.147701 
L 496.829491 125.088757 
L 496.424967 132.167233 
L 495.61592 159.85572 
L 495.211396 158.952156 
L 494.806873 149.795148 
L 494.402349 137.296978 
L 493.997825 146.413528 
L 493.593301 149.181534 
L 493.188778 158.571176 
L 492.784254 156.012204 
L 492.37973 139.245708 
L 491.975207 142.608784 
L 491.570683 137.70493 
L 491.166159 137.26832 
L 490.761635 143.626979 
L 490.357112 162.028655 
L 489.952588 164.655057 
L 489.548064 170.883913 
L 489.143541 171.057546 
L 488.739017 163.923441 
L 488.334493 161.595416 
L 487.120922 180.58542 
L 486.716398 164.827004 
L 486.311875 164.52694 
L 485.502827 159.314593 
L 485.098304 144.169791 
L 484.69378 140.845487 
L 484.289256 142.450324 
L 483.480209 154.650116 
L 483.075685 152.610355 
L 482.671161 134.608202 
L 482.266638 130.272447 
L 481.862114 132.371209 
L 481.45759 136.718765 
L 481.053067 135.51008 
L 480.244019 130.960234 
L 479.839495 123.991332 
L 479.434972 126.723937 
L 479.030448 131.990229 
L 478.625924 134.507057 
L 478.221401 131.830082 
L 477.816877 133.214085 
L 477.412353 141.51136 
L 477.007829 153.638664 
L 476.603306 159.30785 
L 476.198782 162.143286 
L 475.794258 161.030689 
L 475.389735 167.758528 
L 474.985211 178.871009 
L 474.580687 180.927628 
L 474.176164 178.656919 
L 473.77164 171.789163 
L 473.367116 162.175315 
L 472.962592 163.021563 
L 472.558069 161.415041 
L 472.153545 163.335113 
L 471.344498 154.946808 
L 470.939974 154.429282 
L 470.53545 149.19502 
L 470.130926 152.780616 
L 469.726403 150.838629 
L 469.321879 156.698305 
L 468.917355 157.354063 
L 468.512832 111.445961 
L 468.108308 106.321273 
L 467.703784 106.983774 
L 467.299261 94.605293 
L 466.894737 101.884372 
L 466.490213 105.021558 
L 466.085689 113.927389 
L 465.681166 115.951978 
L 465.276642 119.930354 
L 464.872118 115.877805 
L 464.063071 97.663248 
L 463.658547 98.391493 
L 463.254023 91.447878 
L 462.8495 91.314703 
L 462.444976 89.28 
L 462.040452 95.151476 
L 461.635929 98.664585 
L 461.231405 126.439045 
L 460.826881 139.589602 
L 460.017834 137.032315 
L 459.61331 137.74876 
L 459.208786 144.901408 
L 458.399739 127.646044 
L 457.995215 127.372952 
L 457.590692 136.051207 
L 457.186168 130.498338 
L 456.781644 130.103871 
L 456.37712 142.576755 
L 455.972597 147.991393 
L 455.568073 147.866647 
L 455.163549 154.110675 
L 454.759026 153.635292 
L 454.354502 165.182698 
L 453.949978 168.05522 
L 453.545455 179.198045 
L 453.140931 177.814042 
L 452.736407 181.052373 
L 452.331883 173.132707 
L 451.92736 175.718652 
L 451.522836 174.973549 
L 451.118312 173.786779 
L 450.713789 167.878216 
L 450.309265 168.908211 
L 449.904741 171.278379 
L 449.500217 178.343369 
L 449.095694 170.824912 
L 448.69117 173.501887 
L 448.286646 173.420971 
L 447.882123 166.996568 
L 447.477599 175.002207 
L 447.073075 185.357785 
L 446.668552 186.964308 
L 446.264028 174.831946 
L 445.859504 180.465731 
L 445.45498 163.419401 
L 445.050457 160.93123 
L 444.645933 166.971281 
L 444.241409 160.004066 
L 443.432362 133.782184 
L 443.027838 133.126426 
L 442.623314 135.285875 
L 442.218791 142.209261 
L 441.814267 143.630351 
L 441.409743 155.113697 
L 441.00522 160.481134 
L 440.600696 151.550016 
L 440.196172 156.157178 
L 439.387125 145.24193 
L 438.982601 148.672437 
L 438.578077 156.442071 
L 438.173554 145.147528 
L 437.76903 148.621864 
L 437.364506 149.83392 
L 436.959983 162.123057 
L 436.555459 165.47939 
L 436.150935 174.847118 
L 435.746411 174.356564 
L 434.937364 196.718072 
L 434.53284 203.257107 
L 434.128317 199.811428 
L 433.723793 203.806662 
L 433.319269 204.779342 
L 432.510222 189.398534 
L 432.105698 193.887694 
L 431.701174 199.941231 
L 431.296651 207.859212 
L 430.892127 189.696913 
L 430.487603 197.09231 
L 430.08308 198.808406 
L 429.678556 197.491833 
L 429.274032 193.429169 
L 428.869508 202.860955 
L 428.464985 201.982678 
L 428.060461 220.677675 
L 427.655937 212.500089 
L 427.251414 216.358776 
L 426.84689 211.734757 
L 426.442366 196.642214 
L 426.037843 187.942044 
L 425.633319 196.911934 
L 425.228795 202.941871 
L 424.824271 185.684821 
L 424.419748 179.789745 
L 424.015224 182.10934 
L 423.206177 157.246175 
L 422.801653 160.548564 
L 422.397129 167.239316 
L 421.992605 165.762597 
L 421.588082 168.388999 
L 420.779034 161.162178 
L 420.374511 158.137938 
L 419.969987 153.213854 
L 419.16094 159.892806 
L 418.756416 148.519033 
L 418.351892 154.776547 
L 417.947368 177.817414 
L 417.542845 172.520779 
L 417.138321 173.370398 
L 416.733797 157.600183 
L 416.329274 163.016506 
L 415.92475 163.314884 
L 415.520226 160.826713 
L 415.115702 168.17828 
L 414.711179 192.220484 
L 414.306655 195.003662 
L 413.902131 191.089344 
L 413.497608 184.612683 
L 413.093084 192.208684 
L 412.68856 193.324652 
L 412.284037 181.778933 
L 411.474989 189.250188 
L 411.070465 175.742252 
L 410.665942 181.116432 
L 410.261418 169.265591 
L 409.452371 158.296398 
L 409.047847 164.709001 
L 408.643323 183.466371 
L 408.238799 181.345694 
L 407.834276 177.76347 
L 407.429752 177.820785 
L 407.025228 178.584431 
L 406.620705 172.780385 
L 406.216181 171.957738 
L 405.811657 184.742486 
L 405.407134 186.116374 
L 405.00261 192.952101 
L 404.598086 195.46893 
L 404.193562 195.012091 
L 403.789039 182.690925 
L 403.384515 185.942742 
L 402.979991 185.170667 
L 402.575468 181.099574 
L 401.76642 175.477589 
L 401.361896 184.250246 
L 400.957373 179.648141 
L 400.552849 181.379409 
L 400.148325 192.675638 
L 399.743802 195.991513 
L 399.339278 195.821252 
L 398.934754 192.850956 
L 398.530231 194.799686 
L 398.125707 189.708713 
L 397.721183 190.484159 
L 397.316659 190.863454 
L 396.912136 193.987153 
L 396.507612 189.417078 
L 396.103088 206.674127 
L 395.698565 188.346625 
L 395.294041 160.088354 
L 394.889517 158.296398 
L 394.484993 171.924023 
L 394.08047 204.416905 
L 393.675946 211.822416 
L 393.271422 206.483637 
L 392.866899 177.006567 
L 392.462375 185.136952 
L 392.057851 164.309478 
L 391.653328 177.675811 
L 391.248804 178.120849 
L 390.84428 182.840957 
L 390.439756 181.401324 
L 390.035233 175.995115 
L 389.630709 177.647153 
L 388.821662 155.48962 
L 388.417138 151.265124 
L 388.012614 137.792589 
L 387.60809 137.910592 
L 387.203567 164.255534 
L 386.799043 180.455617 
L 386.394519 179.58914 
L 385.989996 195.72685 
L 385.585472 178.997441 
L 385.180948 191.505725 
L 384.776425 175.27867 
L 384.371901 187.505434 
L 383.967377 188.154449 
L 383.562853 183.237109 
L 382.753806 209.241529 
L 382.349282 212.601234 
L 381.944759 190.83311 
L 381.540235 219.241413 
L 381.135711 220.178692 
L 380.731187 211.105971 
L 379.92214 186.257977 
L 379.517616 195.219438 
L 379.113093 192.985816 
L 378.708569 183.058419 
L 378.304045 167.296632 
L 377.899522 187.318316 
L 377.494998 162.911989 
L 377.090474 150.541936 
L 376.68595 122.98831 
L 376.281427 128.438348 
L 375.472379 144.844092 
L 375.067856 145.147528 
L 374.663332 138.092653 
L 374.258808 154.16799 
L 373.854284 160.747483 
L 373.449761 164.580884 
L 373.045237 162.448407 
L 372.640713 168.667149 
L 372.23619 159.899549 
L 371.831666 181.827819 
L 371.427142 187.625123 
L 371.022619 185.433644 
L 370.618095 185.227982 
L 370.213571 198.978667 
L 369.809047 187.601522 
L 369.404524 184.34802 
L 369 174.648199 
L 368.595476 178.014647 
L 368.190953 189.174329 
L 367.786429 193.715747 
L 367.381905 184.816659 
L 366.977381 203.831949 
L 366.572858 206.925305 
L 366.168334 212.522003 
L 365.76381 203.270593 
L 365.359287 211.075628 
L 364.954763 214.84497 
L 364.550239 195.735279 
L 364.145716 189.26536 
L 363.741192 179.395278 
L 363.336668 218.98855 
L 362.932144 212.594491 
L 362.527621 211.082371 
L 362.123097 198.417311 
L 361.718573 195.045806 
L 361.31405 178.862581 
L 360.909526 181.790733 
L 360.100478 212.557404 
L 359.695955 202.9621 
L 359.291431 231.07034 
L 358.886907 233.025813 
L 358.482384 253.234615 
L 358.07786 266.457659 
L 357.673336 264.352154 
L 357.268813 253.949374 
L 356.864289 257.351223 
L 356.459765 252.292279 
L 355.650718 267.362908 
L 355.246194 270.908046 
L 354.84167 273.099524 
L 354.437147 277.433594 
L 354.032623 284.613215 
L 353.628099 289.276006 
L 353.223575 287.094642 
L 352.819052 272.008842 
L 352.414528 279.862764 
L 352.010004 292.809344 
L 351.605481 299.731044 
L 351.200957 303.50713 
L 350.796433 300.50649 
L 350.39191 301.516256 
L 349.987386 301.747204 
L 349.582862 306.580257 
L 349.178338 313.537358 
L 348.369291 310.037736 
L 347.964767 307.505735 
L 347.560244 305.843583 
L 347.15572 297.21253 
L 346.751196 305.406973 
L 346.346672 309.296005 
L 345.537625 315.602405 
L 345.133101 319.130685 
L 344.728578 320.979956 
L 344.324054 312.205614 
L 343.91953 317.160041 
L 343.515007 319.182944 
L 343.110483 321.939149 
L 342.705959 327.579678 
L 342.301435 327.884799 
L 341.896912 332.933628 
L 341.492388 301.248222 
L 341.087864 318.32321 
L 340.683341 328.206778 
L 340.278817 317.768597 
L 339.874293 311.999952 
L 339.469769 313.815507 
L 338.660722 325.839981 
L 338.256198 314.799987 
L 337.851675 317.937173 
L 337.447151 312.34216 
L 337.042627 329.285659 
L 336.638104 333.392153 
L 335.829056 373.944618 
L 335.424532 373.90416 
L 335.020009 379.197423 
L 334.615485 381.559163 
L 334.210961 396.899512 
L 333.806438 394.83615 
L 333.401914 396.712393 
L 332.99739 389.62886 
L 332.592866 387.230034 
L 332.188343 397.993565 
L 331.783819 388.656181 
L 331.379295 400.397448 
L 330.974772 391.250555 
L 330.570248 397.533355 
L 330.165724 407.098315 
L 329.761201 401.225153 
L 329.356677 409.810691 
L 328.952153 413.546319 
L 328.547629 433.554517 
L 328.143106 417.396578 
L 327.738582 435.668451 
L 327.334058 411.351469 
L 326.929535 399.389368 
L 326.525011 414.765118 
L 326.120487 397.826676 
L 325.715963 393.959559 
L 325.31144 385.22736 
L 324.906916 396.494931 
L 324.502392 388.915787 
L 324.097869 400.749771 
L 323.693345 400.657054 
L 323.288821 384.593517 
L 322.884298 385.748258 
L 322.479774 379.586832 
L 322.07525 364.974728 
L 321.670726 355.344023 
L 321.266203 352.458015 
L 320.861679 354.910785 
L 320.457155 358.417151 
L 320.052632 355.888522 
L 319.648108 354.180854 
L 319.243584 355.731747 
L 318.83906 358.578983 
L 318.434537 367.788249 
L 318.030013 372.685361 
L 317.625489 374.431801 
L 317.220966 372.779763 
L 316.816442 380.44488 
L 316.411918 379.68292 
L 316.007395 402.953049 
L 315.602871 405.090584 
L 315.198347 405.891316 
L 314.793823 410.090526 
L 314.3893 404.47697 
L 313.984776 400.609853 
L 313.580252 400.124356 
L 313.175729 399.359025 
L 312.771205 403.957758 
L 312.366681 401.729193 
L 311.962157 404.412911 
L 311.557634 403.162083 
L 311.15311 399.477027 
L 310.748586 400.84923 
L 310.344063 397.833419 
L 309.939539 399.364082 
L 309.535015 396.853996 
L 309.130492 397.524926 
L 308.725968 402.229861 
L 308.321444 398.345887 
L 307.91692 406.803308 
L 307.512397 406.963455 
L 307.107873 403.101396 
L 306.703349 403.275028 
L 306.298826 416.686876 
L 305.894302 416.047976 
L 305.489778 417.143715 
L 305.085254 416.16935 
L 304.680731 417.560096 
L 304.276207 416.442442 
L 303.871683 420.058381 
L 303.46716 421.452499 
L 303.062636 421.55533 
L 302.253589 425.115639 
L 301.849065 423.379314 
L 301.444541 423.026992 
L 301.040017 424.901549 
L 300.635494 421.494642 
L 299.826446 417.969734 
L 299.017399 411.747621 
L 298.208351 419.277878 
L 297.803828 424.018214 
L 297.399304 425.874228 
L 296.99478 424.050243 
L 296.590257 422.826387 
L 296.185733 422.870217 
L 295.781209 425.068438 
L 295.376686 422.521266 
L 294.972162 422.772443 
L 294.567638 418.576605 
L 294.163114 419.647058 
L 293.758591 417.248232 
L 293.354067 416.857137 
L 292.54502 414.579685 
L 292.140496 414.082388 
L 291.331448 418.802496 
L 290.926925 418.24114 
L 290.522401 421.15412 
L 290.117877 418.731694 
L 289.713354 421.386754 
L 289.30883 418.107965 
L 288.904306 421.245151 
L 288.499783 420.645023 
L 288.095259 417.285318 
L 287.690735 422.030712 
L 287.286211 416.978511 
L 286.477164 420.366874 
L 286.07264 425.584278 
L 285.668117 426.344553 
L 285.263593 428.31014 
L 284.859069 428.018505 
L 284.454545 430.796625 
L 284.050022 426.219807 
L 283.645498 425.041466 
L 282.836451 429.495224 
L 282.431927 425.715767 
L 282.027403 425.671937 
L 281.62288 427.435235 
L 281.218356 425.009437 
L 280.813832 420.206727 
L 280.409308 424.711058 
L 280.004785 417.346005 
L 279.600261 415.852428 
L 279.195737 411.243581 
L 278.791214 411.924625 
L 278.38669 411.066577 
L 277.982166 413.546319 
L 277.577642 408.236198 
L 277.173119 407.526496 
L 276.768595 410.992404 
L 276.364071 411.403727 
L 275.959548 409.583114 
L 275.555024 409.218992 
L 275.1505 408.003564 
L 274.745977 414.763432 
L 273.936929 418.864868 
L 273.532405 417.160572 
L 273.127882 420.894515 
L 272.723358 421.302467 
L 272.318834 420.115697 
L 271.914311 423.360771 
L 271.509787 414.082388 
L 271.105263 410.899687 
L 270.700739 414.635315 
L 270.296216 412.150516 
L 269.891692 416.120463 
L 269.082645 421.111977 
L 268.678121 410.764827 
L 268.273597 417.410064 
L 267.46455 409.323508 
L 267.060026 415.980546 
L 266.655502 416.91951 
L 266.250979 420.746168 
L 265.846455 410.95026 
L 265.441931 405.542365 
L 265.037408 403.610493 
L 264.632884 398.258228 
L 264.22836 395.911661 
L 263.014789 381.01635 
L 262.610265 382.081746 
L 262.205742 383.575323 
L 261.801218 387.133947 
L 260.992171 382.496441 
L 260.587647 379.484001 
L 260.183123 377.614501 
L 259.374076 380.972521 
L 258.969552 378.218001 
L 258.160505 389.190565 
L 257.755981 390.776858 
L 256.946933 392.226605 
L 256.54241 394.269737 
L 256.137886 399.084247 
L 255.733362 397.28892 
L 255.328839 398.376231 
L 254.924315 401.673563 
L 254.519791 395.667226 
L 254.115268 396.105522 
L 253.710744 394.944039 
L 252.901696 397.779474 
L 252.092649 403.12331 
L 251.688125 403.017108 
L 251.283602 405.542365 
L 250.879078 404.129705 
L 250.474554 404.647231 
L 249.665507 422.561724 
L 249.260983 425.235328 
L 248.856459 426.74239 
L 248.451936 432.95776 
L 248.047412 419.07053 
L 247.642888 412.116801 
L 247.238365 411.63299 
L 246.833841 408.726752 
L 246.429317 410.943517 
L 246.024793 412.258404 
L 245.62027 404.807377 
L 245.215746 405.1715 
L 244.811222 404.927066 
L 244.406699 403.236256 
L 244.002175 396.734308 
L 243.193127 408.104709 
L 242.788604 411.044662 
L 242.38408 399.699547 
L 241.979556 398.032337 
L 241.575033 395.01484 
L 241.170509 394.470342 
L 240.765985 389.488943 
L 240.361462 387.481212 
L 239.956938 397.872191 
L 239.552414 396.068436 
L 238.743367 391.532075 
L 238.338843 389.475457 
L 237.934319 397.631128 
L 237.529796 397.715416 
L 237.125272 394.003389 
L 236.720748 400.149643 
L 236.316224 404.468541 
L 235.911701 403.9409 
L 235.507177 404.240964 
L 235.102653 407.303977 
L 234.69813 407.609098 
L 234.293606 407.438837 
L 233.889082 406.889282 
L 233.484559 408.826211 
L 233.080035 406.462786 
L 232.675511 408.583463 
L 232.270987 411.688619 
L 231.866464 411.378441 
L 231.46194 412.511267 
L 231.057416 412.475866 
L 230.652893 418.113023 
L 229.843845 420.65008 
L 229.439321 417.605611 
L 228.630274 420.806855 
L 228.22575 411.621189 
L 227.821227 415.328159 
L 227.416703 421.299095 
L 227.012179 424.620028 
L 226.203132 434.048442 
L 225.798608 433.274682 
L 225.394084 436.26015 
L 224.989561 436.678216 
L 224.585037 445.076636 
L 224.180513 444.208473 
L 223.77599 436.959737 
L 223.371466 433.00159 
L 222.966942 432.371118 
L 222.562418 436.491098 
L 222.157895 441.868649 
L 221.753371 441.656244 
L 220.944324 443.020018 
L 220.5398 443.262766 
L 220.135276 445.305898 
L 219.730753 444.857488 
L 219.326229 443.933696 
L 218.921705 447.242828 
L 218.112658 441.839991 
L 217.708134 442.175456 
L 217.30361 450.100179 
L 216.899087 450.568818 
L 216.090039 441.796161 
L 215.685515 438.66909 
L 215.280992 442.967759 
L 214.876468 444.161272 
L 214.471944 428.568061 
L 214.067421 436.710246 
L 213.662897 449.614682 
L 212.853849 436.686645 
L 212.044802 441.836619 
L 211.640278 443.159935 
L 211.235755 432.366061 
L 210.831231 432.868415 
L 210.022184 436.01403 
L 209.61766 445.681821 
L 209.213136 441.745589 
L 208.808612 439.1057 
L 208.404089 438.566259 
L 207.999565 439.045013 
L 207.595041 443.608345 
L 207.190518 452.731639 
L 206.785994 465.393327 
L 206.38147 458.844178 
L 205.976946 465.108435 
L 205.572423 469.145812 
L 205.167899 471.907075 
L 204.763375 470.346068 
L 204.358852 491.745012 
L 203.954328 486.099426 
L 203.549804 472.043621 
L 203.145281 466.269918 
L 202.740757 456.762273 
L 202.336233 461.915619 
L 201.527186 438.741578 
L 201.122662 437.871729 
L 200.718138 441.293807 
L 200.313615 441.666358 
L 199.909091 443.672404 
L 199.504567 431.862021 
L 199.100043 437.052453 
L 198.69552 419.527369 
L 198.290996 433.38257 
L 197.886472 436.180919 
L 197.481949 435.476275 
L 197.077425 451.71513 
L 196.672901 451.730302 
L 196.268378 465.093263 
L 195.863854 462.620264 
L 195.45933 466.205859 
L 195.054806 463.368738 
L 194.650283 449.693912 
L 194.245759 445.305898 
L 193.841235 448.749891 
L 193.436712 443.328511 
L 193.032188 442.371003 
L 192.627664 429.630085 
L 192.22314 422.469007 
L 191.818617 422.371234 
L 191.414093 441.366294 
L 191.009569 443.896609 
L 190.605046 437.536265 
L 190.200522 437.536265 
L 189.391475 460.312468 
L 188.986951 458.886322 
L 188.582427 441.366294 
L 188.177903 417.873646 
L 187.77338 437.76047 
L 187.368856 420.144355 
L 186.964332 416.671704 
L 186.559809 420.931601 
L 186.155285 419.803833 
L 185.750761 409.519056 
L 185.346237 411.503187 
L 184.941714 421.450813 
L 184.53719 416.788021 
L 184.132666 428.461858 
L 183.728143 422.411692 
L 183.323619 403.013736 
L 182.919095 404.00833 
L 182.110048 396.422444 
L 181.705524 389.116392 
L 181.301 385.989321 
L 180.896477 380.417908 
L 180.491953 380.64717 
L 180.087429 378.964789 
L 179.682906 385.392564 
L 179.278382 385.443137 
L 178.873858 392.218177 
L 178.469334 395.480108 
L 178.064811 390.542538 
L 177.660287 393.556664 
L 177.255763 391.090408 
L 176.85124 396.656763 
L 176.446716 386.178125 
L 176.042192 382.860564 
L 175.637669 382.838649 
L 175.233145 383.319088 
L 174.828621 391.434302 
L 174.424097 389.232709 
L 174.019574 388.180799 
L 173.210526 374.492488 
L 172.806003 379.010305 
L 172.401479 380.751687 
L 171.996955 381.473189 
L 171.592431 392.477782 
L 171.187908 393.344259 
L 170.783384 397.101802 
L 170.37886 397.521554 
L 169.974337 397.184404 
L 169.569813 400.8054 
L 169.165289 401.93654 
L 168.356242 400.282817 
L 167.951718 400.940261 
L 167.547194 394.697919 
L 167.142671 398.651009 
L 166.738147 400.319904 
L 166.333623 398.259914 
L 165.9291 400.282817 
L 165.524576 404.335366 
L 165.120052 406.81848 
L 164.715528 410.941831 
L 164.311005 409.08076 
L 163.906481 415.345017 
L 163.501957 418.671007 
L 163.097434 418.370943 
L 162.69291 411.956654 
L 162.288386 413.519347 
L 161.883863 404.144876 
L 161.074815 414.530798 
L 160.670291 412.558468 
L 160.265768 412.681528 
L 159.861244 407.632699 
L 159.45672 407.462438 
L 159.052197 411.076691 
L 158.647673 412.671413 
L 158.243149 415.437733 
L 157.838625 422.453836 
L 157.434102 424.464939 
L 157.029578 425.147668 
L 156.625054 429.93352 
L 156.220531 431.770991 
L 155.816007 432.74367 
L 155.411483 429.402508 
L 155.00696 431.75919 
L 154.602436 431.481041 
L 154.197912 438.382512 
L 153.793388 433.227481 
L 153.388865 437.937474 
L 152.984341 429.083901 
L 152.579817 426.631131 
L 152.175294 423.283226 
L 151.77077 425.862428 
L 151.366246 427.71507 
L 150.961722 429.033328 
L 150.557199 427.703269 
L 150.152675 430.906199 
L 149.748151 431.936194 
L 149.343628 433.559574 
L 148.939104 434.424365 
L 148.130057 432.44192 
L 147.725533 432.340775 
L 146.916485 441.580385 
L 146.511962 443.589802 
L 146.107438 444.387163 
L 145.702914 446.413438 
L 145.298391 446.871963 
L 144.893867 448.065475 
L 144.489343 448.269452 
L 144.084819 451.718501 
L 143.680296 451.034086 
L 143.275772 452.903585 
L 142.466725 450.727279 
L 142.062201 452.608579 
L 141.657677 448.323396 
L 141.253154 448.092447 
L 140.84863 447.052338 
L 140.444106 447.234399 
L 140.039582 449.865859 
L 139.635059 448.559401 
L 139.230535 451.79436 
L 138.826011 453.289623 
L 138.421488 453.694203 
L 138.016964 451.573527 
L 137.61244 454.292646 
L 137.207916 453.198592 
L 136.398869 472.154881 
L 135.994345 472.168367 
L 135.589822 462.429774 
L 135.185298 460.806394 
L 134.780774 455.84691 
L 133.971727 464.794885 
L 133.567203 475.302181 
L 133.162679 477.107622 
L 132.758156 474.122154 
L 132.353632 477.738093 
L 131.949108 476.192258 
L 131.544585 481.273117 
L 131.140061 481.416405 
L 130.735537 473.574284 
L 130.331013 480.516214 
L 129.521966 487.019847 
L 129.117442 474.317701 
L 128.712919 477.001419 
L 127.903871 456.023914 
L 127.499348 466.189002 
L 126.6903 451.640957 
L 126.285776 450.857082 
L 125.881253 457.866441 
L 125.476729 453.357053 
L 124.667682 450.100179 
L 124.263158 450.575561 
L 123.858634 448.854408 
L 123.45411 452.141625 
L 123.049587 456.698215 
L 122.240539 459.095355 
L 121.836016 461.460466 
L 121.431492 465.398384 
L 121.026968 466.544696 
L 120.622445 463.341766 
L 120.217921 463.420996 
L 119.813397 461.740301 
L 119.408873 465.440528 
L 119.00435 467.911841 
L 118.599826 468.319793 
L 118.195302 470.775935 
L 117.790779 474.090125 
L 117.386255 471.886846 
L 116.981731 473.692287 
L 115.76816 492.48 
L 115.363636 490.64253 
L 115.363636 490.64253 
" clip-path="url(#pac63c3062d)" style="fill: none; stroke: #1f77b4; stroke-width: 2; stroke-linecap: square"/>
   </g>
   <g id="patch_3">
    <path d="M 90 512.64 
L 90 69.12 
" style="fill: none; stroke: #000000; stroke-width: 0.8; stroke-linejoin: miter; stroke-linecap: square"/>
   </g>
   <g id="patch_4">
    <path d="M 648 512.64 
L 648 69.12 
" style="fill: none; stroke: #000000; stroke-width: 0.8; stroke-linejoin: miter; stroke-linecap: square"/>
   </g>
   <g id="patch_5">
    <path d="M 90 512.64 
L 648 512.64 
" style="fill: none; stroke: #000000; stroke-width: 0.8; stroke-linejoin: miter; stroke-linecap: square"/>
   </g>
   <g id="patch_6">
    <path d="M 90 69.12 
L 648 69.12 
" style="fill: none; stroke: #000000; stroke-width: 0.8; stroke-linejoin: miter; stroke-linecap: square"/>
   </g>
   <g id="text_18">
    <!-- Last price $112.91 -->
    <g transform="translate(182.14375 60.80125) scale(0.4 -0.4)">
     <defs>
      <path id="DejaVuSans-4c" d="M 628 4666 
L 1259 4666 
L 1259 531 
L 3531 531 
L 3531 0 
L 628 0 
L 628 4666 
z
" transform="scale(0.015625)"/>
      <path id="DejaVuSans-70" d="M 1159 525 
L 1159 -1331 
L 581 -1331 
L 581 3500 
L 1159 3500 
L 1159 2969 
Q 1341 3281 1617 3432 
Q 1894 3584 2278 3584 
Q 2916 3584 3314 3078 
Q 3713 2572 3713 1747 
Q 3713 922 3314 415 
Q 2916 -91 2278 -91 
Q 1894 -91 1617 61 
Q 1341 213 1159 525 
z
M 3116 1747 
Q 3116 2381 2855 2742 
Q 2594 3103 2138 3103 
Q 1681 3103 1420 2742 
Q 1159 2381 1159 1747 
Q 1159 1113 1420 752 
Q 1681 391 2138 391 
Q 2594 391 2855 752 
Q 3116 1113 3116 1747 
z
" transform="scale(0.015625)"/>
      <path id="DejaVuSans-63" d="M 3122 3366 
L 3122 2828 
Q 2878 2963 2633 3030 
Q 2388 3097 2138 3097 
Q 1578 3097 1268 2742 
Q 959 2388 959 1747 
Q 959 1106 1268 751 
Q 1578 397 2138 397 
Q 2388 397 2633 464 
Q 2878 531 3122 666 
L 3122 134 
Q 2881 22 2623 -34 
Q 2366 -91 2075 -91 
Q 1284 -91 818 406 
Q 353 903 353 1747 
Q 353 2603 823 3093 
Q 1294 3584 2113 3584 
Q 2378 3584 2631 3529 
Q 2884 3475 3122 3366 
z
" transform="scale(0.015625)"/>
      <path id="DejaVuSans-2e" d="M 684 794 
L 1344 794 
L 1344 0 
L 684 0 
L 684 794 
z
" transform="scale(0.015625)"/>
     </defs>
     <use xlink:href="#DejaVuSans-4c"/>
     <use xlink:href="#DejaVuSans-61" x="55.712891"/>
     <use xlink:href="#DejaVuSans-73" x="116.992188"/>
     <use xlink:href="#DejaVuSans-74" x="169.091797"/>
     <use xlink:href="#DejaVuSans-20" x="208.300781"/>
     <use xlink:href="#DejaVuSans-70" x="240.087891"/>
     <use xlink:href="#DejaVuSans-72" x="303.564453"/>
     <use xlink:href="#DejaVuSans-69" x="344.677734"/>
     <use xlink:href="#DejaVuSans-63" x="372.460938"/>
     <use xlink:href="#DejaVuSans-65" x="427.441406"/>
     <use xlink:href="#DejaVuSans-20" x="488.964844"/>
     <use xlink:href="#DejaVuSans-24" x="520.751953"/>
     <use xlink:href="#DejaVuSans-31" x="584.375"/>
     <use xlink:href="#DejaVuSans-31" x="647.998047"/>
     <use xlink:href="#DejaVuSans-32" x="711.621094"/>
     <use xlink:href="#DejaVuSans-2e" x="775.244141"/>
     <use xlink:href="#DejaVuSans-39" x="807.03125"/>
     <use xlink:href="#DejaVuSans-31" x="870.654297"/>
    </g>
   </g>
  </g>
 </g>
 <defs>
  <clipPath id="pac63c3062d">
   <rect x="90" y="69.12" width="558" height="443.52"/>
  </clipPath>
 </defs>
</svg>
