<?xml version="1.0" encoding="utf-8" standalone="no"?>
<!DOCTYPE svg PUBLIC "-//W3C//DTD SVG 1.1//EN"
  "http://www.w3.org/Graphics/SVG/1.1/DTD/svg11.dtd">
<svg xmlns:xlink="http://www.w3.org/1999/xlink" width="720pt" height="576pt" viewBox="0 0 720 576" xmlns="http://www.w3.org/2000/svg" version="1.1">
 <metadata>
  <rdf:RDF xmlns:dc="http://purl.org/dc/elements/1.1/" xmlns:cc="http://creativecommons.org/ns#" xmlns:rdf="http://www.w3.org/1999/02/22-rdf-syntax-ns#">
   <cc:Work>
    <dc:type rdf:resource="http://purl.org/dc/dcmitype/StillImage"/>
    <dc:date>2023-01-28T21:02:20.321941</dc:date>
    <dc:format>image/svg+xml</dc:format>
    <dc:creator>
     <cc:Agent>
      <dc:title>Matplotlib v3.6.2, https://matplotlib.org/</dc:title>
     </cc:Agent>
    </dc:creator>
   </cc:Work>
  </rdf:RDF>
 </metadata>
 <defs>
  <style type="text/css">*{stroke-linejoin: round; stroke-linecap: butt}</style>
 </defs>
 <g id="figure_1">
  <g id="patch_1">
   <path d="M 0 576 
L 720 576 
L 720 0 
L 0 0 
z
" style="fill: #ffffff"/>
  </g>
  <g id="axes_1">
   <g id="patch_2">
    <path d="M 90 512.64 
L 648 512.64 
L 648 69.12 
L 90 69.12 
z
" style="fill: #ffffff"/>
   </g>
   <g id="matplotlib.axis_1">
    <g id="xtick_1">
     <g id="line2d_1">
      <defs>
       <path id="mf6d7cfe68e" d="M 0 0 
L 0 3.5 
" style="stroke: #000000; stroke-width: 0.8"/>
      </defs>
      <g>
       <use xlink:href="#mf6d7cfe68e" x="622.636364" y="512.64" style="stroke: #000000; stroke-width: 0.8"/>
      </g>
     </g>
     <g id="text_1">
      <!-- 2023-01-27 -->
      <g transform="translate(597.998393 552.794199) rotate(-27) scale(0.1 -0.1)">
       <defs>
        <path id="DejaVuSans-32" d="M 1228 531 
L 3431 531 
L 3431 0 
L 469 0 
L 469 531 
Q 828 903 1448 1529 
Q 2069 2156 2228 2338 
Q 2531 2678 2651 2914 
Q 2772 3150 2772 3378 
Q 2772 3750 2511 3984 
Q 2250 4219 1831 4219 
Q 1534 4219 1204 4116 
Q 875 4013 500 3803 
L 500 4441 
Q 881 4594 1212 4672 
Q 1544 4750 1819 4750 
Q 2544 4750 2975 4387 
Q 3406 4025 3406 3419 
Q 3406 3131 3298 2873 
Q 3191 2616 2906 2266 
Q 2828 2175 2409 1742 
Q 1991 1309 1228 531 
z
" transform="scale(0.015625)"/>
        <path id="DejaVuSans-30" d="M 2034 4250 
Q 1547 4250 1301 3770 
Q 1056 3291 1056 2328 
Q 1056 1369 1301 889 
Q 1547 409 2034 409 
Q 2525 409 2770 889 
Q 3016 1369 3016 2328 
Q 3016 3291 2770 3770 
Q 2525 4250 2034 4250 
z
M 2034 4750 
Q 2819 4750 3233 4129 
Q 3647 3509 3647 2328 
Q 3647 1150 3233 529 
Q 2819 -91 2034 -91 
Q 1250 -91 836 529 
Q 422 1150 422 2328 
Q 422 3509 836 4129 
Q 1250 4750 2034 4750 
z
" transform="scale(0.015625)"/>
        <path id="DejaVuSans-33" d="M 2597 2516 
Q 3050 2419 3304 2112 
Q 3559 1806 3559 1356 
Q 3559 666 3084 287 
Q 2609 -91 1734 -91 
Q 1441 -91 1130 -33 
Q 819 25 488 141 
L 488 750 
Q 750 597 1062 519 
Q 1375 441 1716 441 
Q 2309 441 2620 675 
Q 2931 909 2931 1356 
Q 2931 1769 2642 2001 
Q 2353 2234 1838 2234 
L 1294 2234 
L 1294 2753 
L 1863 2753 
Q 2328 2753 2575 2939 
Q 2822 3125 2822 3475 
Q 2822 3834 2567 4026 
Q 2313 4219 1838 4219 
Q 1578 4219 1281 4162 
Q 984 4106 628 3988 
L 628 4550 
Q 988 4650 1302 4700 
Q 1616 4750 1894 4750 
Q 2613 4750 3031 4423 
Q 3450 4097 3450 3541 
Q 3450 3153 3228 2886 
Q 3006 2619 2597 2516 
z
" transform="scale(0.015625)"/>
        <path id="DejaVuSans-2d" d="M 313 2009 
L 1997 2009 
L 1997 1497 
L 313 1497 
L 313 2009 
z
" transform="scale(0.015625)"/>
        <path id="DejaVuSans-31" d="M 794 531 
L 1825 531 
L 1825 4091 
L 703 3866 
L 703 4441 
L 1819 4666 
L 2450 4666 
L 2450 531 
L 3481 531 
L 3481 0 
L 794 0 
L 794 531 
z
" transform="scale(0.015625)"/>
        <path id="DejaVuSans-37" d="M 525 4666 
L 3525 4666 
L 3525 4397 
L 1831 0 
L 1172 0 
L 2766 4134 
L 525 4134 
L 525 4666 
z
" transform="scale(0.015625)"/>
       </defs>
       <use xlink:href="#DejaVuSans-32"/>
       <use xlink:href="#DejaVuSans-30" x="63.623047"/>
       <use xlink:href="#DejaVuSans-32" x="127.246094"/>
       <use xlink:href="#DejaVuSans-33" x="190.869141"/>
       <use xlink:href="#DejaVuSans-2d" x="254.492188"/>
       <use xlink:href="#DejaVuSans-30" x="290.576172"/>
       <use xlink:href="#DejaVuSans-31" x="354.199219"/>
       <use xlink:href="#DejaVuSans-2d" x="417.822266"/>
       <use xlink:href="#DejaVuSans-32" x="453.90625"/>
       <use xlink:href="#DejaVuSans-37" x="517.529297"/>
      </g>
     </g>
    </g>
    <g id="xtick_2">
     <g id="line2d_2">
      <g>
       <use xlink:href="#mf6d7cfe68e" x="571.666377" y="512.64" style="stroke: #000000; stroke-width: 0.8"/>
      </g>
     </g>
     <g id="text_2">
      <!-- 2022-07-28 -->
      <g transform="translate(547.028406 552.794199) rotate(-27) scale(0.1 -0.1)">
       <defs>
        <path id="DejaVuSans-38" d="M 2034 2216 
Q 1584 2216 1326 1975 
Q 1069 1734 1069 1313 
Q 1069 891 1326 650 
Q 1584 409 2034 409 
Q 2484 409 2743 651 
Q 3003 894 3003 1313 
Q 3003 1734 2745 1975 
Q 2488 2216 2034 2216 
z
M 1403 2484 
Q 997 2584 770 2862 
Q 544 3141 544 3541 
Q 544 4100 942 4425 
Q 1341 4750 2034 4750 
Q 2731 4750 3128 4425 
Q 3525 4100 3525 3541 
Q 3525 3141 3298 2862 
Q 3072 2584 2669 2484 
Q 3125 2378 3379 2068 
Q 3634 1759 3634 1313 
Q 3634 634 3220 271 
Q 2806 -91 2034 -91 
Q 1263 -91 848 271 
Q 434 634 434 1313 
Q 434 1759 690 2068 
Q 947 2378 1403 2484 
z
M 1172 3481 
Q 1172 3119 1398 2916 
Q 1625 2713 2034 2713 
Q 2441 2713 2670 2916 
Q 2900 3119 2900 3481 
Q 2900 3844 2670 4047 
Q 2441 4250 2034 4250 
Q 1625 4250 1398 4047 
Q 1172 3844 1172 3481 
z
" transform="scale(0.015625)"/>
       </defs>
       <use xlink:href="#DejaVuSans-32"/>
       <use xlink:href="#DejaVuSans-30" x="63.623047"/>
       <use xlink:href="#DejaVuSans-32" x="127.246094"/>
       <use xlink:href="#DejaVuSans-32" x="190.869141"/>
       <use xlink:href="#DejaVuSans-2d" x="254.492188"/>
       <use xlink:href="#DejaVuSans-30" x="290.576172"/>
       <use xlink:href="#DejaVuSans-37" x="354.199219"/>
       <use xlink:href="#DejaVuSans-2d" x="417.822266"/>
       <use xlink:href="#DejaVuSans-32" x="453.90625"/>
       <use xlink:href="#DejaVuSans-38" x="517.529297"/>
      </g>
     </g>
    </g>
    <g id="xtick_3">
     <g id="line2d_3">
      <g>
       <use xlink:href="#mf6d7cfe68e" x="520.69639" y="512.64" style="stroke: #000000; stroke-width: 0.8"/>
      </g>
     </g>
     <g id="text_3">
      <!-- 2022-01-26 -->
      <g transform="translate(496.058419 552.794199) rotate(-27) scale(0.1 -0.1)">
       <defs>
        <path id="DejaVuSans-36" d="M 2113 2584 
Q 1688 2584 1439 2293 
Q 1191 2003 1191 1497 
Q 1191 994 1439 701 
Q 1688 409 2113 409 
Q 2538 409 2786 701 
Q 3034 994 3034 1497 
Q 3034 2003 2786 2293 
Q 2538 2584 2113 2584 
z
M 3366 4563 
L 3366 3988 
Q 3128 4100 2886 4159 
Q 2644 4219 2406 4219 
Q 1781 4219 1451 3797 
Q 1122 3375 1075 2522 
Q 1259 2794 1537 2939 
Q 1816 3084 2150 3084 
Q 2853 3084 3261 2657 
Q 3669 2231 3669 1497 
Q 3669 778 3244 343 
Q 2819 -91 2113 -91 
Q 1303 -91 875 529 
Q 447 1150 447 2328 
Q 447 3434 972 4092 
Q 1497 4750 2381 4750 
Q 2619 4750 2861 4703 
Q 3103 4656 3366 4563 
z
" transform="scale(0.015625)"/>
       </defs>
       <use xlink:href="#DejaVuSans-32"/>
       <use xlink:href="#DejaVuSans-30" x="63.623047"/>
       <use xlink:href="#DejaVuSans-32" x="127.246094"/>
       <use xlink:href="#DejaVuSans-32" x="190.869141"/>
       <use xlink:href="#DejaVuSans-2d" x="254.492188"/>
       <use xlink:href="#DejaVuSans-30" x="290.576172"/>
       <use xlink:href="#DejaVuSans-31" x="354.199219"/>
       <use xlink:href="#DejaVuSans-2d" x="417.822266"/>
       <use xlink:href="#DejaVuSans-32" x="453.90625"/>
       <use xlink:href="#DejaVuSans-36" x="517.529297"/>
      </g>
     </g>
    </g>
    <g id="xtick_4">
     <g id="line2d_4">
      <g>
       <use xlink:href="#mf6d7cfe68e" x="469.726403" y="512.64" style="stroke: #000000; stroke-width: 0.8"/>
      </g>
     </g>
     <g id="text_4">
      <!-- 2021-07-28 -->
      <g transform="translate(445.088432 552.794199) rotate(-27) scale(0.1 -0.1)">
       <use xlink:href="#DejaVuSans-32"/>
       <use xlink:href="#DejaVuSans-30" x="63.623047"/>
       <use xlink:href="#DejaVuSans-32" x="127.246094"/>
       <use xlink:href="#DejaVuSans-31" x="190.869141"/>
       <use xlink:href="#DejaVuSans-2d" x="254.492188"/>
       <use xlink:href="#DejaVuSans-30" x="290.576172"/>
       <use xlink:href="#DejaVuSans-37" x="354.199219"/>
       <use xlink:href="#DejaVuSans-2d" x="417.822266"/>
       <use xlink:href="#DejaVuSans-32" x="453.90625"/>
       <use xlink:href="#DejaVuSans-38" x="517.529297"/>
      </g>
     </g>
    </g>
    <g id="xtick_5">
     <g id="line2d_5">
      <g>
       <use xlink:href="#mf6d7cfe68e" x="418.756416" y="512.64" style="stroke: #000000; stroke-width: 0.8"/>
      </g>
     </g>
     <g id="text_5">
      <!-- 2021-01-27 -->
      <g transform="translate(394.118445 552.794199) rotate(-27) scale(0.1 -0.1)">
       <use xlink:href="#DejaVuSans-32"/>
       <use xlink:href="#DejaVuSans-30" x="63.623047"/>
       <use xlink:href="#DejaVuSans-32" x="127.246094"/>
       <use xlink:href="#DejaVuSans-31" x="190.869141"/>
       <use xlink:href="#DejaVuSans-2d" x="254.492188"/>
       <use xlink:href="#DejaVuSans-30" x="290.576172"/>
       <use xlink:href="#DejaVuSans-31" x="354.199219"/>
       <use xlink:href="#DejaVuSans-2d" x="417.822266"/>
       <use xlink:href="#DejaVuSans-32" x="453.90625"/>
       <use xlink:href="#DejaVuSans-37" x="517.529297"/>
      </g>
     </g>
    </g>
    <g id="xtick_6">
     <g id="line2d_6">
      <g>
       <use xlink:href="#mf6d7cfe68e" x="367.786429" y="512.64" style="stroke: #000000; stroke-width: 0.8"/>
      </g>
     </g>
     <g id="text_6">
      <!-- 2020-07-28 -->
      <g transform="translate(343.148458 552.794199) rotate(-27) scale(0.1 -0.1)">
       <use xlink:href="#DejaVuSans-32"/>
       <use xlink:href="#DejaVuSans-30" x="63.623047"/>
       <use xlink:href="#DejaVuSans-32" x="127.246094"/>
       <use xlink:href="#DejaVuSans-30" x="190.869141"/>
       <use xlink:href="#DejaVuSans-2d" x="254.492188"/>
       <use xlink:href="#DejaVuSans-30" x="290.576172"/>
       <use xlink:href="#DejaVuSans-37" x="354.199219"/>
       <use xlink:href="#DejaVuSans-2d" x="417.822266"/>
       <use xlink:href="#DejaVuSans-32" x="453.90625"/>
       <use xlink:href="#DejaVuSans-38" x="517.529297"/>
      </g>
     </g>
    </g>
    <g id="xtick_7">
     <g id="line2d_7">
      <g>
       <use xlink:href="#mf6d7cfe68e" x="316.816442" y="512.64" style="stroke: #000000; stroke-width: 0.8"/>
      </g>
     </g>
     <g id="text_7">
      <!-- 2020-01-28 -->
      <g transform="translate(292.178471 552.794199) rotate(-27) scale(0.1 -0.1)">
       <use xlink:href="#DejaVuSans-32"/>
       <use xlink:href="#DejaVuSans-30" x="63.623047"/>
       <use xlink:href="#DejaVuSans-32" x="127.246094"/>
       <use xlink:href="#DejaVuSans-30" x="190.869141"/>
       <use xlink:href="#DejaVuSans-2d" x="254.492188"/>
       <use xlink:href="#DejaVuSans-30" x="290.576172"/>
       <use xlink:href="#DejaVuSans-31" x="354.199219"/>
       <use xlink:href="#DejaVuSans-2d" x="417.822266"/>
       <use xlink:href="#DejaVuSans-32" x="453.90625"/>
       <use xlink:href="#DejaVuSans-38" x="517.529297"/>
      </g>
     </g>
    </g>
    <g id="xtick_8">
     <g id="line2d_8">
      <g>
       <use xlink:href="#mf6d7cfe68e" x="265.846455" y="512.64" style="stroke: #000000; stroke-width: 0.8"/>
      </g>
     </g>
     <g id="text_8">
      <!-- 2019-07-29 -->
      <g transform="translate(241.208484 552.794199) rotate(-27) scale(0.1 -0.1)">
       <defs>
        <path id="DejaVuSans-39" d="M 703 97 
L 703 672 
Q 941 559 1184 500 
Q 1428 441 1663 441 
Q 2288 441 2617 861 
Q 2947 1281 2994 2138 
Q 2813 1869 2534 1725 
Q 2256 1581 1919 1581 
Q 1219 1581 811 2004 
Q 403 2428 403 3163 
Q 403 3881 828 4315 
Q 1253 4750 1959 4750 
Q 2769 4750 3195 4129 
Q 3622 3509 3622 2328 
Q 3622 1225 3098 567 
Q 2575 -91 1691 -91 
Q 1453 -91 1209 -44 
Q 966 3 703 97 
z
M 1959 2075 
Q 2384 2075 2632 2365 
Q 2881 2656 2881 3163 
Q 2881 3666 2632 3958 
Q 2384 4250 1959 4250 
Q 1534 4250 1286 3958 
Q 1038 3666 1038 3163 
Q 1038 2656 1286 2365 
Q 1534 2075 1959 2075 
z
" transform="scale(0.015625)"/>
       </defs>
       <use xlink:href="#DejaVuSans-32"/>
       <use xlink:href="#DejaVuSans-30" x="63.623047"/>
       <use xlink:href="#DejaVuSans-31" x="127.246094"/>
       <use xlink:href="#DejaVuSans-39" x="190.869141"/>
       <use xlink:href="#DejaVuSans-2d" x="254.492188"/>
       <use xlink:href="#DejaVuSans-30" x="290.576172"/>
       <use xlink:href="#DejaVuSans-37" x="354.199219"/>
       <use xlink:href="#DejaVuSans-2d" x="417.822266"/>
       <use xlink:href="#DejaVuSans-32" x="453.90625"/>
       <use xlink:href="#DejaVuSans-39" x="517.529297"/>
      </g>
     </g>
    </g>
    <g id="xtick_9">
     <g id="line2d_9">
      <g>
       <use xlink:href="#mf6d7cfe68e" x="214.876468" y="512.64" style="stroke: #000000; stroke-width: 0.8"/>
      </g>
     </g>
     <g id="text_9">
      <!-- 2019-01-28 -->
      <g transform="translate(190.238498 552.794199) rotate(-27) scale(0.1 -0.1)">
       <use xlink:href="#DejaVuSans-32"/>
       <use xlink:href="#DejaVuSans-30" x="63.623047"/>
       <use xlink:href="#DejaVuSans-31" x="127.246094"/>
       <use xlink:href="#DejaVuSans-39" x="190.869141"/>
       <use xlink:href="#DejaVuSans-2d" x="254.492188"/>
       <use xlink:href="#DejaVuSans-30" x="290.576172"/>
       <use xlink:href="#DejaVuSans-31" x="354.199219"/>
       <use xlink:href="#DejaVuSans-2d" x="417.822266"/>
       <use xlink:href="#DejaVuSans-32" x="453.90625"/>
       <use xlink:href="#DejaVuSans-38" x="517.529297"/>
      </g>
     </g>
    </g>
    <g id="xtick_10">
     <g id="line2d_10">
      <g>
       <use xlink:href="#mf6d7cfe68e" x="163.906481" y="512.64" style="stroke: #000000; stroke-width: 0.8"/>
      </g>
     </g>
     <g id="text_10">
      <!-- 2018-07-26 -->
      <g transform="translate(139.268511 552.794199) rotate(-27) scale(0.1 -0.1)">
       <use xlink:href="#DejaVuSans-32"/>
       <use xlink:href="#DejaVuSans-30" x="63.623047"/>
       <use xlink:href="#DejaVuSans-31" x="127.246094"/>
       <use xlink:href="#DejaVuSans-38" x="190.869141"/>
       <use xlink:href="#DejaVuSans-2d" x="254.492188"/>
       <use xlink:href="#DejaVuSans-30" x="290.576172"/>
       <use xlink:href="#DejaVuSans-37" x="354.199219"/>
       <use xlink:href="#DejaVuSans-2d" x="417.822266"/>
       <use xlink:href="#DejaVuSans-32" x="453.90625"/>
       <use xlink:href="#DejaVuSans-36" x="517.529297"/>
      </g>
     </g>
    </g>
    <g id="text_11">
     <!-- Time in 1255 trading days -->
     <g transform="translate(303.339063 566.245652) scale(0.1 -0.1)">
      <defs>
       <path id="DejaVuSans-54" d="M -19 4666 
L 3928 4666 
L 3928 4134 
L 2272 4134 
L 2272 0 
L 1638 0 
L 1638 4134 
L -19 4134 
L -19 4666 
z
" transform="scale(0.015625)"/>
       <path id="DejaVuSans-69" d="M 603 3500 
L 1178 3500 
L 1178 0 
L 603 0 
L 603 3500 
z
M 603 4863 
L 1178 4863 
L 1178 4134 
L 603 4134 
L 603 4863 
z
" transform="scale(0.015625)"/>
       <path id="DejaVuSans-6d" d="M 3328 2828 
Q 3544 3216 3844 3400 
Q 4144 3584 4550 3584 
Q 5097 3584 5394 3201 
Q 5691 2819 5691 2113 
L 5691 0 
L 5113 0 
L 5113 2094 
Q 5113 2597 4934 2840 
Q 4756 3084 4391 3084 
Q 3944 3084 3684 2787 
Q 3425 2491 3425 1978 
L 3425 0 
L 2847 0 
L 2847 2094 
Q 2847 2600 2669 2842 
Q 2491 3084 2119 3084 
Q 1678 3084 1418 2786 
Q 1159 2488 1159 1978 
L 1159 0 
L 581 0 
L 581 3500 
L 1159 3500 
L 1159 2956 
Q 1356 3278 1631 3431 
Q 1906 3584 2284 3584 
Q 2666 3584 2933 3390 
Q 3200 3197 3328 2828 
z
" transform="scale(0.015625)"/>
       <path id="DejaVuSans-65" d="M 3597 1894 
L 3597 1613 
L 953 1613 
Q 991 1019 1311 708 
Q 1631 397 2203 397 
Q 2534 397 2845 478 
Q 3156 559 3463 722 
L 3463 178 
Q 3153 47 2828 -22 
Q 2503 -91 2169 -91 
Q 1331 -91 842 396 
Q 353 884 353 1716 
Q 353 2575 817 3079 
Q 1281 3584 2069 3584 
Q 2775 3584 3186 3129 
Q 3597 2675 3597 1894 
z
M 3022 2063 
Q 3016 2534 2758 2815 
Q 2500 3097 2075 3097 
Q 1594 3097 1305 2825 
Q 1016 2553 972 2059 
L 3022 2063 
z
" transform="scale(0.015625)"/>
       <path id="DejaVuSans-20" transform="scale(0.015625)"/>
       <path id="DejaVuSans-6e" d="M 3513 2113 
L 3513 0 
L 2938 0 
L 2938 2094 
Q 2938 2591 2744 2837 
Q 2550 3084 2163 3084 
Q 1697 3084 1428 2787 
Q 1159 2491 1159 1978 
L 1159 0 
L 581 0 
L 581 3500 
L 1159 3500 
L 1159 2956 
Q 1366 3272 1645 3428 
Q 1925 3584 2291 3584 
Q 2894 3584 3203 3211 
Q 3513 2838 3513 2113 
z
" transform="scale(0.015625)"/>
       <path id="DejaVuSans-35" d="M 691 4666 
L 3169 4666 
L 3169 4134 
L 1269 4134 
L 1269 2991 
Q 1406 3038 1543 3061 
Q 1681 3084 1819 3084 
Q 2600 3084 3056 2656 
Q 3513 2228 3513 1497 
Q 3513 744 3044 326 
Q 2575 -91 1722 -91 
Q 1428 -91 1123 -41 
Q 819 9 494 109 
L 494 744 
Q 775 591 1075 516 
Q 1375 441 1709 441 
Q 2250 441 2565 725 
Q 2881 1009 2881 1497 
Q 2881 1984 2565 2268 
Q 2250 2553 1709 2553 
Q 1456 2553 1204 2497 
Q 953 2441 691 2322 
L 691 4666 
z
" transform="scale(0.015625)"/>
       <path id="DejaVuSans-74" d="M 1172 4494 
L 1172 3500 
L 2356 3500 
L 2356 3053 
L 1172 3053 
L 1172 1153 
Q 1172 725 1289 603 
Q 1406 481 1766 481 
L 2356 481 
L 2356 0 
L 1766 0 
Q 1100 0 847 248 
Q 594 497 594 1153 
L 594 3053 
L 172 3053 
L 172 3500 
L 594 3500 
L 594 4494 
L 1172 4494 
z
" transform="scale(0.015625)"/>
       <path id="DejaVuSans-72" d="M 2631 2963 
Q 2534 3019 2420 3045 
Q 2306 3072 2169 3072 
Q 1681 3072 1420 2755 
Q 1159 2438 1159 1844 
L 1159 0 
L 581 0 
L 581 3500 
L 1159 3500 
L 1159 2956 
Q 1341 3275 1631 3429 
Q 1922 3584 2338 3584 
Q 2397 3584 2469 3576 
Q 2541 3569 2628 3553 
L 2631 2963 
z
" transform="scale(0.015625)"/>
       <path id="DejaVuSans-61" d="M 2194 1759 
Q 1497 1759 1228 1600 
Q 959 1441 959 1056 
Q 959 750 1161 570 
Q 1363 391 1709 391 
Q 2188 391 2477 730 
Q 2766 1069 2766 1631 
L 2766 1759 
L 2194 1759 
z
M 3341 1997 
L 3341 0 
L 2766 0 
L 2766 531 
Q 2569 213 2275 61 
Q 1981 -91 1556 -91 
Q 1019 -91 701 211 
Q 384 513 384 1019 
Q 384 1609 779 1909 
Q 1175 2209 1959 2209 
L 2766 2209 
L 2766 2266 
Q 2766 2663 2505 2880 
Q 2244 3097 1772 3097 
Q 1472 3097 1187 3025 
Q 903 2953 641 2809 
L 641 3341 
Q 956 3463 1253 3523 
Q 1550 3584 1831 3584 
Q 2591 3584 2966 3190 
Q 3341 2797 3341 1997 
z
" transform="scale(0.015625)"/>
       <path id="DejaVuSans-64" d="M 2906 2969 
L 2906 4863 
L 3481 4863 
L 3481 0 
L 2906 0 
L 2906 525 
Q 2725 213 2448 61 
Q 2172 -91 1784 -91 
Q 1150 -91 751 415 
Q 353 922 353 1747 
Q 353 2572 751 3078 
Q 1150 3584 1784 3584 
Q 2172 3584 2448 3432 
Q 2725 3281 2906 2969 
z
M 947 1747 
Q 947 1113 1208 752 
Q 1469 391 1925 391 
Q 2381 391 2643 752 
Q 2906 1113 2906 1747 
Q 2906 2381 2643 2742 
Q 2381 3103 1925 3103 
Q 1469 3103 1208 2742 
Q 947 2381 947 1747 
z
" transform="scale(0.015625)"/>
       <path id="DejaVuSans-67" d="M 2906 1791 
Q 2906 2416 2648 2759 
Q 2391 3103 1925 3103 
Q 1463 3103 1205 2759 
Q 947 2416 947 1791 
Q 947 1169 1205 825 
Q 1463 481 1925 481 
Q 2391 481 2648 825 
Q 2906 1169 2906 1791 
z
M 3481 434 
Q 3481 -459 3084 -895 
Q 2688 -1331 1869 -1331 
Q 1566 -1331 1297 -1286 
Q 1028 -1241 775 -1147 
L 775 -588 
Q 1028 -725 1275 -790 
Q 1522 -856 1778 -856 
Q 2344 -856 2625 -561 
Q 2906 -266 2906 331 
L 2906 616 
Q 2728 306 2450 153 
Q 2172 0 1784 0 
Q 1141 0 747 490 
Q 353 981 353 1791 
Q 353 2603 747 3093 
Q 1141 3584 1784 3584 
Q 2172 3584 2450 3431 
Q 2728 3278 2906 2969 
L 2906 3500 
L 3481 3500 
L 3481 434 
z
" transform="scale(0.015625)"/>
       <path id="DejaVuSans-79" d="M 2059 -325 
Q 1816 -950 1584 -1140 
Q 1353 -1331 966 -1331 
L 506 -1331 
L 506 -850 
L 844 -850 
Q 1081 -850 1212 -737 
Q 1344 -625 1503 -206 
L 1606 56 
L 191 3500 
L 800 3500 
L 1894 763 
L 2988 3500 
L 3597 3500 
L 2059 -325 
z
" transform="scale(0.015625)"/>
       <path id="DejaVuSans-73" d="M 2834 3397 
L 2834 2853 
Q 2591 2978 2328 3040 
Q 2066 3103 1784 3103 
Q 1356 3103 1142 2972 
Q 928 2841 928 2578 
Q 928 2378 1081 2264 
Q 1234 2150 1697 2047 
L 1894 2003 
Q 2506 1872 2764 1633 
Q 3022 1394 3022 966 
Q 3022 478 2636 193 
Q 2250 -91 1575 -91 
Q 1294 -91 989 -36 
Q 684 19 347 128 
L 347 722 
Q 666 556 975 473 
Q 1284 391 1588 391 
Q 1994 391 2212 530 
Q 2431 669 2431 922 
Q 2431 1156 2273 1281 
Q 2116 1406 1581 1522 
L 1381 1569 
Q 847 1681 609 1914 
Q 372 2147 372 2553 
Q 372 3047 722 3315 
Q 1072 3584 1716 3584 
Q 2034 3584 2315 3537 
Q 2597 3491 2834 3397 
z
" transform="scale(0.015625)"/>
      </defs>
      <use xlink:href="#DejaVuSans-54"/>
      <use xlink:href="#DejaVuSans-69" x="57.958984"/>
      <use xlink:href="#DejaVuSans-6d" x="85.742188"/>
      <use xlink:href="#DejaVuSans-65" x="183.154297"/>
      <use xlink:href="#DejaVuSans-20" x="244.677734"/>
      <use xlink:href="#DejaVuSans-69" x="276.464844"/>
      <use xlink:href="#DejaVuSans-6e" x="304.248047"/>
      <use xlink:href="#DejaVuSans-20" x="367.626953"/>
      <use xlink:href="#DejaVuSans-31" x="399.414062"/>
      <use xlink:href="#DejaVuSans-32" x="463.037109"/>
      <use xlink:href="#DejaVuSans-35" x="526.660156"/>
      <use xlink:href="#DejaVuSans-35" x="590.283203"/>
      <use xlink:href="#DejaVuSans-20" x="653.90625"/>
      <use xlink:href="#DejaVuSans-74" x="685.693359"/>
      <use xlink:href="#DejaVuSans-72" x="724.902344"/>
      <use xlink:href="#DejaVuSans-61" x="766.015625"/>
      <use xlink:href="#DejaVuSans-64" x="827.294922"/>
      <use xlink:href="#DejaVuSans-69" x="890.771484"/>
      <use xlink:href="#DejaVuSans-6e" x="918.554688"/>
      <use xlink:href="#DejaVuSans-67" x="981.933594"/>
      <use xlink:href="#DejaVuSans-20" x="1045.410156"/>
      <use xlink:href="#DejaVuSans-64" x="1077.197266"/>
      <use xlink:href="#DejaVuSans-61" x="1140.673828"/>
      <use xlink:href="#DejaVuSans-79" x="1201.953125"/>
      <use xlink:href="#DejaVuSans-73" x="1261.132812"/>
     </g>
    </g>
   </g>
   <g id="matplotlib.axis_2">
    <g id="ytick_1">
     <g id="line2d_11">
      <defs>
       <path id="ma54185b779" d="M 0 0 
L -3.5 0 
" style="stroke: #000000; stroke-width: 0.8"/>
      </defs>
      <g>
       <use xlink:href="#ma54185b779" x="90" y="448.206267" style="stroke: #000000; stroke-width: 0.8"/>
      </g>
     </g>
     <g id="text_12">
      <!-- $60 -->
      <g transform="translate(44.825 455.804705) scale(0.2 -0.2)">
       <defs>
        <path id="DejaVuSans-24" d="M 2163 -941 
L 1850 -941 
L 1847 0 
Q 1519 6 1191 76 
Q 863 147 531 288 
L 531 850 
Q 850 650 1176 548 
Q 1503 447 1850 444 
L 1850 1869 
Q 1159 1981 845 2250 
Q 531 2519 531 2988 
Q 531 3497 872 3790 
Q 1213 4084 1850 4128 
L 1850 4863 
L 2163 4863 
L 2163 4138 
Q 2453 4125 2725 4076 
Q 2997 4028 3256 3944 
L 3256 3397 
Q 2997 3528 2723 3600 
Q 2450 3672 2163 3684 
L 2163 2350 
Q 2872 2241 3206 1959 
Q 3541 1678 3541 1191 
Q 3541 663 3186 358 
Q 2831 53 2163 6 
L 2163 -941 
z
M 1850 2406 
L 1850 3688 
Q 1488 3647 1297 3481 
Q 1106 3316 1106 3041 
Q 1106 2772 1282 2622 
Q 1459 2472 1850 2406 
z
M 2163 1806 
L 2163 453 
Q 2559 506 2761 678 
Q 2963 850 2963 1131 
Q 2963 1406 2770 1568 
Q 2578 1731 2163 1806 
z
" transform="scale(0.015625)"/>
       </defs>
       <use xlink:href="#DejaVuSans-24"/>
       <use xlink:href="#DejaVuSans-36" x="63.623047"/>
       <use xlink:href="#DejaVuSans-30" x="127.246094"/>
      </g>
     </g>
    </g>
    <g id="ytick_2">
     <g id="line2d_12">
      <g>
       <use xlink:href="#ma54185b779" x="90" y="369.068306" style="stroke: #000000; stroke-width: 0.8"/>
      </g>
     </g>
     <g id="text_13">
      <!-- $80 -->
      <g transform="translate(44.825 376.666743) scale(0.2 -0.2)">
       <use xlink:href="#DejaVuSans-24"/>
       <use xlink:href="#DejaVuSans-38" x="63.623047"/>
       <use xlink:href="#DejaVuSans-30" x="127.246094"/>
      </g>
     </g>
    </g>
    <g id="ytick_3">
     <g id="line2d_13">
      <g>
       <use xlink:href="#ma54185b779" x="90" y="289.930344" style="stroke: #000000; stroke-width: 0.8"/>
      </g>
     </g>
     <g id="text_14">
      <!-- $100 -->
      <g transform="translate(32.1 297.528782) scale(0.2 -0.2)">
       <use xlink:href="#DejaVuSans-24"/>
       <use xlink:href="#DejaVuSans-31" x="63.623047"/>
       <use xlink:href="#DejaVuSans-30" x="127.246094"/>
       <use xlink:href="#DejaVuSans-30" x="190.869141"/>
      </g>
     </g>
    </g>
    <g id="ytick_4">
     <g id="line2d_14">
      <g>
       <use xlink:href="#ma54185b779" x="90" y="210.792383" style="stroke: #000000; stroke-width: 0.8"/>
      </g>
     </g>
     <g id="text_15">
      <!-- $120 -->
      <g transform="translate(32.1 218.39082) scale(0.2 -0.2)">
       <use xlink:href="#DejaVuSans-24"/>
       <use xlink:href="#DejaVuSans-31" x="63.623047"/>
       <use xlink:href="#DejaVuSans-32" x="127.246094"/>
       <use xlink:href="#DejaVuSans-30" x="190.869141"/>
      </g>
     </g>
    </g>
    <g id="ytick_5">
     <g id="line2d_15">
      <g>
       <use xlink:href="#ma54185b779" x="90" y="131.654421" style="stroke: #000000; stroke-width: 0.8"/>
      </g>
     </g>
     <g id="text_16">
      <!-- $140 -->
      <g transform="translate(32.1 139.252859) scale(0.2 -0.2)">
       <defs>
        <path id="DejaVuSans-34" d="M 2419 4116 
L 825 1625 
L 2419 1625 
L 2419 4116 
z
M 2253 4666 
L 3047 4666 
L 3047 1625 
L 3713 1625 
L 3713 1100 
L 3047 1100 
L 3047 0 
L 2419 0 
L 2419 1100 
L 313 1100 
L 313 1709 
L 2253 4666 
z
" transform="scale(0.015625)"/>
       </defs>
       <use xlink:href="#DejaVuSans-24"/>
       <use xlink:href="#DejaVuSans-31" x="63.623047"/>
       <use xlink:href="#DejaVuSans-34" x="127.246094"/>
       <use xlink:href="#DejaVuSans-30" x="190.869141"/>
      </g>
     </g>
    </g>
   </g>
   <g id="line2d_16">
    <path d="M 622.636364 287.120947 
L 622.23184 293.254139 
L 621.827316 302.869401 
L 621.018269 285.142498 
L 620.613745 292.779311 
L 620.209221 314.027854 
L 619.804698 322.456047 
L 619.400174 320.952425 
L 618.99565 318.420011 
L 618.591127 321.94165 
L 618.186603 320.556736 
L 617.782079 332.506568 
L 617.377555 334.247603 
L 616.973032 336.780018 
L 616.568508 342.280106 
L 616.163984 334.603724 
L 615.759461 330.686395 
L 615.354937 334.524586 
L 614.950413 333.654068 
L 614.54589 343.506744 
L 614.141366 337.690104 
L 613.736842 330.251136 
L 613.332318 336.384328 
L 612.927795 328.510101 
L 612.118747 332.862689 
L 611.714224 326.096393 
L 611.3097 324.751048 
L 610.905176 308.488196 
L 610.500652 306.351471 
L 610.096129 315.412768 
L 609.691605 317.351648 
L 609.287081 313.869578 
L 608.882558 309.1213 
L 608.07351 290.444741 
L 607.668987 286.646119 
L 607.264463 284.865515 
L 606.859939 284.192842 
L 606.455415 307.9738 
L 606.050892 304.768712 
L 605.241844 294.599484 
L 604.432797 306.430609 
L 604.028273 298.63552 
L 603.623749 295.865692 
L 603.219226 293.926812 
L 602.814702 294.995174 
L 602.410178 305.63923 
L 602.005655 302.869401 
L 601.601131 312.99906 
L 601.196607 339.78726 
L 600.792084 333.812344 
L 600.38756 334.841138 
L 599.983036 342.557089 
L 599.578512 355.258732 
L 598.364941 311.06018 
L 597.960418 303.462936 
L 597.555894 319.21139 
L 597.15137 310.427076 
L 596.746846 270.422837 
L 595.937799 284.074135 
L 595.533275 287.833188 
L 595.128752 288.782844 
L 594.724228 284.430256 
L 594.319704 286.843964 
L 593.915181 301.088797 
L 593.510657 291.077845 
L 593.106133 296.657071 
L 592.701609 297.646296 
L 592.297086 295.034743 
L 591.892562 291.631811 
L 591.488038 281.066893 
L 591.083515 281.146031 
L 590.678991 280.39422 
L 589.869943 305.164402 
L 589.46542 297.48802 
L 589.060896 287.00224 
L 588.656372 297.48802 
L 588.251849 294.639053 
L 587.847325 293.21457 
L 587.442801 287.674913 
L 587.038278 289.890775 
L 586.22923 274.696287 
L 585.824706 275.566804 
L 585.420183 274.498442 
L 585.015659 266.703353 
L 584.611135 268.919216 
L 584.206612 242.961964 
L 583.802088 243.318085 
L 583.397564 252.656365 
L 582.99304 248.462053 
L 582.588517 260.332747 
L 582.183993 255.584469 
L 581.779469 248.18507 
L 581.374946 253.724727 
L 580.970422 250.717485 
L 580.565898 249.016018 
L 580.161375 245.217396 
L 579.756851 219.893249 
L 579.352327 231.763943 
L 578.947803 231.48696 
L 578.54328 230.29989 
L 577.734232 207.389451 
L 577.329709 209.526176 
L 576.925185 200.860569 
L 576.520661 199.396517 
L 576.116137 200.306603 
L 575.711614 211.504625 
L 575.30709 208.220399 
L 574.902566 220.684628 
L 574.498043 218.152213 
L 574.093519 217.835662 
L 573.688995 215.263678 
L 573.284472 215.619799 
L 572.879948 227.015665 
L 572.475424 228.677562 
L 572.0709 224.087561 
L 571.666377 232.199202 
L 571.261853 236.116531 
L 570.857329 268.404819 
L 570.452806 257.444211 
L 570.048282 256.850677 
L 569.643758 230.418597 
L 569.239234 231.763943 
L 568.834711 232.080495 
L 568.430187 250.717485 
L 568.025663 239.412627 
L 567.62114 244.66343 
L 567.216616 241.707628 
L 566.812092 231.172387 
L 566.407569 224.552496 
L 566.003045 210.125646 
L 565.598521 213.53847 
L 565.193997 229.732076 
L 564.789474 234.980901 
L 564.38495 253.997753 
L 563.980426 252.844317 
L 563.575903 241.432623 
L 563.171379 240.1862 
L 562.766855 224.156806 
L 562.362331 216.577368 
L 561.957808 239.739071 
L 561.553284 242.313033 
L 561.14876 242.388214 
L 560.744237 258.807363 
L 560.339713 263.672369 
L 559.935189 248.816195 
L 559.530666 261.46442 
L 559.126142 262.720735 
L 558.317094 230.901339 
L 557.912571 221.721335 
L 557.508047 221.754969 
L 557.103523 222.62153 
L 556.699 232.302081 
L 556.294476 219.711231 
L 555.889952 233.991676 
L 555.485428 234.379452 
L 555.080905 239.286006 
L 554.676381 257.103918 
L 554.271857 266.824038 
L 553.867334 266.481766 
L 553.46281 243.767193 
L 553.058286 253.079753 
L 552.249239 240.860851 
L 551.844715 223.844211 
L 551.440191 231.39793 
L 551.035668 224.580194 
L 550.631144 237.853609 
L 549.822097 232.220964 
L 549.417573 238.15829 
L 549.013049 227.965321 
L 548.608525 223.666151 
L 548.204002 200.60337 
L 547.799478 218.193761 
L 547.394954 222.041844 
L 546.990431 230.709429 
L 546.585907 213.121017 
L 546.181383 230.495757 
L 545.372336 197.932464 
L 544.967812 212.319746 
L 544.563288 191.255199 
L 544.158765 178.16578 
L 543.754241 169.122289 
L 543.349717 179.291517 
L 542.945194 182.093001 
L 542.54067 170.091729 
L 542.136146 177.65534 
L 541.731622 172.028631 
L 541.327099 155.354262 
L 540.922575 145.642056 
L 540.518051 142.828702 
L 540.113528 127.448239 
L 539.709004 117.24142 
L 539.30448 128.884593 
L 538.899957 133.041314 
L 538.495433 121.190405 
L 538.090909 118.794503 
L 537.686385 123.93847 
L 537.281862 125.634001 
L 536.877338 126.462971 
L 536.472814 137.575919 
L 536.068291 130.556382 
L 535.663767 145.588638 
L 535.259243 144.31056 
L 534.854719 153.019693 
L 534.450196 156.62047 
L 534.045672 172.566769 
L 533.641148 184.118933 
L 533.236625 169.341897 
L 532.832101 160.611002 
L 532.427577 155.926034 
L 532.023054 181.9921 
L 531.61853 185.213015 
L 531.214006 162.826865 
L 530.809482 154.177085 
L 530.404959 152.422201 
L 530.000435 154.731051 
L 529.595911 151.870214 
L 529.191388 153.340201 
L 528.786864 160.644635 
L 528.38234 180.779311 
L 527.977816 173.587649 
L 527.573293 169.373552 
L 527.168769 162.088903 
L 526.764245 141.596128 
L 525.550674 154.881413 
L 525.146151 137.184187 
L 524.741627 125.905049 
L 524.337103 134.7685 
L 523.932579 135.856647 
L 523.528056 119.720417 
L 523.123532 121.166663 
L 522.719008 99.85481 
L 522.314485 140.048981 
L 521.505437 158.207186 
L 521.100913 174.701516 
L 520.69639 174.230645 
L 520.291866 184.140696 
L 519.887342 169.751436 
L 519.482819 170.859368 
L 519.078295 157.348539 
L 518.673771 148.859014 
L 518.269247 146.332535 
L 517.864724 132.499219 
L 517.4602 135.092966 
L 517.055676 125.133453 
L 515.842105 143.50731 
L 515.437582 141.344865 
L 515.033058 140.939283 
L 514.628534 114.178781 
L 514.22401 111.575142 
L 513.819487 113.138117 
L 513.414963 107.903141 
L 513.010439 105.916778 
L 512.605916 106.140343 
L 512.201392 99.745995 
L 511.796868 103.392277 
L 511.392344 104.157937 
L 510.987821 114.954333 
L 510.583297 122.151931 
L 510.178773 120.563236 
L 509.369726 102.498018 
L 508.965202 111.98666 
L 508.156155 97.328331 
L 507.751631 99.579806 
L 507.347107 97.148292 
L 506.942584 99.85481 
L 506.53806 116.632058 
L 506.133536 121.68106 
L 505.729013 116.711196 
L 505.324489 125.25216 
L 504.919965 121.952107 
L 504.515441 107.461947 
L 504.110918 120.551365 
L 503.706394 105.073959 
L 503.30187 104.917661 
L 502.897347 103.645518 
L 502.492823 92.273393 
L 502.088299 89.28 
L 501.683776 95.797011 
L 501.279252 95.741615 
L 500.470204 93.488161 
L 500.065681 104.953273 
L 499.661157 105.436015 
L 499.256633 95.05905 
L 498.85211 94.651489 
L 498.447586 95.088726 
L 498.043062 97.296675 
L 497.638538 104.787084 
L 497.234015 108.455128 
L 496.829491 116.721088 
L 496.424967 98.928896 
L 496.020444 107.402593 
L 495.61592 106.221459 
L 495.211396 132.952284 
L 494.806873 136.509535 
L 494.402349 137.095156 
L 493.997825 120.652266 
L 493.593301 122.098513 
L 493.188778 116.531157 
L 492.784254 119.940025 
L 492.37973 125.026617 
L 491.975207 126.067281 
L 491.570683 139.963907 
L 491.166159 144.660745 
L 490.761635 136.214747 
L 490.357112 131.432835 
L 489.952588 134.877315 
L 489.548064 142.124374 
L 489.143541 146.781643 
L 488.739017 156.325681 
L 488.334493 145.651948 
L 487.92997 158.302152 
L 487.525446 153.334266 
L 487.120922 146.753945 
L 486.716398 125.715117 
L 486.311875 121.235909 
L 485.502827 127.940873 
L 485.098304 133.053185 
L 484.69378 135.544052 
L 483.884732 114.348928 
L 483.480209 111.05481 
L 483.075685 118.177227 
L 482.671161 117.94377 
L 482.266638 124.05322 
L 481.862114 112.212203 
L 481.45759 112.33091 
L 481.053067 109.816301 
L 480.244019 114.960269 
L 479.839495 108.538223 
L 479.434972 110.041844 
L 479.030448 110.012167 
L 478.625924 113.648557 
L 478.221401 123.253927 
L 477.816877 119.981572 
L 477.412353 122.163801 
L 477.007829 127.303812 
L 476.603306 137.839053 
L 476.198782 143.867387 
L 475.794258 145.226582 
L 475.389735 142.336068 
L 474.985211 135.943699 
L 474.580687 137.961717 
L 474.176164 138.027006 
L 473.77164 140.796834 
L 473.367116 139.186377 
L 472.962592 139.560304 
L 472.558069 143.382667 
L 472.153545 143.76253 
L 471.749021 147.369242 
L 471.344498 146.374082 
L 470.939974 147.523561 
L 470.53545 150.564437 
L 470.130926 145.34331 
L 469.726403 145.972457 
L 469.321879 144.330344 
L 468.917355 133.061099 
L 468.512832 140.296287 
L 468.108308 158.052867 
L 467.703784 160.933489 
L 466.894737 174.175248 
L 466.490213 163.920947 
L 466.085689 166.211991 
L 465.681166 162.983162 
L 465.276642 167.288267 
L 464.872118 168.991712 
L 464.467595 172.907062 
L 464.063071 174.479929 
L 463.658547 170.916743 
L 463.254023 172.129532 
L 462.8495 176.292189 
L 462.444976 185.592878 
L 462.040452 189.757513 
L 461.231405 183.808317 
L 460.826881 183.113881 
L 460.422358 181.978251 
L 460.017834 185.224886 
L 459.61331 183.096075 
L 459.208786 185.250606 
L 458.804263 188.762353 
L 458.399739 185.582985 
L 457.995215 188.251913 
L 457.186168 185.658166 
L 456.781644 188.251913 
L 456.37712 186.734443 
L 455.972597 192.709359 
L 455.568073 194.400933 
L 454.759026 200.551931 
L 454.354502 209.880318 
L 453.949978 206.582243 
L 453.545455 204.894626 
L 453.140931 208.505296 
L 452.736407 210.295792 
L 452.331883 204.158643 
L 451.92736 208.99793 
L 451.522836 209.472757 
L 451.118312 221.654068 
L 450.713789 219.479753 
L 450.309265 228.853644 
L 449.904741 229.898265 
L 449.500217 226.341014 
L 449.095694 227.3797 
L 448.69117 238.100915 
L 448.286646 242.629585 
L 447.882123 228.843752 
L 447.477599 222.334655 
L 447.073075 211.05156 
L 446.668552 214.48219 
L 446.264028 219.351154 
L 445.859504 219.843787 
L 445.45498 211.747974 
L 445.050457 208.790193 
L 444.645933 204.878799 
L 444.241409 214.767087 
L 443.836886 229.168218 
L 443.432362 225.286501 
L 443.027838 227.549846 
L 442.623314 236.923738 
L 442.218791 231.904413 
L 441.814267 231.837145 
L 441.409743 230.102046 
L 441.00522 231.020046 
L 440.600696 231.237675 
L 440.196172 239.511549 
L 439.791649 237.052337 
L 439.387125 239.521441 
L 438.982601 233.370443 
L 437.76903 245.464702 
L 437.364506 245.306426 
L 436.555459 276.352249 
L 436.150935 278.942039 
L 435.746411 278.860922 
L 435.341888 282.896958 
L 434.937364 281.153945 
L 434.53284 281.015453 
L 434.128317 279.452478 
L 433.723793 282.29551 
L 433.319269 281.383445 
L 432.914746 282.764402 
L 432.510222 271.910631 
L 432.105698 271.625734 
L 431.701174 276.775637 
L 431.296651 277.679788 
L 430.892127 267.223685 
L 430.487603 279.042939 
L 430.08308 279.503918 
L 429.678556 285.148433 
L 429.274032 268.456259 
L 428.869508 280.218138 
L 428.464985 284.645907 
L 428.060461 274.925787 
L 427.655937 273.804006 
L 427.251414 282.637781 
L 426.84689 283.725928 
L 426.442366 271.101445 
L 426.037843 275.911055 
L 425.633319 277.094167 
L 425.228795 269.920311 
L 424.824271 266.742922 
L 424.419748 264.544865 
L 424.015224 265.813051 
L 423.6107 269.332712 
L 423.206177 270.958997 
L 422.801653 271.059898 
L 422.397129 273.408317 
L 421.992605 271.548574 
L 421.588082 270.541544 
L 421.183558 277.590758 
L 420.779034 276.067352 
L 420.374511 304.272122 
L 419.969987 309.447744 
L 419.565463 322.428348 
L 419.16094 317.013333 
L 418.756416 323.407681 
L 418.351892 306.303989 
L 417.947368 309.833542 
L 417.542845 309.507098 
L 417.138321 311.445978 
L 416.733797 312.306603 
L 416.329274 331.307628 
L 415.92475 342.123809 
L 415.520226 341.334407 
L 415.115702 338.521053 
L 414.711179 340.074135 
L 414.306655 336.083604 
L 413.902131 328.072863 
L 413.497608 332.021848 
L 413.093084 342.301869 
L 412.68856 341.188002 
L 412.284037 343.696675 
L 411.879513 339.019622 
L 411.474989 341.464985 
L 410.665942 334.229797 
L 410.261418 341.597541 
L 409.856894 342.877598 
L 409.452371 344.63446 
L 409.047847 341.494662 
L 408.643323 343.148645 
L 407.834276 336.819587 
L 407.429752 335.875866 
L 407.025228 337.401251 
L 406.620705 333.106038 
L 406.216181 334.380159 
L 405.811657 332.639124 
L 405.407134 325.829302 
L 405.00261 325.645306 
L 404.598086 323.961646 
L 404.193562 324.203017 
L 403.789039 323.96956 
L 402.979991 337.266716 
L 402.575468 330.846649 
L 402.170944 335.151754 
L 401.76642 335.656259 
L 401.361896 342.386942 
L 400.957373 340.936739 
L 400.552849 336.637569 
L 400.148325 340.028631 
L 399.743802 335.404996 
L 399.339278 333.183197 
L 398.934754 334.045801 
L 398.530231 339.423226 
L 398.125707 338.855411 
L 397.721183 341.29286 
L 397.316659 336.819587 
L 396.912136 337.066893 
L 396.507612 336.746384 
L 396.103088 339.563695 
L 395.698565 359.134513 
L 395.294041 363.918403 
L 394.889517 364.911585 
L 394.08047 385.564614 
L 393.675946 368.225487 
L 393.271422 370.957725 
L 392.866899 360.956665 
L 392.057851 370.391888 
L 391.653328 377.787331 
L 391.248804 382.005384 
L 390.84428 374.40814 
L 390.439756 377.154227 
L 390.035233 375.383515 
L 389.630709 374.671274 
L 389.226185 375.171821 
L 388.821662 385.841597 
L 388.012614 396.709217 
L 387.60809 398.064455 
L 387.203567 391.618668 
L 386.799043 397.079187 
L 386.394519 390.813439 
L 385.989996 394.867281 
L 385.585472 394.9207 
L 385.180948 395.872334 
L 384.371901 403.040254 
L 383.967377 405.628066 
L 383.562853 395.686359 
L 383.15833 402.472439 
L 381.540235 380.654104 
L 381.135711 385.038347 
L 380.731187 384.75345 
L 380.326664 382.517803 
L 379.92214 377.583551 
L 379.517616 382.4446 
L 378.708569 360.790475 
L 378.304045 343.688762 
L 377.899522 357.057142 
L 377.494998 362.305967 
L 377.090474 360.282014 
L 376.68595 362.27629 
L 376.281427 358.70519 
L 375.876903 367.442021 
L 375.472379 371.402876 
L 375.067856 372.942109 
L 374.663332 372.678975 
L 374.258808 379.449228 
L 373.854284 377.259085 
L 373.449761 385.295545 
L 373.045237 387.323455 
L 372.640713 385.202558 
L 372.23619 387.543063 
L 371.831666 392.746384 
L 371.427142 389.624391 
L 371.022619 389.942922 
L 370.618095 388.833012 
L 370.213571 394.073923 
L 369.809047 395.783303 
L 369 392.224073 
L 368.595476 382.630574 
L 368.190953 384.496252 
L 367.786429 388.785529 
L 367.381905 382.87788 
L 366.977381 386.504377 
L 366.572858 385.750588 
L 366.168334 375.302399 
L 365.76381 377.294697 
L 365.359287 375.850429 
L 364.954763 385.776308 
L 364.550239 385.291588 
L 364.145716 386.154192 
L 363.741192 384.781148 
L 363.336668 386.609235 
L 362.932144 380.59475 
L 362.527621 386.678481 
L 362.123097 389.644176 
L 361.718573 391.784858 
L 361.31405 389.703529 
L 360.505002 401.111267 
L 359.291431 416.570867 
L 358.886907 400.460357 
L 358.482384 402.312185 
L 358.07786 395.894096 
L 357.673336 398.37705 
L 357.268813 402.361646 
L 356.864289 401.522784 
L 356.459765 398.523455 
L 356.055241 400.185352 
L 355.650718 404.710065 
L 355.246194 406.029691 
L 354.84167 407.877562 
L 354.437147 395.6092 
L 353.223575 401.042021 
L 352.819052 406.227536 
L 352.414528 401.439689 
L 352.010004 400.87781 
L 351.605481 402.341862 
L 351.200957 402.915612 
L 350.796433 405.327341 
L 350.39191 405.107734 
L 349.987386 405.269966 
L 349.178338 408.083321 
L 348.773815 407.307769 
L 348.369291 413.883144 
L 347.964767 411.814676 
L 347.560244 413.941509 
L 347.15572 417.316743 
L 346.751196 418.662088 
L 345.942149 407.992312 
L 345.133101 414.066151 
L 344.728578 419.063713 
L 344.324054 418.309924 
L 343.91953 423.119534 
L 343.515007 424.344194 
L 343.110483 418.794644 
L 342.705959 420.21517 
L 342.301435 441.54483 
L 341.896912 433.193796 
L 341.492388 432.515188 
L 341.087864 433.108723 
L 340.683341 435.700491 
L 340.278817 444.973482 
L 339.874293 435.027818 
L 339.469769 431.735679 
L 339.065246 435.649051 
L 338.660722 435.846896 
L 338.256198 434.509465 
L 337.851675 444.732111 
L 337.447151 445.940943 
L 337.042627 446.172422 
L 336.638104 450.875195 
L 336.23358 450.794079 
L 335.829056 468.410189 
L 335.424532 463.86767 
L 335.020009 466.878869 
L 334.615485 455.564119 
L 334.210961 458.727659 
L 333.806438 465.871839 
L 333.401914 455.773835 
L 332.99739 467.498124 
L 332.592866 461.173022 
L 332.188343 476.57327 
L 331.783819 473.467105 
L 331.379295 464.965709 
L 330.974772 468.623862 
L 330.570248 464.073429 
L 330.165724 471.090987 
L 329.761201 444.302787 
L 329.356677 465.04089 
L 328.952153 445.157477 
L 328.547629 432.301516 
L 328.143106 445.127801 
L 327.738582 428.73635 
L 327.334058 424.65481 
L 326.929535 411.304236 
L 326.525011 420.232977 
L 326.120487 410.791818 
L 325.715963 420.640537 
L 325.31144 424.842763 
L 324.906916 409.986589 
L 324.502392 410.922395 
L 324.097869 404.365815 
L 323.693345 391.798707 
L 323.288821 385.261911 
L 322.884298 383.572316 
L 322.479774 384.961187 
L 322.07525 384.749493 
L 321.670726 385.95239 
L 321.266203 385.23817 
L 320.861679 387.11374 
L 320.457155 387.135503 
L 320.052632 392.962035 
L 319.648108 393.55557 
L 319.243584 399.095227 
L 318.83906 399.324727 
L 318.434537 391.634496 
L 318.030013 401.865056 
L 317.625489 397.589627 
L 317.220966 397.03764 
L 316.816442 398.238559 
L 316.411918 401.930344 
L 316.007395 395.439053 
L 315.602871 391.494026 
L 315.198347 391.632517 
L 314.793823 391.939177 
L 314.3893 392.732535 
L 313.984776 398.408705 
L 313.580252 400.881766 
L 313.175729 402.527836 
L 312.771205 400.875831 
L 311.962157 404.714022 
L 311.557634 407.782597 
L 311.15311 409.954934 
L 310.748586 409.782809 
L 310.344063 416.420505 
L 309.939539 415.092966 
L 309.535015 421.097559 
L 309.130492 421.271662 
L 308.725968 418.155605 
L 308.321444 416.471945 
L 307.91692 419.803653 
L 307.512397 418.759032 
L 307.107873 418.610648 
L 306.703349 417.334549 
L 306.298826 418.011178 
L 305.894302 417.516566 
L 305.489778 416.319604 
L 305.085254 418.958855 
L 304.680731 418.476114 
L 304.276207 419.5148 
L 303.871683 419.586024 
L 303.46716 419.803653 
L 303.062636 420.385317 
L 302.658112 422.8564 
L 302.253589 424.358043 
L 301.849065 429.355605 
L 301.444541 430.416054 
L 301.040017 427.440466 
L 300.635494 425.851772 
L 300.23097 425.740979 
L 299.826446 427.098195 
L 299.421923 429.343734 
L 299.017399 428.154686 
L 298.612875 427.81835 
L 298.208351 425.363095 
L 297.803828 424.326388 
L 297.399304 421.522925 
L 296.99478 426.154474 
L 296.590257 428.817467 
L 295.781209 428.582031 
L 295.376686 426.172281 
L 294.972162 426.668871 
L 294.567638 430.044105 
L 294.163114 429.998601 
L 293.758591 430.129179 
L 292.949543 436.31381 
L 292.140496 435.81722 
L 291.735972 430.400226 
L 291.331448 435.320629 
L 290.926925 436.139707 
L 290.522401 436.507698 
L 290.117877 439.738506 
L 289.713354 439.075725 
L 289.30883 439.206303 
L 288.904306 437.706638 
L 288.499783 439.572316 
L 288.095259 439.696958 
L 287.690735 444.815206 
L 287.286211 445.149564 
L 286.477164 447.749246 
L 286.07264 450.356842 
L 285.668117 446.686819 
L 285.263593 446.425663 
L 284.859069 450.61404 
L 284.454545 452.829903 
L 284.050022 447.197258 
L 283.645498 444.447214 
L 283.240974 443.242339 
L 282.836451 440.017467 
L 282.431927 439.002523 
L 282.027403 444.494697 
L 281.62288 441.473605 
L 281.218356 442.284769 
L 280.813832 440.547691 
L 280.409308 441.794114 
L 280.004785 442.439089 
L 279.600261 442.013722 
L 279.195737 440.379523 
L 278.791214 441.430079 
L 277.982166 447.019198 
L 277.577642 447.333771 
L 277.173119 447.230892 
L 276.768595 445.954792 
L 276.364071 451.884204 
L 275.959548 454.460145 
L 275.555024 450.560622 
L 275.1505 449.620859 
L 274.745977 453.939813 
L 274.341453 454.56896 
L 273.936929 454.361222 
L 273.532405 457.843293 
L 273.127882 450.277704 
L 272.723358 449.93741 
L 272.318834 451.630963 
L 271.914311 448.512927 
L 271.509787 452.637993 
L 271.105263 454.68371 
L 270.700739 455.271309 
L 270.296216 448.746384 
L 269.891692 453.209765 
L 269.082645 447.256612 
L 268.678121 453.352213 
L 268.273597 454.151507 
L 267.869074 457.639512 
L 267.46455 449.395315 
L 267.060026 446.423685 
L 266.250979 443.232447 
L 265.441931 438.232906 
L 265.037408 461.63598 
L 264.632884 460.510242 
L 264.22836 458.848345 
L 263.419313 462.035626 
L 263.014789 458.824603 
L 262.610265 458.820647 
L 262.205742 457.390228 
L 261.801218 458.031245 
L 261.396694 459.107522 
L 260.992171 459.244035 
L 260.587647 459.981996 
L 260.183123 463.078269 
L 259.778599 464.755994 
L 259.374076 461.740837 
L 258.565028 465.765003 
L 258.160505 468.39634 
L 257.755981 471.767617 
L 257.351457 472.737057 
L 256.946933 471.987225 
L 256.54241 470.691341 
L 256.137886 464.920205 
L 255.733362 463.661911 
L 254.924315 467.529779 
L 254.519791 467.278516 
L 254.115268 469.474595 
L 253.710744 470.889186 
L 253.30622 470.212556 
L 252.901696 472.535255 
L 252.092649 471.872475 
L 251.688125 474.709571 
L 251.283602 479.002805 
L 250.879078 479.422236 
L 250.474554 477.279576 
L 250.07003 480.607327 
L 249.665507 467.272581 
L 249.260983 464.439442 
L 248.856459 464.734231 
L 248.451936 461.234354 
L 248.047412 461.368889 
L 247.642888 459.924621 
L 247.238365 457.817573 
L 246.833841 458.171715 
L 246.429317 460.304483 
L 246.024793 455.66502 
L 245.62027 452.364967 
L 245.215746 455.287137 
L 244.811222 463.946808 
L 244.406699 461.653786 
L 244.002175 455.275266 
L 243.597651 455.649193 
L 243.193127 454.879576 
L 242.788604 453.33045 
L 242.38408 450.305402 
L 241.979556 451.094803 
L 241.575033 455.603688 
L 241.170509 454.521477 
L 240.765985 450.485441 
L 240.361462 430.879011 
L 239.956938 433.925822 
L 239.14789 437.126953 
L 238.743367 435.435379 
L 237.934319 441.010648 
L 237.529796 441.016584 
L 237.125272 442.838735 
L 236.720748 444.03174 
L 236.316224 444.670779 
L 235.911701 447.292224 
L 235.507177 447.778922 
L 235.102653 448.750341 
L 234.69813 447.446543 
L 234.293606 446.791676 
L 233.889082 445.238594 
L 233.484559 447.035026 
L 232.675511 449.308264 
L 232.270987 453.486748 
L 231.866464 454.44036 
L 231.46194 453.544123 
L 230.248369 447.11812 
L 229.843845 441.966239 
L 229.439321 443.463925 
L 229.034798 448.433789 
L 228.630274 451.320346 
L 228.22575 451.280777 
L 227.821227 451.065126 
L 227.416703 449.527871 
L 227.012179 449.551613 
L 226.607656 453.002028 
L 226.203132 459.617961 
L 225.798608 459.424073 
L 225.394084 456.543452 
L 224.989561 455.718438 
L 224.585037 458.533771 
L 224.180513 459.881095 
L 223.77599 464.049687 
L 223.371466 464.815347 
L 222.966942 464.997364 
L 222.562418 466.131016 
L 222.157895 465.939106 
L 221.753371 468.590228 
L 221.348847 465.260498 
L 220.944324 464.318756 
L 220.5398 465.290175 
L 220.135276 463.703459 
L 219.730753 464.002205 
L 219.326229 463.762812 
L 218.921705 468.978004 
L 218.517181 468.968112 
L 218.112658 468.245978 
L 217.708134 464.97758 
L 217.30361 458.891871 
L 216.899087 461.501445 
L 216.494563 465.863925 
L 216.090039 464.752037 
L 215.280992 475.78189 
L 214.876468 473.910277 
L 214.471944 469.77334 
L 214.067421 473.15451 
L 213.662897 472.824109 
L 213.258373 473.823226 
L 212.853849 468.335008 
L 212.044802 471.755746 
L 211.640278 472.511514 
L 211.235755 478.933559 
L 210.426707 473.860816 
L 210.022184 473.004148 
L 209.61766 472.683639 
L 209.213136 474.244635 
L 208.808612 473.785635 
L 208.404089 484.597859 
L 207.999565 478.704059 
L 207.595041 480.729991 
L 207.190518 480.439159 
L 206.785994 479.093814 
L 206.38147 479.968288 
L 205.976946 492.48 
L 205.572423 491.823155 
L 205.167899 485.913528 
L 204.763375 483.222837 
L 204.358852 482.095121 
L 203.954328 484.504872 
L 203.145281 475.528649 
L 202.740757 475.176485 
L 201.931709 479.950482 
L 201.527186 480.538082 
L 201.122662 474.177368 
L 200.718138 477.72077 
L 200.313615 466.718615 
L 199.909091 469.092754 
L 199.504567 470.305543 
L 199.100043 470.715082 
L 198.69552 478.988956 
L 198.290996 478.156029 
L 197.886472 483.050712 
L 197.481949 480.334301 
L 197.077425 482.678763 
L 196.672901 483.81835 
L 196.268378 475.609765 
L 195.863854 474.972704 
L 195.45933 479.13734 
L 195.054806 480.642939 
L 194.650283 480.1325 
L 194.245759 474.687808 
L 193.841235 471.472828 
L 193.436712 469.298513 
L 193.032188 476.733524 
L 192.627664 479.843646 
L 192.22314 476.341791 
L 191.818617 473.926105 
L 191.414093 472.586695 
L 191.009569 480.611284 
L 190.605046 483.802523 
L 190.200522 473.635273 
L 189.795998 468.867211 
L 189.391475 477.742533 
L 188.986951 467.26071 
L 188.582427 467.761258 
L 188.177903 468.691129 
L 187.77338 470.370832 
L 187.368856 464.886571 
L 186.964332 463.780618 
L 186.559809 469.524056 
L 186.155285 465.996481 
L 185.750761 472.08219 
L 185.346237 471.706285 
L 184.941714 460.310419 
L 183.728143 454.499714 
L 183.323619 447.622625 
L 182.919095 448.184505 
L 182.514572 449.13416 
L 182.110048 449.498195 
L 181.705524 449.266716 
L 181.301 452.066222 
L 180.896477 451.243187 
L 180.491953 453.474877 
L 180.087429 454.915188 
L 179.682906 450.803971 
L 179.278382 453.925964 
L 178.873858 455.878693 
L 178.469334 456.901551 
L 178.064811 453.641067 
L 177.660287 453.087101 
L 177.255763 455.562141 
L 176.85124 452.685476 
L 176.446716 455.202063 
L 176.042192 455.164473 
L 175.637669 453.856718 
L 175.233145 450.881131 
L 174.828621 448.799802 
L 174.019574 440.466575 
L 173.61505 438.452514 
L 173.210526 442.043399 
L 172.806003 439.932394 
L 172.401479 444.12077 
L 171.996955 447.141862 
L 171.592431 446.756064 
L 171.187908 447.885759 
L 170.783384 446.669013 
L 170.37886 448.016336 
L 169.974337 446.922254 
L 169.569813 445.361258 
L 169.165289 439.876997 
L 168.760766 441.279717 
L 168.356242 440.765321 
L 167.951718 438.492083 
L 167.142671 439.853256 
L 166.738147 443.305649 
L 166.333623 443.515365 
L 165.9291 443.032623 
L 165.524576 444.247391 
L 165.120052 444.791464 
L 164.715528 444.300809 
L 164.311005 440.589239 
L 163.906481 434.687525 
L 163.501957 435.603547 
L 163.097434 438.693884 
L 162.69291 447.11812 
L 162.288386 451.191747 
L 161.883863 450.786165 
L 161.479339 449.021388 
L 161.074815 448.443681 
L 160.670291 451.399484 
L 160.265768 450.418173 
L 159.861244 451.474665 
L 159.45672 457.326918 
L 159.052197 457.536633 
L 158.647673 457.297241 
L 157.838625 463.189062 
L 157.434102 467.418986 
L 157.029578 462.557937 
L 156.625054 464.894485 
L 156.220531 465.177403 
L 155.816007 467.203335 
L 155.411483 464.338541 
L 155.00696 463.082226 
L 154.602436 457.014323 
L 154.197912 456.583021 
L 153.793388 454.17327 
L 153.388865 454.525434 
L 152.984341 453.457071 
L 152.579817 457.651383 
L 152.175294 457.679081 
L 151.77077 461.107734 
L 151.366246 460.211496 
L 150.557199 463.861735 
L 150.152675 463.270178 
L 149.748151 460.694238 
L 149.343628 460.144229 
L 148.939104 460.217432 
L 148.53458 464.132782 
L 148.130057 470.96041 
L 147.725533 474.361364 
L 147.321009 475.841244 
L 146.916485 472.806303 
L 146.511962 472.098018 
L 146.107438 472.008988 
L 145.702914 473.979523 
L 145.298391 472.030751 
L 144.893867 474.64626 
L 144.489343 472.226617 
L 144.084819 471.59747 
L 143.680296 472.099996 
L 143.275772 467.951189 
L 142.871248 468.335008 
L 142.466725 468.471521 
L 142.062201 471.401604 
L 141.657677 477.109429 
L 141.253154 476.935326 
L 140.84863 478.237145 
L 140.444106 483.082367 
L 140.039582 482.951789 
L 139.635059 480.393655 
L 139.230535 484.346596 
L 138.421488 479.853538 
L 138.016964 483.584893 
L 137.61244 483.822307 
L 137.207916 474.430609 
L 136.803393 473.340484 
L 136.398869 470.42425 
L 135.994345 473.514588 
L 135.589822 473.10307 
L 135.185298 480.261099 
L 134.780774 481.984328 
L 134.376251 481.34331 
L 133.971727 483.824285 
L 133.567203 481.515435 
L 133.162679 484.718544 
L 132.758156 486.38242 
L 132.353632 482.273181 
L 131.949108 482.801427 
L 131.544585 485.122148 
L 131.140061 486.495192 
L 130.735537 481.485759 
L 130.331013 486.873075 
L 129.92649 486.766239 
L 129.521966 477.247921 
L 129.117442 483.507734 
L 128.712919 478.06502 
L 128.308395 469.795103 
L 127.903871 468.443823 
L 127.499348 468.02637 
L 127.094824 460.921759 
L 126.6903 458.181607 
L 126.285776 458.199414 
L 125.881253 460.439018 
L 125.476729 455.229762 
L 125.072205 456.11215 
L 124.667682 462.84679 
L 123.858634 468.968112 
L 123.45411 469.785211 
L 122.645063 474.02107 
L 122.240539 467.054951 
L 121.836016 464.372175 
L 121.431492 459.335043 
L 120.622445 466.679046 
L 120.217921 465.747197 
L 119.408873 469.019551 
L 119.00435 470.064172 
L 118.195302 477.467529 
L 117.790779 477.499184 
L 117.386255 480.300668 
L 116.981731 487.474524 
L 116.577207 478.163943 
L 116.172684 471.828949 
L 115.76816 476.735503 
L 115.363636 465.636403 
L 115.363636 465.636403 
" clip-path="url(#pd63f62bd77)" style="fill: none; stroke: #1f77b4; stroke-width: 2; stroke-linecap: square"/>
   </g>
   <g id="patch_3">
    <path d="M 90 512.64 
L 90 69.12 
" style="fill: none; stroke: #000000; stroke-width: 0.8; stroke-linejoin: miter; stroke-linecap: square"/>
   </g>
   <g id="patch_4">
    <path d="M 648 512.64 
L 648 69.12 
" style="fill: none; stroke: #000000; stroke-width: 0.8; stroke-linejoin: miter; stroke-linecap: square"/>
   </g>
   <g id="patch_5">
    <path d="M 90 512.64 
L 648 512.64 
" style="fill: none; stroke: #000000; stroke-width: 0.8; stroke-linejoin: miter; stroke-linecap: square"/>
   </g>
   <g id="patch_6">
    <path d="M 90 69.12 
L 648 69.12 
" style="fill: none; stroke: #000000; stroke-width: 0.8; stroke-linejoin: miter; stroke-linecap: square"/>
   </g>
   <g id="text_17">
    <!-- Last price $100.71 -->
    <g transform="translate(182.14375 60.80125) scale(0.4 -0.4)">
     <defs>
      <path id="DejaVuSans-4c" d="M 628 4666 
L 1259 4666 
L 1259 531 
L 3531 531 
L 3531 0 
L 628 0 
L 628 4666 
z
" transform="scale(0.015625)"/>
      <path id="DejaVuSans-70" d="M 1159 525 
L 1159 -1331 
L 581 -1331 
L 581 3500 
L 1159 3500 
L 1159 2969 
Q 1341 3281 1617 3432 
Q 1894 3584 2278 3584 
Q 2916 3584 3314 3078 
Q 3713 2572 3713 1747 
Q 3713 922 3314 415 
Q 2916 -91 2278 -91 
Q 1894 -91 1617 61 
Q 1341 213 1159 525 
z
M 3116 1747 
Q 3116 2381 2855 2742 
Q 2594 3103 2138 3103 
Q 1681 3103 1420 2742 
Q 1159 2381 1159 1747 
Q 1159 1113 1420 752 
Q 1681 391 2138 391 
Q 2594 391 2855 752 
Q 3116 1113 3116 1747 
z
" transform="scale(0.015625)"/>
      <path id="DejaVuSans-63" d="M 3122 3366 
L 3122 2828 
Q 2878 2963 2633 3030 
Q 2388 3097 2138 3097 
Q 1578 3097 1268 2742 
Q 959 2388 959 1747 
Q 959 1106 1268 751 
Q 1578 397 2138 397 
Q 2388 397 2633 464 
Q 2878 531 3122 666 
L 3122 134 
Q 2881 22 2623 -34 
Q 2366 -91 2075 -91 
Q 1284 -91 818 406 
Q 353 903 353 1747 
Q 353 2603 823 3093 
Q 1294 3584 2113 3584 
Q 2378 3584 2631 3529 
Q 2884 3475 3122 3366 
z
" transform="scale(0.015625)"/>
      <path id="DejaVuSans-2e" d="M 684 794 
L 1344 794 
L 1344 0 
L 684 0 
L 684 794 
z
" transform="scale(0.015625)"/>
     </defs>
     <use xlink:href="#DejaVuSans-4c"/>
     <use xlink:href="#DejaVuSans-61" x="55.712891"/>
     <use xlink:href="#DejaVuSans-73" x="116.992188"/>
     <use xlink:href="#DejaVuSans-74" x="169.091797"/>
     <use xlink:href="#DejaVuSans-20" x="208.300781"/>
     <use xlink:href="#DejaVuSans-70" x="240.087891"/>
     <use xlink:href="#DejaVuSans-72" x="303.564453"/>
     <use xlink:href="#DejaVuSans-69" x="344.677734"/>
     <use xlink:href="#DejaVuSans-63" x="372.460938"/>
     <use xlink:href="#DejaVuSans-65" x="427.441406"/>
     <use xlink:href="#DejaVuSans-20" x="488.964844"/>
     <use xlink:href="#DejaVuSans-24" x="520.751953"/>
     <use xlink:href="#DejaVuSans-31" x="584.375"/>
     <use xlink:href="#DejaVuSans-30" x="647.998047"/>
     <use xlink:href="#DejaVuSans-30" x="711.621094"/>
     <use xlink:href="#DejaVuSans-2e" x="775.244141"/>
     <use xlink:href="#DejaVuSans-37" x="807.03125"/>
     <use xlink:href="#DejaVuSans-31" x="870.654297"/>
    </g>
   </g>
  </g>
 </g>
 <defs>
  <clipPath id="pd63f62bd77">
   <rect x="90" y="69.12" width="558" height="443.52"/>
  </clipPath>
 </defs>
</svg>
